<?xml version="1.0" standalone="no"?>
<!DOCTYPE svg PUBLIC "-//W3C//DTD SVG 20010904//EN"
 "http://www.w3.org/TR/2001/REC-SVG-20010904/DTD/svg10.dtd">
<svg version="1.0" xmlns="http://www.w3.org/2000/svg"
 width="1244.000000pt" height="1244.000000pt" viewBox="0 0 1244.000000 1244.000000"
 preserveAspectRatio="xMidYMid meet">
<metadata>
Created by potrace 1.14, written by Peter Selinger 2001-2017
</metadata>
<g transform="translate(0.000000,1244.000000) scale(0.100000,-0.100000)"
fill="#000000" stroke="none">
<path d="M5838 12435 c-2 -2 -48 -6 -103 -10 -55 -3 -113 -8 -130 -10 -37 -6
-108 -15 -155 -20 -19 -2 -46 -7 -60 -10 -14 -4 -32 -7 -40 -7 -8 0 -78 -13
-155 -29 -77 -16 -153 -32 -169 -35 -16 -2 -36 -9 -45 -13 -9 -5 -29 -11 -46
-14 -16 -3 -52 -13 -80 -22 -27 -9 -59 -18 -71 -20 -12 -1 -35 -10 -52 -19
-17 -9 -36 -16 -43 -16 -13 0 -277 -103 -306 -119 -10 -6 -56 -28 -103 -50
-126 -59 -402 -216 -408 -232 -2 -5 -8 -9 -13 -9 -25 0 -316 -221 -428 -324
-154 -143 -334 -342 -426 -470 -11 -16 -29 -40 -40 -55 -133 -171 -319 -505
-426 -760 -48 -112 -118 -297 -124 -326 -3 -11 -14 -49 -24 -85 -40 -133 -63
-215 -67 -240 -3 -14 -7 -33 -10 -42 -3 -10 -7 -30 -10 -44 -3 -14 -12 -56
-20 -92 -9 -37 -17 -80 -19 -97 -3 -31 -13 -92 -21 -129 -2 -11 -7 -41 -10
-66 -3 -25 -7 -56 -10 -70 -4 -23 -6 -46 -20 -195 -15 -162 -19 -282 -19 -555
0 -168 4 -348 8 -400 4 -52 9 -126 12 -165 3 -38 7 -80 10 -93 3 -12 8 -48 11
-80 3 -31 7 -68 10 -82 2 -14 7 -41 10 -60 2 -19 9 -57 14 -85 5 -27 12 -68
15 -90 3 -22 13 -69 21 -105 9 -36 17 -74 19 -85 2 -11 9 -38 15 -60 6 -22 12
-49 14 -60 3 -11 9 -35 14 -52 6 -18 9 -33 6 -33 -2 0 2 -13 10 -29 9 -16 12
-31 9 -35 -4 -3 -1 -6 6 -6 7 0 10 -4 7 -9 -5 -8 13 -66 79 -251 28 -78 32
-87 85 -210 56 -128 102 -224 122 -252 11 -16 16 -28 13 -28 -3 0 3 -13 14
-29 12 -16 21 -31 21 -34 0 -7 73 -127 121 -200 22 -32 39 -62 39 -67 0 -5 3
-10 8 -12 4 -1 36 -43 72 -93 60 -84 80 -110 105 -139 6 -6 37 -43 70 -81 68
-80 309 -324 343 -347 12 -8 39 -31 60 -49 20 -19 53 -46 72 -59 19 -13 40
-29 45 -36 6 -6 48 -38 95 -70 47 -32 87 -62 88 -66 2 -5 8 -8 12 -8 5 0 48
-25 96 -56 47 -30 93 -58 102 -62 10 -4 45 -22 79 -41 l63 -34 0 -2233 0
-2234 165 0 165 0 0 2073 0 2072 583 -587 c320 -322 954 -961 1409 -1420 680
-685 1726 -1739 2050 -2065 l72 -73 221 0 c122 0 224 2 227 5 3 4 -4029 4042
-4158 4163 -20 19 -17 25 9 18 12 -4 31 -9 42 -11 11 -2 81 -17 155 -34 74
-16 155 -32 180 -35 25 -3 56 -8 70 -11 65 -14 231 -32 350 -39 19 -1 40 -4
45 -7 13 -7 579 -3 680 5 128 10 178 14 215 20 107 16 198 29 220 31 41 5 218
44 320 71 52 13 105 27 117 29 34 8 283 95 330 116 23 11 45 19 48 19 8 0 256
117 275 130 8 5 24 14 35 19 11 5 61 33 110 63 50 30 101 61 115 69 14 7 27
17 30 20 5 6 121 87 149 104 9 6 18 12 21 15 3 3 27 24 55 45 27 22 55 45 62
50 7 6 18 15 25 20 112 91 360 332 423 410 17 21 36 44 44 52 35 36 159 198
220 288 141 207 274 458 360 678 16 40 32 81 36 92 4 11 9 25 11 30 13 45 62
186 65 189 2 2 4 -549 4 -1226 0 -791 3 -1232 10 -1236 5 -3 119 -6 252 -6
l243 -1 0 4080 0 4080 -247 -1 c-137 -1 -250 -2 -253 -3 -3 0 -5 -553 -5
-1227 0 -674 -3 -1231 -7 -1237 -5 -7 -8 -4 -8 9 0 24 -71 235 -101 301 -10
23 -19 45 -19 48 0 19 -122 268 -189 385 -50 88 -178 288 -191 300 -3 3 -17
21 -30 40 -13 19 -29 40 -35 47 -5 6 -21 26 -35 44 -113 151 -398 436 -562
564 -7 6 -27 21 -44 35 -16 14 -41 33 -55 43 -13 9 -62 46 -109 81 -47 34 -89
65 -95 67 -5 2 -42 25 -82 52 -39 26 -76 47 -81 47 -6 0 -12 4 -14 8 -1 4 -37
26 -78 48 -41 22 -84 46 -95 52 -35 20 -209 97 -320 142 -113 47 -369 125
-475 146 -14 3 -38 9 -55 14 -16 5 -46 11 -65 14 -19 3 -60 10 -90 16 -30 6
-71 13 -90 16 -19 2 -53 7 -75 11 -61 10 -65 10 -145 18 -41 3 -95 9 -120 11
-50 6 -647 14 -652 9z m592 -278 c19 -3 71 -8 115 -12 44 -4 83 -9 86 -11 3
-2 35 -6 69 -9 35 -4 66 -8 70 -10 7 -4 88 -18 113 -19 9 0 17 -4 17 -9 0 -4
4 -6 8 -3 10 6 275 -62 362 -92 30 -11 60 -20 65 -22 33 -8 318 -122 325 -130
3 -3 32 -18 65 -33 125 -59 476 -268 483 -288 2 -5 8 -9 14 -9 6 0 33 -18 62
-40 28 -22 60 -47 71 -56 68 -53 94 -74 139 -113 66 -57 280 -273 328 -331 21
-25 44 -52 51 -60 31 -33 167 -220 167 -229 0 -5 4 -11 9 -13 15 -6 211 -326
211 -345 0 -3 10 -19 22 -36 13 -18 23 -34 22 -37 -1 -8 53 -119 66 -135 7 -8
9 -15 5 -15 -4 0 -3 -6 4 -13 6 -7 29 -58 51 -113 22 -54 45 -108 50 -119 5
-11 23 -63 40 -115 18 -52 34 -102 37 -110 4 -8 7 -19 8 -25 2 -5 12 -41 23
-80 36 -120 80 -317 98 -435 2 -19 9 -57 14 -85 12 -64 30 -214 35 -285 2 -30
7 -98 11 -150 13 -176 7 -615 -10 -765 -3 -22 -8 -67 -11 -100 -3 -33 -7 -71
-9 -85 -3 -14 -7 -47 -11 -75 -7 -62 -22 -150 -25 -150 -1 0 -3 -11 -4 -25 -6
-52 -23 -145 -26 -145 -2 0 -10 -35 -14 -61 -2 -11 -5 -25 -8 -30 -4 -5 -9
-25 -12 -45 -3 -19 -26 -102 -51 -185 -25 -82 -47 -153 -49 -159 -2 -5 -7 -19
-11 -30 -4 -11 -21 -54 -37 -95 -71 -187 -241 -532 -272 -552 -6 -4 -7 -8 -3
-8 5 0 -1 -13 -12 -29 -12 -16 -21 -32 -21 -35 0 -4 -5 -12 -10 -19 -6 -7 -34
-48 -62 -92 -29 -44 -56 -81 -60 -83 -5 -2 -8 -10 -8 -18 0 -8 -4 -14 -10 -14
-5 0 -10 -7 -10 -15 0 -8 -4 -15 -8 -15 -5 0 -24 -21 -43 -47 -92 -130 -280
-334 -435 -473 -44 -40 -226 -186 -264 -213 -77 -54 -279 -186 -305 -199 -16
-9 -72 -38 -122 -66 -51 -27 -93 -48 -93 -45 0 3 -6 1 -13 -5 -47 -39 -444
-184 -637 -233 -96 -24 -93 -23 -210 -45 -47 -9 -92 -18 -101 -19 -9 -2 -40
-6 -70 -10 -30 -3 -65 -8 -79 -11 -14 -2 -54 -7 -90 -10 -36 -3 -90 -7 -120
-10 -138 -13 -578 -7 -750 11 -104 10 -166 17 -180 20 -8 2 -35 6 -60 9 -25 4
-70 11 -100 17 -30 6 -68 12 -84 14 -41 6 -206 45 -236 56 -14 5 -36 11 -50
13 -14 3 -25 5 -25 6 0 1 -7 3 -15 5 -31 6 -180 57 -180 61 0 2 967 970 2150
2151 1183 1181 2150 2150 2150 2153 0 3 -106 6 -235 5 l-236 0 -1202 -1207
c-661 -664 -1566 -1573 -2012 -2020 l-810 -813 -3 3510 c-1 1931 0 3515 2
3521 3 9 235 102 269 108 13 2 83 24 107 33 25 10 75 22 110 28 8 1 22 5 30 8
20 7 186 44 230 51 19 4 46 8 60 11 14 3 42 7 64 10 21 3 50 7 65 9 76 13 184
24 300 31 46 3 86 7 88 8 4 5 531 -1 573 -6z m-2232 -5628 c-3 -1622 -4 -1732
-20 -1716 -9 9 -20 17 -23 17 -14 0 -255 162 -255 171 0 5 -5 9 -11 9 -37 0
-412 347 -520 480 -24 30 -46 57 -49 60 -31 27 -230 312 -230 330 0 5 -4 10
-8 10 -5 0 -14 10 -20 23 -7 12 -27 49 -47 82 -57 98 -181 353 -215 445 -17
47 -36 94 -41 105 -16 35 -78 225 -73 225 3 0 0 9 -6 19 -8 16 -30 90 -45 151
-52 218 -62 265 -70 320 -2 8 -6 31 -10 50 -4 19 -9 53 -10 75 -2 22 -4 40 -5
40 -3 0 -8 30 -14 86 -4 30 -9 70 -12 89 -2 19 -7 62 -9 95 -3 33 -7 87 -10
120 -22 270 -17 737 9 990 2 22 7 71 11 108 3 37 8 76 10 85 3 19 14 89 21
137 2 17 6 41 9 55 3 14 7 39 10 55 3 17 7 41 10 55 4 14 8 39 11 55 2 17 8
46 13 65 5 19 19 76 32 125 34 142 114 390 154 480 7 17 23 53 34 81 29 76
154 328 163 332 4 2 8 8 8 14 0 23 202 347 223 356 4 2 7 10 7 17 0 7 3 15 8
17 4 2 31 35 60 73 79 103 154 187 272 305 119 119 203 193 285 252 5 4 24 18
40 31 37 29 227 156 275 183 l35 20 3 -1722 c1 -947 1 -2502 0 -3455z"/>
</g>
</svg>
