<?xml version="1.0" standalone="no"?>
<!DOCTYPE svg PUBLIC "-//W3C//DTD SVG 20010904//EN"
 "http://www.w3.org/TR/2001/REC-SVG-20010904/DTD/svg10.dtd">
<svg version="1.0" xmlns="http://www.w3.org/2000/svg"
 width="165.000000pt" height="165.000000pt" viewBox="0 0 165.000000 165.000000"
 preserveAspectRatio="xMidYMid meet">
<metadata>
Created by potrace 1.14, written by Peter Selinger 2001-2017
</metadata>
<g transform="translate(0.000000,165.000000) scale(0.100000,-0.100000)"
fill="#000000" stroke="none">
<path d="M651 1628 c-5 -13 -72 -187 -150 -388 -78 -201 -145 -374 -150 -385
-7 -15 -223 -573 -322 -833 -9 -23 -8 -23 53 -20 l61 3 28 70 c15 39 51 133
80 210 29 77 54 142 55 143 2 3 699 5 799 2 27 0 32 -6 51 -58 12 -31 48 -127
81 -212 l59 -155 62 -3 61 -3 -13 38 c-13 37 -87 228 -127 327 -10 27 -17 51
-15 53 3 4 40 -34 199 -201 59 -63 69 -69 103 -68 20 1 38 3 40 4 1 2 -80 88
-181 192 l-183 188 46 47 c229 233 322 331 313 332 -14 1 -58 1 -70 0 -11 -1
-2 8 -171 -170 -74 -79 -136 -147 -138 -152 -2 -5 -9 -9 -15 -9 -9 0 -12 77
-12 303 l0 302 -32 3 -31 3 4 -213 c3 -117 7 -219 9 -225 2 -7 1 -13 -3 -13
-7 0 -63 140 -166 411 -11 30 -59 155 -106 277 l-85 222 -63 0 c-56 0 -63 -2
-71 -22z m265 -629 c95 -250 174 -460 174 -465 0 -6 -138 -10 -370 -10 -248 0
-370 3 -370 10 0 10 357 942 368 960 3 5 9 -1 14 -15 5 -13 88 -229 184 -480z"/>
</g>
</svg>
