<?xml version="1.0" encoding="UTF-8"?><svg id="Laag_2" xmlns="http://www.w3.org/2000/svg" viewBox="0 0 468.76 324.73"><defs><style>.cls-1,.cls-2{fill:none;stroke:#000;stroke-linecap:round;stroke-miterlimit:10;stroke-width:3px;}.cls-2{stroke-dasharray:0 0 12.13 12.13;}</style></defs><g id="Laag_1-2"><g><path class="cls-1" d="M87.84,1.5c-2.01,.42-3.96,.88-5.84,1.37"/><path class="cls-2" d="M70.42,6.47c-7.13,2.58-13.04,5.45-17.71,8.02-4.6,2.53-11.49,6.37-19.03,13-1.67,1.47-14.13,12.62-22.61,29.85-19.6,39.83-3.51,82.77-.52,90.77,3.76,10.05,8.43,22.51,20.04,34.83,24.89,26.41,58.94,28.06,70.46,28.62,8.13,.4,58.9,2.87,71.34-23.78,5.44-11.65,2.69-27,2.18-29.85-1.05-5.87-2.65-14.83-9.67-22.99-10.03-11.67-24.24-13.71-29.94-14.53-3.06-.44-9.94,.04-23.69,.99-8.92,.62-17.93,1.48-28.38,4.05-4.51,1.11-8.3,2.3-12.5,4.61-1.24,.68-5.68,3.2-10.4,7.85-3.99,3.93-6.31,7.54-7.81,9.92,0,0-3.89,6.15-6.55,13.62-10.72,30.13-3.14,55.83-3.14,55.83,1.91,6.49,8.15,27.65,27.74,40.95,17.56,11.93,36.11,10.94,67.17,9.3,20.21-1.07,36.22-2.71,51.91-7.93,16.27-5.41,33.38-8.61,49.91-13.24,23.69-6.64,50.25-8.23,74.38-3.04,20.48,4.4,38.82,11.46,56.53,18.94,3.24,1.37,11.9,5.08,22.89,10.5,9.76,4.82,22.6,11.15,36.55,20.26,7.82,5.1,17.47,12.04,27.98,21.27"/><path class="cls-1" d="M462.06,318.34c1.44,1.33,2.9,2.7,4.37,4.11"/><polygon points="450.74 324.7 450.74 321.7 465.54 321.73 464.48 306.97 467.48 306.76 468.76 324.73 450.74 324.7"/></g></g></svg>