<?xml version="1.0" encoding="UTF-8"?><svg id="Laag_2" xmlns="http://www.w3.org/2000/svg" viewBox="0 0 86.93 217.94"><defs><style>.cls-1{fill:none;}</style></defs><g id="Laag_1-2"><path class="cls-1" d="M4.04,0c20.35,2.32,40.54,6.03,60.38,11.09,4.46,1.14,9.05,2.42,12.61,5.34,3.84,3.15,6.05,7.88,7.48,12.64,4.97,16.56,1.74,34.63-4.75,50.66-5.1,12.59-12.37,24.56-22.74,33.32-10.38,8.76-24.15,14.03-37.63,12.33-1.57-.2-3.17-.5-4.55-1.29-2.48-1.43-3.87-4.27-4.26-7.11-1.23-8.8,6.16-16.97,14.61-19.7s17.63-1.35,26.37,.22c5.86,1.05,11.94,2.27,16.72,5.82,9.14,6.8,10.74,19.94,9.11,31.21-2.85,19.69-13.14,37.89-27.17,51.99-14.03,14.1-31.65,24.29-50.22,31.43"/></g></svg>