<?xml version="1.0" encoding="UTF-8"?><svg id="Laag_2" xmlns="http://www.w3.org/2000/svg" viewBox="0 0 231.87 321.94"><defs><style>.cls-1{fill:#3d405b;}</style></defs><g id="Laag_1-2"><path class="cls-1" d="M.19,313.19c-.4,.73-.14,1.64,.59,2.04l11.82,6.53c.73,.4,1.64,.14,2.04-.59,.4-.73,.14-1.64-.59-2.04l-10.5-5.8,5.8-10.51c.4-.73,.14-1.64-.59-2.04-.73-.4-1.64-.14-2.04,.59L.19,313.19Zm67.81-24.77l-.59-1.38h0l.59,1.38Zm42.11-15.2l-.64-1.36,.64,1.36Zm29.54-18.18l-1.04-1.08h0l1.04,1.08Zm35.52-64.92l1.5,.08-1.5-.08Zm-19.01-53.88l-1.16,.95h0l1.16-.95Zm-41.08-18.36l.23,1.48-.23-1.48Zm-37,67.42l1.11-1-1.11,1Zm48.87,17.99l-.09,1.5,.09-1.5Zm58.79-12.7l.68,1.34-.68-1.34Zm30.79-25.5l-1.16-.95,1.16,.95Zm13.72-28.66l1.5,.09-1.5-.09Zm-16.51-57.5l1.31-.72-1.31,.72Zm-34.87-39.88l-.89,1.21h0l.89-1.21ZM108.58,4.84l-.35,1.46,.35-1.46ZM64.34,0c-.83,0-1.5,.67-1.5,1.5s.67,1.5,1.5,1.5V0ZM4.78,314.51c.79-.24,1.25-1.07,1.01-1.87-.24-.79-1.07-1.25-1.87-1.01l.86,2.88Zm4.8-4.61c-.79,.25-1.23,1.09-.98,1.88,.25,.79,1.09,1.23,1.88,.98l-.91-2.86Zm6.58,1.01c.79-.26,1.21-1.11,.94-1.9-.26-.79-1.11-1.21-1.9-.94l.96,2.84Zm4.64-4.78c-.78,.28-1.19,1.13-.91,1.92,.28,.78,1.13,1.19,1.92,.91l-1-2.83Zm6.61,.79c.78-.29,1.17-1.15,.88-1.93-.29-.78-1.15-1.17-1.93-.88l1.05,2.81Zm4.48-4.92c-.77,.3-1.15,1.17-.85,1.94s1.17,1.15,1.94,.85l-1.09-2.8Zm6.63,.6c.77-.31,1.14-1.18,.83-1.95-.31-.77-1.18-1.14-1.95-.83l1.12,2.78Zm4.36-5.03c-.76,.32-1.13,1.2-.81,1.96,.32,.76,1.2,1.13,1.96,.81l-1.15-2.77Zm6.64,.46c.76-.32,1.12-1.2,.79-1.97-.32-.76-1.2-1.12-1.97-.79l1.17,2.76Zm4.28-5.1c-.76,.33-1.11,1.21-.78,1.97,.33,.76,1.21,1.11,1.97,.78l-1.19-2.76Zm6.64,.39c.76-.33,1.11-1.21,.78-1.97-.33-.76-1.21-1.11-1.97-.78l1.19,2.75Zm4.26-5.12c-.76,.33-1.11,1.21-.78,1.97,.33,.76,1.21,1.11,1.97,.78l-1.19-2.75Zm6.47,.52c.77-.31,1.14-1.18,.83-1.95-.31-.77-1.18-1.14-1.95-.83l1.12,2.78Zm4.17-4.79c-.78,.28-1.19,1.14-.91,1.92,.28,.78,1.14,1.19,1.92,.91l-1.01-2.82Zm6.27,1.02c.79-.26,1.21-1.11,.95-1.89-.26-.79-1.11-1.21-1.89-.95l.94,2.85Zm4.4-4.57c-.79,.25-1.23,1.1-.97,1.89,.25,.79,1.09,1.23,1.88,.97l-.91-2.86Zm6.25,1.16c.79-.25,1.22-1.1,.97-1.89-.25-.79-1.1-1.22-1.89-.97l.92,2.86Zm4.37-4.61c-.78,.27-1.2,1.12-.93,1.91,.27,.78,1.12,1.2,1.91,.93l-.97-2.84Zm6.29,.93c.77-.29,1.16-1.16,.87-1.93-.29-.77-1.16-1.16-1.93-.87l1.07,2.81Zm4.06-4.88c-.76,.33-1.11,1.21-.78,1.97,.33,.76,1.21,1.11,1.97,.78l-1.19-2.75Zm6.42,.35c.75-.35,1.07-1.25,.72-2-.35-.75-1.25-1.07-2-.72l1.28,2.71Zm3.92-5.23c-.74,.37-1.04,1.27-.68,2.01,.37,.74,1.27,1.04,2.01,.67l-1.34-2.69Zm6.54-.02c.73-.4,.99-1.31,.6-2.04-.4-.73-1.31-.99-2.04-.6l1.44,2.63Zm3.51-5.51c-.7,.44-.92,1.36-.48,2.07,.44,.7,1.36,.92,2.07,.48l-1.58-2.55Zm6.5-.75c.67-.49,.82-1.42,.33-2.1-.49-.67-1.43-.82-2.1-.33l1.76,2.43Zm2.67-5.96c-.62,.55-.68,1.49-.14,2.12,.55,.62,1.49,.69,2.12,.14l-1.98-2.26Zm6.43-1.99c.58-.59,.59-1.54,0-2.12s-1.54-.59-2.12,0l2.12,2.12Zm2.24-6.62c-.57,.61-.54,1.55,.07,2.12,.6,.57,1.55,.54,2.12-.07l-2.19-2.05Zm6.46-2.68c.54-.63,.48-1.57-.15-2.12-.62-.54-1.57-.48-2.12,.15l2.26,1.97Zm1.74-6.77c-.52,.65-.41,1.59,.24,2.11,.65,.52,1.59,.41,2.11-.24l-2.35-1.87Zm6.21-3.22c.48-.67,.33-1.61-.34-2.09-.67-.48-1.61-.33-2.09,.34l2.43,1.75Zm1.07-6.91c-.45,.7-.24,1.63,.46,2.07s1.62,.24,2.07-.46l-2.53-1.62Zm5.82-3.88c.4-.72,.14-1.64-.58-2.04-.72-.4-1.64-.14-2.04,.58l2.62,1.46Zm.21-6.99c-.35,.75-.03,1.64,.72,1.99,.75,.35,1.64,.03,2-.72l-2.72-1.27Zm5.23-4.64c.29-.77-.1-1.64-.87-1.93-.77-.29-1.64,.1-1.93,.87l2.81,1.06Zm-.85-6.93c-.23,.8,.23,1.63,1.03,1.86,.8,.23,1.63-.23,1.86-1.03l-2.88-.83Zm4.4-5.44c.16-.81-.37-1.6-1.19-1.76-.81-.16-1.6,.37-1.76,1.18l2.94,.57Zm-2.04-6.68c-.08,.82,.52,1.56,1.34,1.64,.82,.08,1.56-.52,1.64-1.34l-2.99-.3Zm3.33-5.91c0-.83-.66-1.5-1.49-1.51-.83,0-1.5,.66-1.51,1.49l3,.02Zm-3.23-5.71c.07,.82,.8,1.44,1.62,1.37s1.44-.8,1.37-1.62l-2.99,.26Zm2.23-6.17c-.14-.82-.91-1.37-1.73-1.23-.82,.14-1.37,.91-1.23,1.73l2.96-.5Zm-4.13-5.1c.2,.8,1.01,1.29,1.82,1.09,.8-.2,1.29-1.01,1.09-1.82l-2.91,.73Zm1.26-6.44c-.26-.79-1.1-1.22-1.89-.96-.79,.26-1.22,1.11-.96,1.89l2.85-.93Zm-4.82-4.46c.31,.77,1.18,1.14,1.95,.83,.77-.31,1.14-1.18,.83-1.95l-2.78,1.12Zm.38-6.55c-.36-.75-1.26-1.06-2-.7s-1.06,1.26-.7,2l2.7-1.3Zm-5.36-3.78c.41,.72,1.32,.97,2.04,.57,.72-.41,.97-1.32,.57-2.04l-2.61,1.48Zm-.48-6.54c-.46-.69-1.39-.88-2.08-.43-.69,.46-.88,1.39-.43,2.08l2.51-1.65Zm-5.82-3.03c.5,.66,1.44,.78,2.1,.28,.66-.5,.79-1.44,.28-2.1l-2.38,1.82Zm-1.43-6.43c-.55-.62-1.5-.67-2.12-.11-.62,.55-.67,1.5-.12,2.12l2.23-2Zm-6.27-2.11c.61,.56,1.56,.53,2.12-.08,.56-.61,.53-1.56-.08-2.12l-2.04,2.2Zm-2.61-6.08c-.66-.5-1.6-.36-2.1,.31-.49,.66-.36,1.6,.31,2.1l1.79-2.4Zm-6.57-.74c.72,.41,1.63,.16,2.05-.56,.41-.72,.16-1.64-.56-2.05l-1.49,2.6Zm-4-5.27c-.77-.31-1.64,.06-1.95,.83-.31,.77,.06,1.64,.83,1.95l1.12-2.78Zm-6.52,1.07c.81,.19,1.61-.31,1.8-1.12,.19-.81-.31-1.61-1.12-1.8l-.69,2.92Zm-5.37-3.85c-.83-.06-1.55,.56-1.61,1.38-.06,.83,.56,1.55,1.38,1.61l.22-2.99Zm-5.89,3.01c.83-.07,1.44-.79,1.38-1.62-.07-.82-.79-1.44-1.61-1.38l.24,2.99Zm-6.37-2.1c-.81,.16-1.35,.94-1.19,1.76,.16,.81,.94,1.35,1.76,1.19l-.57-2.95Zm-5.31,4.32c.8-.22,1.27-1.05,1.05-1.84-.22-.8-1.05-1.27-1.84-1.05l.8,2.89Zm-6.78-.97c-.78,.29-1.17,1.15-.89,1.93,.29,.78,1.15,1.17,1.93,.89l-1.04-2.81Zm-4.49,5.16c.75-.36,1.06-1.26,.7-2-.36-.75-1.26-1.06-2-.7l1.31,2.7Zm-6.84,.35c-.7,.44-.91,1.37-.47,2.07,.44,.7,1.37,.91,2.07,.47l-1.6-2.54Zm-3.23,6.03c.64-.53,.73-1.47,.2-2.11-.53-.64-1.47-.73-2.11-.2l1.92,2.31Zm-6.51,2.12c-.55,.62-.49,1.57,.13,2.12,.62,.55,1.57,.49,2.12-.13l-2.24-1.99Zm-1.28,6.71c.44-.71,.22-1.63-.49-2.07-.7-.44-1.63-.22-2.06,.49l2.55,1.58Zm-5.35,3.89c-.33,.76,.03,1.64,.79,1.97,.76,.33,1.64-.03,1.97-.79l-2.76-1.18Zm.89,6.37c.23-.79-.22-1.63-1.02-1.86-.8-.23-1.63,.22-1.86,1.02l2.88,.84Zm-4.18,4.9c-.13,.82,.43,1.59,1.25,1.72,.82,.13,1.59-.43,1.72-1.25l-2.96-.47Zm2.47,5.94c.02-.83-.64-1.51-1.47-1.53-.83-.02-1.51,.64-1.53,1.47l3,.06Zm-2.69,5.85c.11,.82,.86,1.4,1.68,1.29,.82-.11,1.4-.86,1.29-1.68l-2.97,.39Zm4.11,4.94c-.24-.79-1.08-1.24-1.87-1-.79,.24-1.24,1.08-1,1.87l2.87-.87Zm-.66,6.4c.37,.74,1.28,1.04,2.02,.66,.74-.37,1.04-1.28,.66-2.02l-2.68,1.35Zm5.55,3.25c-.5-.66-1.44-.79-2.1-.29-.66,.5-.79,1.44-.3,2.1l2.4-1.81Zm1.93,6.58c.61,.57,1.55,.53,2.12-.07,.57-.61,.53-1.55-.07-2.12l-2.05,2.19Zm7.09,1.8c-.69-.46-1.62-.28-2.08,.41-.46,.69-.28,1.62,.41,2.08l1.68-2.49Zm4.27,5.93c.74,.37,1.64,.06,2.01-.68,.37-.74,.06-1.64-.68-2.01l-1.33,2.69Zm7.31-.14c-.78-.28-1.64,.12-1.92,.89s.11,1.64,.89,1.92l1.03-2.82Zm5.46,4.86c.8,.22,1.62-.26,1.84-1.06,.21-.8-.26-1.62-1.06-1.84l-.78,2.9Zm7.17-1.43c-.81-.16-1.6,.37-1.76,1.19-.16,.81,.38,1.6,1.19,1.76l.57-2.94Zm6.1,4.03c.82,.11,1.58-.47,1.69-1.29s-.47-1.58-1.29-1.68l-.4,2.97Zm6.96-2.27c-.83-.07-1.55,.54-1.62,1.37-.07,.82,.54,1.55,1.37,1.62l.25-2.99Zm6.19,3.39c.83,.03,1.52-.62,1.55-1.45,.03-.83-.62-1.52-1.45-1.55l-.11,3Zm6.11-2.95c-.83,.02-1.49,.7-1.47,1.53,.02,.83,.7,1.49,1.53,1.47l-.06-3Zm6.23,2.7c.83-.06,1.44-.78,1.38-1.61-.06-.83-.78-1.44-1.61-1.38l.23,2.99Zm5.74-3.62c-.82,.11-1.4,.87-1.29,1.69,.11,.82,.87,1.4,1.69,1.29l-.4-2.97Zm6.49,1.98c.81-.16,1.35-.94,1.19-1.76-.16-.81-.94-1.35-1.76-1.19l.56,2.95Zm5.3-4.24c-.8,.2-1.29,1.01-1.09,1.82,.2,.8,1.01,1.29,1.82,1.09l-.73-2.91Zm6.67,1.26c.79-.24,1.24-1.08,.99-1.88-.24-.79-1.08-1.24-1.88-.99l.88,2.87Zm4.81-4.79c-.78,.28-1.18,1.15-.89,1.92,.29,.78,1.15,1.18,1.93,.89l-1.03-2.82Zm6.76,.55c.76-.32,1.12-1.2,.79-1.97-.32-.76-1.21-1.12-1.97-.79l1.17,2.76Zm4.31-5.25c-.75,.36-1.06,1.26-.7,2s1.26,1.06,2,.7l-1.3-2.7Zm7.07-.27c.72-.4,.98-1.32,.58-2.04-.4-.72-1.32-.98-2.04-.58l1.46,2.62Zm4.18-6.04c-.69,.46-.88,1.39-.43,2.08,.46,.69,1.39,.88,2.08,.43l-1.65-2.5Zm7.2-1.48c.65-.51,.77-1.45,.26-2.1-.51-.65-1.45-.77-2.11-.26l1.84,2.37Zm3.21-6.61c-.61,.56-.66,1.5-.1,2.12,.56,.61,1.51,.66,2.12,.1l-2.01-2.22Zm6.9-2.52c.57-.6,.56-1.55-.04-2.12-.6-.57-1.55-.56-2.12,.04l2.16,2.08Zm2.3-6.99c-.54,.63-.47,1.57,.16,2.12,.63,.54,1.57,.47,2.12-.16l-2.27-1.96Zm6.17-2.75c.52-.65,.41-1.59-.24-2.11-.65-.52-1.59-.41-2.11,.24l2.34,1.87Zm.88-6.1c-.48,.67-.33,1.61,.34,2.09,.67,.48,1.61,.33,2.09-.34l-2.43-1.75Zm5.48-2.85c.43-.71,.2-1.63-.51-2.06-.71-.43-1.63-.2-2.06,.51l2.57,1.54Zm-.13-6.16c-.34,.76,0,1.64,.75,1.99,.76,.34,1.64,0,1.99-.75l-2.73-1.24Zm4.68-4.01c.23-.8-.22-1.63-1.02-1.86s-1.63,.22-1.86,1.02l2.88,.84Zm-1.81-5.89c-.11,.82,.46,1.58,1.29,1.69,.82,.11,1.58-.46,1.69-1.29l-2.97-.4Zm3.37-5.49c.01-.83-.65-1.51-1.48-1.52-.83-.01-1.51,.65-1.52,1.48l3,.05Zm-3.16-5.98c.06,.83,.77,1.45,1.6,1.39,.83-.06,1.45-.77,1.39-1.6l-2.99,.21Zm2.32-6.35c-.12-.82-.88-1.38-1.71-1.26-.82,.12-1.38,.89-1.26,1.71l2.97-.44Zm-4.06-5.41c.18,.81,.98,1.32,1.79,1.14,.81-.18,1.32-.98,1.14-1.79l-2.93,.65Zm1.4-6.61c-.23-.8-1.06-1.25-1.86-1.03-.8,.23-1.25,1.06-1.03,1.86l2.88-.83Zm-4.7-4.86c.27,.78,1.13,1.19,1.91,.92,.78-.27,1.19-1.13,.92-1.91l-2.83,.99Zm.67-6.73c-.31-.77-1.18-1.14-1.95-.83-.77,.31-1.14,1.18-.83,1.95l2.78-1.12Zm-5.14-4.39c.34,.75,1.23,1.09,1.98,.75,.76-.34,1.09-1.23,.75-1.98l-2.73,1.24Zm.11-6.76c-.37-.74-1.27-1.05-2.01-.68-.74,.37-1.04,1.27-.68,2.01l2.69-1.33Zm-5.44-4.02c.39,.73,1.3,1.01,2.03,.62,.73-.39,1.01-1.3,.62-2.03l-2.65,1.41Zm-.47-7.03c-.42-.72-1.34-.96-2.05-.54-.71,.42-.96,1.34-.54,2.05l2.59-1.51Zm-6.07-4.09c.46,.69,1.39,.88,2.08,.43,.69-.45,.89-1.38,.43-2.08l-2.51,1.65Zm-1.35-7.19c-.49-.67-1.43-.81-2.1-.32s-.81,1.43-.32,2.1l2.42-1.78Zm-6.47-3.42c.53,.64,1.47,.73,2.11,.2,.64-.53,.73-1.47,.2-2.11l-2.31,1.91Zm-2.13-7c-.56-.61-1.51-.65-2.12-.08-.61,.56-.65,1.51-.09,2.12l2.21-2.03Zm-6.81-2.68c.59,.58,1.54,.56,2.12-.03,.58-.59,.56-1.54-.03-2.12l-2.09,2.15Zm-2.89-6.72c-.62-.54-1.57-.48-2.12,.15-.54,.63-.48,1.57,.15,2.12l1.97-2.27Zm-7.06-1.92c.65,.51,1.6,.39,2.1-.26,.51-.65,.39-1.6-.26-2.1l-1.84,2.37Zm-3.14-6.07c-.67-.48-1.61-.33-2.09,.35-.48,.67-.33,1.61,.35,2.09l1.75-2.44Zm-6.32-.76c.68,.47,1.62,.29,2.08-.4,.47-.68,.29-1.62-.39-2.08l-1.69,2.48Zm-3.02-5.61c-.7-.45-1.62-.25-2.07,.44s-.25,1.62,.44,2.07l1.63-2.52Zm-6.35-.46c.71,.43,1.63,.21,2.06-.49,.43-.71,.21-1.63-.49-2.06l-1.57,2.56Zm-3.29-5.46c-.72-.42-1.63-.17-2.05,.54-.42,.72-.17,1.63,.54,2.05l1.51-2.59Zm-6.37-.15c.73,.4,1.64,.13,2.04-.6,.4-.73,.13-1.64-.6-2.04l-1.44,2.63Zm-3.56-5.28c-.74-.38-1.64-.09-2.02,.65-.38,.74-.09,1.64,.65,2.02l1.37-2.67Zm-6.37,.18c.75,.36,1.64,.04,2-.7,.36-.75,.04-1.64-.7-2l-1.3,2.7Zm-3.84-5.08c-.76-.34-1.64,0-1.98,.76-.34,.76,0,1.64,.76,1.98l1.22-2.74Zm-6.35,.54c.77,.32,1.64-.05,1.96-.82,.32-.77-.05-1.64-.82-1.96l-1.14,2.77Zm-4.13-4.85c-.78-.29-1.64,.1-1.93,.88-.29,.78,.1,1.64,.88,1.93l1.06-2.81Zm-6.3,.93c.78,.27,1.64-.15,1.9-.94,.27-.78-.15-1.64-.94-1.9l-.97,2.84Zm-4.43-4.57c-.79-.24-1.63,.21-1.87,1-.24,.79,.21,1.63,1,1.87l.87-2.87Zm-6.22,1.36c.8,.21,1.62-.27,1.83-1.07,.21-.8-.27-1.62-1.07-1.83l-.76,2.9Zm-4.74-4.22c-.81-.17-1.61,.35-1.78,1.16-.17,.81,.35,1.61,1.16,1.78l.62-2.94Zm-6,1.97c.82,.12,1.58-.44,1.71-1.26,.12-.82-.44-1.58-1.26-1.71l-.45,2.97Zm-5.13-3.68c-.82-.09-1.56,.51-1.65,1.33-.09,.82,.51,1.56,1.33,1.65l.32-2.98Zm-5.8,2.51c.83,.06,1.54-.57,1.6-1.39,.06-.83-.57-1.54-1.39-1.6l-.21,2.99Zm-5.39-3.3c-.83-.03-1.53,.61-1.56,1.44-.03,.83,.61,1.53,1.44,1.56l.12-3Zm-5.65,2.83c.83,.02,1.51-.64,1.53-1.47,.02-.83-.64-1.51-1.47-1.53l-.06,3ZM72.69,.02c-.83,0-1.5,.66-1.51,1.49,0,.83,.66,1.5,1.49,1.51l.02-3Zm-5.57,2.98c.83,0,1.5-.67,1.5-1.5,0-.83-.67-1.5-1.5-1.5V3ZM1.92,315.35c.96-.28,1.92-.56,2.86-.84l-.86-2.88c-.94,.28-1.88,.56-2.84,.83l.83,2.88Zm8.57-2.6c1.92-.61,3.81-1.23,5.67-1.85l-.96-2.84c-1.84,.62-3.72,1.23-5.62,1.84l.91,2.86Zm11.31-3.8c1.89-.67,3.76-1.35,5.6-2.04l-1.05-2.81c-1.83,.68-3.68,1.36-5.56,2.02l1,2.83Zm11.17-4.16c1.87-.73,3.71-1.46,5.54-2.2l-1.12-2.78c-1.82,.73-3.65,1.46-5.5,2.18l1.09,2.8Zm11.05-4.46c1.84-.77,3.67-1.54,5.49-2.31l-1.17-2.76c-1.81,.77-3.63,1.54-5.46,2.3l1.15,2.77Zm10.95-4.65c1.82-.79,3.64-1.57,5.45-2.36l-1.19-2.75c-1.81,.79-3.63,1.57-5.45,2.36l1.19,2.76Zm10.9-4.72c.91-.39,1.82-.79,2.72-1.18l-1.19-2.76c-.91,.39-1.82,.79-2.73,1.18l1.19,2.75Zm2.72-1.18c.85-.37,1.7-.72,2.55-1.06l-1.12-2.78c-.87,.35-1.75,.71-2.62,1.09l1.19,2.76Zm7.73-3.02c1.74-.62,3.5-1.22,5.26-1.8l-.94-2.85c-1.78,.59-3.56,1.19-5.33,1.83l1.01,2.82Zm10.58-3.52c1.78-.57,3.56-1.13,5.34-1.7l-.92-2.86c-1.77,.57-3.55,1.13-5.33,1.7l.91,2.86Zm10.68-3.47c1.78-.61,3.55-1.24,5.32-1.91l-1.07-2.81c-1.73,.66-3.47,1.28-5.22,1.88l.97,2.84Zm10.57-4.04c.87-.38,1.73-.76,2.59-1.17l-1.27-2.72c-.83,.39-1.67,.77-2.51,1.13l1.19,2.75Zm2.59-1.17c.88-.41,1.75-.82,2.63-1.24l-1.28-2.71c-.87,.41-1.75,.82-2.62,1.23l1.27,2.72Zm7.89-3.78c1.75-.87,3.49-1.77,5.21-2.7l-1.44-2.63c-1.68,.92-3.38,1.79-5.1,2.65l1.34,2.69Zm10.3-5.66c1.67-1.04,3.32-2.13,4.91-3.3l-1.76-2.43c-1.53,1.12-3.11,2.17-4.73,3.17l1.58,2.55Zm9.56-7c.74-.65,1.48-1.33,2.19-2.02l-2.09-2.15c-.68,.66-1.37,1.3-2.08,1.92l1.98,2.26Zm2.19-2.02c.76-.74,1.51-1.48,2.26-2.23l-2.12-2.12c-.74,.74-1.49,1.47-2.23,2.2l2.09,2.15Zm6.69-6.8c1.45-1.55,2.88-3.12,4.27-4.73l-2.26-1.97c-1.37,1.57-2.77,3.12-4.2,4.64l2.19,2.05Zm8.35-9.63c1.33-1.67,2.62-3.36,3.86-5.09l-2.43-1.75c-1.21,1.68-2.47,3.34-3.77,4.97l2.35,1.87Zm7.46-10.38c1.15-1.8,2.25-3.63,3.29-5.5l-2.62-1.46c-1,1.81-2.07,3.59-3.19,5.34l2.53,1.62Zm6.21-11.21c.91-1.94,1.75-3.91,2.51-5.92l-2.81-1.06c-.73,1.93-1.54,3.83-2.42,5.71l2.72,1.27Zm4.55-12.02c.59-2.06,1.1-4.15,1.51-6.27l-2.94-.57c-.4,2.03-.88,4.04-1.45,6.01l2.88,.83Zm2.46-12.65c.11-1.07,.19-2.14,.25-3.22l-3-.17c-.06,1.03-.14,2.06-.24,3.08l2.99,.3Zm.25-3.22c.05-.99,.08-1.99,.09-2.99l-3-.02c0,.95-.03,1.9-.09,2.84l3,.17Zm-.15-8.96c-.17-1.97-.42-3.94-.76-5.91l-2.96,.5c.32,1.89,.57,3.78,.73,5.67l2.99-.26Zm-1.98-11.74c-.48-1.92-1.03-3.82-1.65-5.71l-2.85,.93c.6,1.82,1.13,3.66,1.59,5.51l2.91-.73Zm-3.68-11.29c-.74-1.84-1.54-3.65-2.4-5.43l-2.7,1.3c.83,1.72,1.6,3.47,2.32,5.25l2.78-1.12Zm-5.15-10.69c-.98-1.73-2.01-3.43-3.1-5.07l-2.51,1.65c1.04,1.58,2.04,3.22,2.99,4.9l2.61-1.48Zm-6.53-9.92c-.6-.79-1.22-1.57-1.85-2.33l-2.32,1.91c.6,.73,1.2,1.48,1.78,2.24l2.38-1.82Zm-1.85-2.33c-.64-.78-1.29-1.54-1.96-2.29l-2.23,2c.64,.71,1.27,1.44,1.88,2.19l2.32-1.91Zm-6.19-6.59c-1.49-1.38-3.04-2.68-4.65-3.88l-1.79,2.4c1.52,1.13,2.99,2.36,4.41,3.68l2.04-2.2Zm-9.73-7.22c-1.77-1.01-3.6-1.91-5.49-2.66l-1.12,2.78c1.75,.7,3.46,1.54,5.12,2.49l1.49-2.6Zm-11.32-4.52c-1.97-.46-3.99-.78-6.06-.93l-.22,2.99c1.91,.14,3.77,.44,5.59,.86l.69-2.92Zm-12.18-.92c-1,.08-2.02,.2-3.04,.36l.46,2.96c.95-.15,1.89-.26,2.82-.33l-.24-2.99Zm-3.04,.36c-1.02,.16-2.05,.33-3.09,.53l.57,2.95c1-.19,1.99-.37,2.98-.52l-.46-2.96Zm-9.19,1.96c-2.01,.55-4.01,1.19-5.98,1.92l1.04,2.81c1.89-.7,3.81-1.31,5.74-1.84l-.8-2.89Zm-11.78,4.38c-1.9,.92-3.75,1.94-5.53,3.06l1.6,2.54c1.68-1.06,3.43-2.02,5.24-2.89l-1.31-2.7Zm-10.68,6.77c-1.64,1.36-3.18,2.83-4.59,4.43l2.24,1.99c1.31-1.47,2.73-2.84,4.26-4.11l-1.92-2.31Zm-8.42,9.56c-.56,.9-1.08,1.84-1.57,2.81l2.68,1.34c.44-.88,.92-1.74,1.43-2.57l-2.55-1.58Zm-1.57,2.81c-.44,.88-.85,1.77-1.24,2.66l2.76,1.18c.36-.85,.75-1.68,1.16-2.51l-2.68-1.34Zm-3.23,8.19c-.55,1.89-.99,3.81-1.3,5.74l2.96,.47c.29-1.8,.69-3.6,1.21-5.37l-2.88-.84Zm-1.83,11.62c-.04,1.98,.06,3.96,.31,5.91l2.97-.39c-.23-1.8-.33-3.63-.29-5.46l-3-.06Zm1.55,11.72c.57,1.89,1.3,3.74,2.21,5.53l2.68-1.35c-.82-1.63-1.49-3.32-2.01-5.04l-2.87,.87Zm5.36,10.59c.59,.79,1.22,1.55,1.9,2.3l2.23-2.01c-.61-.68-1.19-1.38-1.73-2.1l-2.4,1.81Zm1.9,2.3c.78,.86,1.59,1.69,2.43,2.47l2.05-2.19c-.78-.73-1.53-1.49-2.25-2.29l-2.23,2.01Zm7.84,6.76c1.89,1.28,3.88,2.42,5.94,3.44l1.33-2.69c-1.95-.97-3.83-2.04-5.6-3.24l-1.68,2.49Zm12.23,6.12c2.12,.78,4.29,1.46,6.49,2.04l.78-2.9c-2.12-.57-4.2-1.22-6.23-1.96l-1.03,2.82Zm13.09,3.56c2.23,.43,4.46,.79,6.67,1.08l.4-2.97c-2.16-.29-4.33-.63-6.5-1.05l-.57,2.94Zm13.38,1.8c1.13,.1,2.25,.18,3.36,.25l.19-2.99c-1.08-.07-2.18-.15-3.29-.24l-.25,2.99Zm3.36,.25c1.03,.06,2.06,.12,3.08,.15l.11-3c-1-.03-2-.08-3-.15l-.19,2.99Zm9.25,.2c2.07-.04,4.12-.14,6.17-.3l-.23-2.99c-1.99,.15-3.99,.25-6,.29l.06,3Zm12.31-.94c2.04-.27,4.07-.6,6.09-.99l-.56-2.95c-1.96,.38-3.94,.7-5.93,.96l.4,2.97Zm12.12-2.32c1.99-.5,3.98-1.05,5.94-1.65l-.88-2.87c-1.92,.59-3.85,1.13-5.79,1.61l.73,2.91Zm11.79-3.62c1.92-.7,3.83-1.46,5.73-2.26l-1.17-2.76c-1.85,.79-3.72,1.52-5.59,2.21l1.03,2.82Zm11.34-4.81c.92-.45,1.84-.9,2.76-1.37l-1.37-2.67c-.9,.46-1.79,.9-2.7,1.34l1.3,2.7Zm2.76-1.37c1.02-.52,2.03-1.06,3.01-1.61l-1.46-2.62c-.95,.53-1.92,1.05-2.92,1.56l1.37,2.67Zm8.84-5.14c1.92-1.27,3.77-2.59,5.55-3.98l-1.84-2.37c-1.72,1.34-3.5,2.62-5.36,3.84l1.65,2.5Zm10.77-8.37c1.67-1.51,3.29-3.1,4.89-4.75l-2.16-2.08c-1.55,1.61-3.12,3.14-4.74,4.61l2.01,2.22Zm9.46-9.77c.73-.85,1.46-1.71,2.18-2.6l-2.32-1.9c-.71,.87-1.42,1.71-2.14,2.54l2.27,1.96Zm2.18-2.6c.58-.71,1.15-1.41,1.71-2.11l-2.34-1.87c-.55,.69-1.11,1.38-1.69,2.08l2.32,1.9Zm5.03-6.46c1.09-1.51,2.11-3.04,3.05-4.6l-2.57-1.54c-.89,1.48-1.86,2.94-2.91,4.39l2.43,1.75Zm5.64-9.52c.76-1.69,1.42-3.43,1.95-5.25l-2.88-.84c-.49,1.67-1.1,3.28-1.81,4.85l2.73,1.24Zm3.12-10.74c.12-.91,.21-1.84,.27-2.79l-2.99-.19c-.05,.88-.14,1.74-.25,2.58l2.97,.4Zm.27-2.79c.06-1.03,.11-2.07,.12-3.1l-3-.05c-.02,.99-.06,1.97-.12,2.96l2.99,.19Zm-.04-9.29c-.14-2.06-.37-4.1-.68-6.14l-2.97,.44c.29,1.96,.51,3.93,.65,5.91l2.99-.21Zm-1.8-12.2c-.45-2-.96-3.99-1.53-5.96l-2.88,.83c.55,1.92,1.05,3.85,1.48,5.78l2.93-.65Zm-3.4-11.82c-.67-1.93-1.4-3.84-2.16-5.74l-2.78,1.12c.75,1.85,1.46,3.72,2.11,5.61l2.83-.99Zm-4.57-11.37c-.84-1.86-1.72-3.7-2.62-5.53l-2.69,1.33c.89,1.79,1.75,3.6,2.58,5.43l2.73-1.24Zm-5.42-10.96c-.48-.9-.96-1.79-1.45-2.68l-2.63,1.45c.48,.88,.96,1.76,1.43,2.65l2.65-1.41Zm-1.45-2.68c-.54-.99-1.1-1.97-1.66-2.94l-2.59,1.51c.55,.95,1.1,1.9,1.63,2.87l2.63-1.45Zm-5.22-8.68c-1.24-1.89-2.53-3.73-3.86-5.54l-2.42,1.78c1.3,1.76,2.56,3.57,3.77,5.41l2.51-1.65Zm-8.02-10.87c-1.43-1.74-2.91-3.43-4.44-5.09l-2.21,2.03c1.49,1.61,2.94,3.27,4.34,4.96l2.31-1.91Zm-9.16-9.93c-1.61-1.56-3.27-3.09-4.98-4.57l-1.97,2.27c1.66,1.44,3.28,2.93,4.86,4.46l2.09-2.15Zm-10.2-8.85c-.89-.69-1.79-1.37-2.7-2.04l-1.78,2.42c.89,.65,1.76,1.31,2.63,1.99l1.84-2.37Zm-2.7-2.04c-.76-.56-1.52-1.11-2.29-1.66l-1.75,2.44c.76,.54,1.51,1.09,2.26,1.64l1.78-2.42Zm-6.92-4.9c-1.55-1.06-3.12-2.1-4.71-3.13l-1.63,2.52c1.57,1.01,3.12,2.05,4.65,3.09l1.69-2.48Zm-9.5-6.14c-1.6-.98-3.22-1.95-4.86-2.9l-1.51,2.59c1.61,.94,3.21,1.89,4.79,2.86l1.57-2.56Zm-9.79-5.68c-1.65-.9-3.32-1.79-5-2.65l-1.37,2.67c1.66,.85,3.3,1.72,4.93,2.61l1.44-2.63Zm-10.07-5.17c-1.7-.82-3.41-1.61-5.14-2.38l-1.22,2.74c1.7,.76,3.38,1.54,5.06,2.35l1.3-2.7Zm-10.34-4.61c-1.75-.72-3.51-1.41-5.27-2.08l-1.06,2.81c1.73,.65,3.46,1.34,5.18,2.04l1.14-2.77Zm-10.61-3.99c-1.79-.61-3.6-1.19-5.4-1.73l-.87,2.87c1.77,.54,3.54,1.1,5.3,1.7l.97-2.84Zm-10.86-3.28c-.92-.24-1.83-.47-2.75-.7l-.71,2.92c.9,.22,1.8,.45,2.69,.68l.76-2.9Zm-2.75-.7c-.91-.22-1.83-.43-2.76-.62l-.62,2.94c.9,.19,1.78,.39,2.67,.6l.71-2.92Zm-8.31-1.62c-1.85-.28-3.71-.52-5.58-.72l-.32,2.98c1.83,.19,3.65,.42,5.45,.7l.45-2.97Zm-11.17-1.2c-1.86-.13-3.73-.23-5.59-.3l-.12,3c1.84,.08,3.68,.17,5.51,.3l.21-2.99Zm-11.18-.47c-1.87-.04-3.73-.06-5.58-.07l-.02,3c1.84,.01,3.69,.03,5.54,.07l.06-3ZM67.12,0c-.93,0-1.86,0-2.78,0V3c.92,0,1.85,0,2.78,0V0Z"/></g></svg>