<svg width="233" height="323" viewBox="0 0 233 323" fill="none" xmlns="http://www.w3.org/2000/svg">
<path d="M0.686919 313.688C0.286439 314.413 0.549672 315.325 1.27487 315.726L13.0926 322.252C13.8178 322.652 14.7303 322.389 15.1308 321.664C15.5313 320.939 15.2681 320.026 14.5429 319.626L4.03821 313.825L9.83929 303.32C10.2398 302.595 9.97653 301.682 9.25134 301.282C8.52615 300.881 7.61361 301.145 7.21313 301.87L0.686919 313.688ZM68.5 288.913L67.9065 287.535L67.9065 287.535L68.5 288.913ZM110.609 273.715L109.974 272.356L110.609 273.715ZM140.145 255.539L139.1 254.463L139.1 254.463L140.145 255.539ZM175.663 190.624L177.16 190.707L175.663 190.624ZM156.652 136.745L155.494 137.699L155.494 137.699L156.652 136.745ZM115.57 118.383L115.798 119.866L115.57 118.383ZM78.5687 185.802L79.6836 184.798L78.5687 185.802ZM127.44 203.792L127.346 205.29L127.44 203.792ZM186.234 191.088L186.918 192.423L186.234 191.088ZM217.023 165.585L215.864 164.633L217.023 165.585ZM230.747 136.93L232.245 137.024L230.747 136.93ZM214.241 79.4343L215.555 78.7114L214.241 79.4343ZM179.372 39.5581L178.484 40.7669L178.484 40.7669L179.372 39.5581ZM109.079 5.33868L108.725 6.79631L109.079 5.33868ZM64.8438 0.500209C64.0154 0.500209 63.3438 1.17178 63.3438 2.00021C63.3438 2.82864 64.0154 3.50021 64.8438 3.50021V0.500209ZM5.28051 315.014C6.07442 314.777 6.52619 313.942 6.28956 313.148C6.05293 312.354 5.21751 311.902 4.4236 312.139L5.28051 315.014ZM10.0767 310.4C9.28709 310.65 8.85007 311.493 9.10062 312.283C9.35117 313.073 10.1944 313.51 10.984 313.259L10.0767 310.4ZM16.6521 311.406C17.4373 311.142 17.8597 310.292 17.5956 309.506C17.3315 308.721 16.4809 308.299 15.6957 308.563L16.6521 311.406ZM21.2877 306.63C20.507 306.907 20.0988 307.764 20.3759 308.545C20.6531 309.326 21.5106 309.734 22.2913 309.457L21.2877 306.63ZM27.8941 307.418C28.6704 307.128 29.0651 306.265 28.7758 305.488C28.4865 304.712 27.6227 304.317 26.8464 304.607L27.8941 307.418ZM32.3766 302.5C31.6046 302.8 31.2222 303.669 31.5226 304.441C31.823 305.213 32.6923 305.596 33.4644 305.295L32.3766 302.5ZM39.0042 303.099C39.7724 302.789 40.1438 301.915 39.8338 301.146C39.5237 300.378 38.6496 300.007 37.8814 300.317L39.0042 303.099ZM43.3626 298.07C42.5977 298.388 42.2354 299.266 42.5534 300.031C42.8714 300.796 43.7494 301.158 44.5143 300.84L43.3626 298.07ZM49.9998 298.533C50.7622 298.208 51.1175 297.328 50.7934 296.565C50.4693 295.803 49.5885 295.448 48.8261 295.772L49.9998 298.533ZM54.2787 293.435C53.518 293.763 53.1673 294.646 53.4954 295.407C53.8234 296.168 54.706 296.518 55.4667 296.19L54.2787 293.435ZM60.921 293.829C61.6809 293.5 62.0297 292.616 61.7 291.856C61.3703 291.096 60.4869 290.747 59.7269 291.077L60.921 293.829ZM65.1776 288.714C64.4173 289.043 64.0677 289.926 64.3967 290.686C64.7258 291.446 65.6088 291.796 66.3691 291.467L65.1776 288.714ZM71.6445 289.229C72.4131 288.92 72.7856 288.046 72.4764 287.277C72.1673 286.509 71.2937 286.136 70.5251 286.445L71.6445 289.229ZM75.816 284.443C75.036 284.722 74.6299 285.58 74.9089 286.36C75.188 287.14 76.0465 287.546 76.8265 287.267L75.816 284.443ZM82.0885 285.466C82.8752 285.206 83.3026 284.358 83.0431 283.571C82.7836 282.785 81.9354 282.357 81.1487 282.617L82.0885 285.466ZM86.4927 280.892C85.7032 281.144 85.2668 281.987 85.518 282.777C85.7691 283.566 86.6127 284.002 87.4021 283.751L86.4927 280.892ZM92.7423 282.048C93.5307 281.794 93.9639 280.949 93.7097 280.16C93.4556 279.372 92.6103 278.939 91.8219 279.193L92.7423 282.048ZM97.1113 277.441C96.3276 277.71 95.91 278.563 96.1785 279.347C96.447 280.13 97.3 280.548 98.0837 280.279L97.1113 277.441ZM103.399 278.368C104.173 278.074 104.563 277.208 104.269 276.433C103.975 275.659 103.109 275.269 102.334 275.563L103.399 278.368ZM107.459 273.488C106.699 273.817 106.35 274.701 106.68 275.461C107.009 276.221 107.892 276.57 108.653 276.24L107.459 273.488ZM113.878 273.837C114.627 273.484 114.948 272.59 114.594 271.841C114.24 271.091 113.346 270.771 112.597 271.125L113.878 273.837ZM117.8 268.611C117.058 268.98 116.756 269.881 117.125 270.622C117.494 271.364 118.395 271.666 119.136 271.297L117.8 268.611ZM124.341 268.592C125.068 268.195 125.335 267.284 124.938 266.557C124.542 265.83 123.63 265.562 122.903 265.959L124.341 268.592ZM127.854 263.085C127.15 263.522 126.933 264.446 127.37 265.15C127.807 265.854 128.732 266.071 129.436 265.634L127.854 263.085ZM134.351 262.339C135.021 261.852 135.169 260.914 134.682 260.244C134.194 259.574 133.256 259.426 132.586 259.913L134.351 262.339ZM137.021 256.379C136.398 256.925 136.336 257.873 136.882 258.496C137.428 259.119 138.375 259.182 138.998 258.636L137.021 256.379ZM143.455 254.384C144.04 253.799 144.041 252.849 143.455 252.263C142.869 251.677 141.919 251.677 141.334 252.263L143.455 254.384ZM145.694 247.762C145.128 248.367 145.159 249.316 145.763 249.882C146.368 250.449 147.317 250.418 147.883 249.814L145.694 247.762ZM152.154 245.086C152.697 244.46 152.631 243.513 152.005 242.969C151.38 242.426 150.433 242.492 149.889 243.118L152.154 245.086ZM153.89 238.315C153.373 238.963 153.48 239.906 154.128 240.423C154.776 240.939 155.72 240.832 156.236 240.184L153.89 238.315ZM160.095 235.094C160.579 234.422 160.427 233.484 159.754 233C159.082 232.516 158.145 232.669 157.661 233.341L160.095 235.094ZM161.164 228.187C160.718 228.885 160.922 229.813 161.62 230.259C162.318 230.705 163.245 230.501 163.692 229.803L161.164 228.187ZM166.979 224.304C167.381 223.58 167.12 222.667 166.396 222.264C165.672 221.862 164.759 222.122 164.356 222.847L166.979 224.304ZM167.188 217.319C166.836 218.069 167.159 218.962 167.909 219.314C168.659 219.666 169.553 219.343 169.904 218.593L167.188 217.319ZM172.414 212.675C172.707 211.901 172.318 211.035 171.543 210.741C170.769 210.447 169.902 210.837 169.609 211.611L172.414 212.675ZM171.567 205.74C171.338 206.536 171.798 207.367 172.594 207.596C173.39 207.825 174.221 207.366 174.45 206.57L171.567 205.74ZM175.962 200.304C176.121 199.491 175.59 198.703 174.777 198.545C173.964 198.386 173.176 198.917 173.018 199.73L175.962 200.304ZM173.923 193.622C173.839 194.446 174.44 195.182 175.264 195.266C176.088 195.35 176.824 194.75 176.908 193.925L173.923 193.622ZM177.251 187.716C177.256 186.888 176.588 186.212 175.76 186.208C174.931 186.203 174.256 186.87 174.251 187.699L177.251 187.716ZM174.019 182.004C174.09 182.829 174.817 183.441 175.642 183.37C176.467 183.299 177.079 182.573 177.008 181.748L174.019 182.004ZM176.25 175.835C176.111 175.019 175.336 174.469 174.52 174.608C173.703 174.747 173.153 175.521 173.292 176.338L176.25 175.835ZM172.116 170.738C172.317 171.542 173.131 172.031 173.935 171.83C174.739 171.63 175.227 170.815 175.027 170.012L172.116 170.738ZM173.381 164.3C173.124 163.513 172.277 163.083 171.489 163.34C170.702 163.598 170.272 164.445 170.529 165.232L173.381 164.3ZM168.563 159.844C168.873 160.612 169.747 160.984 170.515 160.674C171.284 160.364 171.655 159.49 171.345 158.721L168.563 159.844ZM168.943 153.293C168.583 152.547 167.686 152.234 166.94 152.594C166.194 152.954 165.881 153.851 166.241 154.597L168.943 153.293ZM163.579 149.513C163.987 150.234 164.903 150.487 165.624 150.079C166.344 149.671 166.598 148.756 166.19 148.035L163.579 149.513ZM163.095 142.968C162.639 142.276 161.709 142.084 161.017 142.54C160.325 142.995 160.133 143.925 160.589 144.617L163.095 142.968ZM157.273 139.941C157.776 140.599 158.717 140.725 159.375 140.222C160.034 139.72 160.16 138.778 159.657 138.12L157.273 139.941ZM155.846 133.506C155.292 132.889 154.344 132.838 153.727 133.391C153.111 133.944 153.059 134.892 153.612 135.509L155.846 133.506ZM149.577 131.399C150.184 131.962 151.134 131.926 151.697 131.318C152.26 130.711 152.223 129.762 151.616 129.199L149.577 131.399ZM146.966 125.318C146.302 124.823 145.362 124.959 144.866 125.623C144.371 126.287 144.507 127.227 145.171 127.722L146.966 125.318ZM140.397 124.582C141.116 124.994 142.032 124.744 142.444 124.025C142.855 123.306 142.606 122.389 141.887 121.978L140.397 124.582ZM136.398 119.313C135.629 119.004 134.755 119.377 134.446 120.145C134.138 120.914 134.51 121.788 135.279 122.097L136.398 119.313ZM129.876 120.38C130.683 120.57 131.49 120.071 131.68 119.264C131.87 118.458 131.371 117.65 130.564 117.46L129.876 120.38ZM124.507 116.526C123.681 116.464 122.961 117.084 122.9 117.91C122.838 118.736 123.458 119.456 124.284 119.517L124.507 116.526ZM118.62 119.536C119.446 119.47 120.062 118.747 119.996 117.921C119.93 117.096 119.208 116.479 118.382 116.545L118.62 119.536ZM112.254 117.436C111.44 117.593 110.908 118.38 111.065 119.193C111.222 120.006 112.009 120.538 112.822 120.382L112.254 117.436ZM106.944 121.754C107.742 121.534 108.211 120.708 107.991 119.91C107.771 119.111 106.945 118.642 106.147 118.862L106.944 121.754ZM100.166 120.783C99.389 121.07 98.992 121.933 99.2792 122.71C99.5665 123.487 100.429 123.884 101.206 123.597L100.166 120.783ZM95.6741 125.943C96.4199 125.582 96.7323 124.686 96.3718 123.94C96.0112 123.194 95.1143 122.881 94.3685 123.242L95.6741 125.943ZM88.8364 126.297C88.1353 126.739 87.9246 127.665 88.3659 128.366C88.8072 129.067 89.7333 129.278 90.4344 128.836L88.8364 126.297ZM85.6065 132.322C86.244 131.793 86.3319 130.848 85.8029 130.21C85.2739 129.573 84.3282 129.485 83.6907 130.014L85.6065 132.322ZM79.0992 134.441C78.5494 135.061 78.6062 136.009 79.2259 136.559C79.8456 137.108 80.7937 137.052 81.3434 136.432L79.0992 134.441ZM77.8197 141.153C78.2555 140.448 78.0377 139.524 77.3332 139.088C76.6286 138.652 75.7042 138.87 75.2684 139.575L77.8197 141.153ZM72.4667 145.045C72.1403 145.806 72.493 146.688 73.2544 147.015C74.0158 147.341 74.8977 146.988 75.2241 146.227L72.4667 145.045ZM73.3563 151.418C73.5891 150.623 73.1334 149.79 72.3383 149.557C71.5433 149.324 70.71 149.78 70.4772 150.575L73.3563 151.418ZM69.1802 156.317C69.0498 157.136 69.6073 157.904 70.4254 158.035C71.2435 158.165 72.0124 157.608 72.1428 156.79L69.1802 156.317ZM71.6467 162.258C71.664 161.429 71.0066 160.744 70.1783 160.727C69.3501 160.709 68.6646 161.367 68.6473 162.195L71.6467 162.258ZM68.9615 168.107C69.0683 168.928 69.8208 169.508 70.6423 169.401C71.4639 169.294 72.0432 168.541 71.9364 167.72L68.9615 168.107ZM73.0727 173.049C72.8333 172.256 71.9963 171.807 71.2032 172.046C70.4101 172.286 69.9612 173.123 70.2006 173.916L73.0727 173.049ZM72.4082 179.446C72.7817 180.185 73.6839 180.482 74.4234 180.109C75.1629 179.735 75.4595 178.833 75.086 178.093L72.4082 179.446ZM77.9538 182.7C77.4553 182.038 76.5148 181.906 75.8532 182.405C75.1915 182.903 75.0592 183.844 75.5577 184.505L77.9538 182.7ZM79.8827 189.277C80.4884 189.842 81.4376 189.809 82.0028 189.204C82.568 188.598 82.5353 187.649 81.9296 187.084L79.8827 189.277ZM86.9686 191.073C86.2815 190.611 85.3493 190.793 84.8866 191.48C84.4239 192.167 84.6058 193.099 85.2929 193.562L86.9686 191.073ZM91.2372 196.998C91.9796 197.365 92.8794 197.061 93.247 196.319C93.6145 195.576 93.3106 194.676 92.5681 194.309L91.2372 196.998ZM98.5512 196.862C97.7733 196.578 96.9118 196.977 96.627 197.755C96.3422 198.533 96.7419 199.395 97.5198 199.68L98.5512 196.862ZM104.007 201.724C104.807 201.94 105.63 201.466 105.845 200.666C106.06 199.866 105.586 199.043 104.786 198.827L104.007 201.724ZM111.182 200.296C110.369 200.139 109.582 200.67 109.424 201.484C109.267 202.297 109.799 203.084 110.612 203.241L111.182 200.296ZM117.284 204.322C118.105 204.432 118.86 203.854 118.969 203.033C119.078 202.212 118.501 201.458 117.679 201.349L117.284 204.322ZM124.24 202.054C123.414 201.985 122.689 202.598 122.619 203.424C122.55 204.249 123.163 204.974 123.989 205.044L124.24 202.054ZM130.429 205.441C131.257 205.471 131.952 204.823 131.981 203.995C132.011 203.167 131.363 202.472 130.535 202.443L130.429 205.441ZM136.54 202.489C135.712 202.506 135.054 203.191 135.071 204.019C135.088 204.848 135.773 205.505 136.601 205.489L136.54 202.489ZM142.766 205.191C143.592 205.127 144.211 204.406 144.147 203.58C144.084 202.754 143.363 202.136 142.537 202.199L142.766 205.191ZM148.508 201.571C147.687 201.681 147.111 202.436 147.22 203.257C147.33 204.078 148.085 204.655 148.906 204.545L148.508 201.571ZM154.999 203.555C155.813 203.399 156.346 202.613 156.19 201.799C156.034 200.986 155.249 200.452 154.435 200.608L154.999 203.555ZM160.3 199.316C159.496 199.516 159.007 200.33 159.208 201.134C159.408 201.938 160.222 202.427 161.026 202.226L160.3 199.316ZM166.97 200.571C167.762 200.328 168.206 199.488 167.962 198.696C167.719 197.905 166.879 197.46 166.087 197.704L166.97 200.571ZM171.783 195.786C171.006 196.07 170.606 196.932 170.89 197.71C171.175 198.488 172.037 198.888 172.815 198.603L171.783 195.786ZM178.548 196.338C179.31 196.014 179.666 195.134 179.343 194.371C179.019 193.608 178.138 193.253 177.376 193.576L178.548 196.338ZM182.855 191.092C182.109 191.452 181.796 192.349 182.156 193.095C182.516 193.841 183.413 194.154 184.159 193.794L182.855 191.092ZM189.927 190.817C190.651 190.414 190.911 189.501 190.508 188.777C190.105 188.053 189.191 187.793 188.468 188.196L189.927 190.817ZM194.11 184.775C193.418 185.231 193.228 186.161 193.684 186.853C194.14 187.544 195.07 187.735 195.762 187.279L194.11 184.775ZM201.311 183.299C201.965 182.791 202.083 181.848 201.574 181.194C201.066 180.541 200.123 180.423 199.469 180.931L201.311 183.299ZM204.52 176.684C203.906 177.241 203.86 178.189 204.416 178.803C204.972 179.417 205.921 179.463 206.535 178.907L204.52 176.684ZM211.423 174.161C211.998 173.564 211.98 172.615 211.384 172.04C210.788 171.465 209.838 171.482 209.263 172.078L211.423 174.161ZM213.725 167.176C213.184 167.803 213.254 168.75 213.881 169.291C214.509 169.832 215.456 169.762 215.997 169.134L213.725 167.176ZM219.894 164.426C220.411 163.778 220.305 162.834 219.658 162.318C219.01 161.801 218.067 161.907 217.55 162.554L219.894 164.426ZM220.773 158.324C220.289 158.997 220.442 159.934 221.115 160.418C221.787 160.902 222.725 160.748 223.208 160.076L220.773 158.324ZM226.254 155.477C226.681 154.767 226.451 153.845 225.741 153.419C225.03 152.992 224.109 153.222 223.682 153.932L226.254 155.477ZM226.119 149.318C225.777 150.073 226.111 150.962 226.866 151.303C227.621 151.645 228.509 151.311 228.851 150.556L226.119 149.318ZM230.804 145.307C231.036 144.511 230.58 143.678 229.785 143.446C228.99 143.214 228.157 143.67 227.925 144.466L230.804 145.307ZM228.997 139.414C228.886 140.235 229.461 140.991 230.282 141.102C231.103 141.213 231.859 140.638 231.97 139.817L228.997 139.414ZM232.367 133.926C232.381 133.098 231.721 132.415 230.892 132.401C230.064 132.387 229.381 133.048 229.367 133.876L232.367 133.926ZM229.207 127.947C229.265 128.773 229.981 129.397 230.808 129.339C231.634 129.281 232.257 128.565 232.2 127.738L229.207 127.947ZM231.524 121.596C231.402 120.777 230.639 120.212 229.819 120.334C229 120.457 228.435 121.22 228.557 122.039L231.524 121.596ZM227.467 116.185C227.646 116.993 228.448 117.503 229.256 117.323C230.065 117.144 230.575 116.342 230.395 115.534L227.467 116.185ZM228.869 109.571C228.639 108.775 227.807 108.316 227.011 108.546C226.215 108.776 225.757 109.607 225.986 110.403L228.869 109.571ZM224.167 104.707C224.44 105.489 225.295 105.901 226.078 105.628C226.86 105.355 227.272 104.5 226.999 103.718L224.167 104.707ZM224.836 97.9778C224.526 97.2096 223.652 96.8382 222.884 97.1482C222.116 97.4583 221.744 98.3324 222.055 99.1007L224.836 97.9778ZM219.692 93.5851C220.033 94.3398 220.922 94.6749 221.676 94.3334C222.431 93.992 222.766 93.1033 222.425 92.3485L219.692 93.5851ZM219.804 86.8232C219.436 86.0809 218.536 85.7774 217.793 86.1453C217.051 86.5132 216.748 87.4131 217.116 88.1554L219.804 86.8232ZM214.361 82.8047C214.75 83.5357 215.659 83.8123 216.39 83.4224C217.121 83.0326 217.398 82.124 217.008 81.3931L214.361 82.8047ZM213.89 75.7746C213.472 75.0592 212.554 74.8181 211.838 75.2359C211.123 75.6537 210.882 76.5723 211.3 77.2877L213.89 75.7746ZM207.825 71.6825C208.28 72.3748 209.21 72.5673 209.902 72.1123C210.595 71.6574 210.787 70.7273 210.332 70.035L207.825 71.6825ZM206.473 64.4918C205.981 63.8251 205.042 63.683 204.375 64.1746C203.708 64.6662 203.566 65.6053 204.058 66.2721L206.473 64.4918ZM200.003 61.0756C200.53 61.7145 201.476 61.8048 202.115 61.2774C202.753 60.7501 202.844 59.8046 202.316 59.1657L200.003 61.0756ZM197.873 54.076C197.311 53.4673 196.362 53.4293 195.753 53.9912C195.144 54.5531 195.106 55.5021 195.668 56.1109L197.873 54.076ZM191.066 51.3939C191.66 51.9705 192.61 51.9559 193.187 51.3611C193.763 50.7664 193.749 49.8167 193.154 49.2401L191.066 51.3939ZM188.175 44.6726C187.55 44.1295 186.602 44.1965 186.059 44.8221C185.516 45.4477 185.583 46.3951 186.209 46.9381L188.175 44.6726ZM181.115 42.7543C181.769 43.2625 182.711 43.1442 183.219 42.49C183.728 41.8357 183.609 40.8934 182.955 40.3852L181.115 42.7543ZM177.972 36.6891C177.299 36.2066 176.362 36.3613 175.879 37.0347C175.397 37.7081 175.551 38.6451 176.225 39.1277L177.972 36.6891ZM171.648 35.9294C172.333 36.3959 173.266 36.219 173.732 35.5344C174.199 34.8498 174.022 33.9166 173.337 33.4502L171.648 35.9294ZM168.626 30.3216C167.93 29.8715 167.002 30.0706 166.552 30.7661C166.102 31.4616 166.301 32.3903 166.996 32.8403L168.626 30.3216ZM162.272 29.8637C162.978 30.2968 163.902 30.0755 164.335 29.3693C164.768 28.6631 164.547 27.7395 163.841 27.3064L162.272 29.8637ZM158.984 24.4084C158.267 23.9927 157.349 24.2366 156.934 24.9532C156.518 25.6697 156.762 26.5876 157.478 27.0033L158.984 24.4084ZM152.615 24.263C153.342 24.6606 154.254 24.3937 154.651 23.6669C155.049 22.9401 154.782 22.0286 154.055 21.631L152.615 24.263ZM149.056 18.9797C148.32 18.6011 147.415 18.8915 147.037 19.6283C146.658 20.3652 146.948 21.2694 147.685 21.648L149.056 18.9797ZM142.689 19.1645C143.436 19.5232 144.332 19.2087 144.691 18.4619C145.05 17.7152 144.735 16.8191 143.988 16.4603L142.689 19.1645ZM138.852 14.0797C138.095 13.7419 137.208 14.0814 136.871 14.8378C136.533 15.5942 136.872 16.4813 137.629 16.819L138.852 14.0797ZM132.505 14.6197C133.271 14.9352 134.148 14.5701 134.463 13.8041C134.779 13.0381 134.414 12.1614 133.648 11.8458L132.505 14.6197ZM128.378 9.76789C127.603 9.47596 126.737 9.8678 126.445 10.6431C126.154 11.4184 126.545 12.2835 127.321 12.5755L128.378 9.76789ZM122.076 10.6959C122.86 10.9627 123.712 10.5431 123.979 9.75876C124.246 8.97445 123.826 8.12241 123.042 7.85569L122.076 10.6959ZM117.643 6.12106C116.85 5.88131 116.013 6.3298 115.773 7.12278C115.533 7.91576 115.982 8.75294 116.775 8.99269L117.643 6.12106ZM111.42 7.47836C112.221 7.68915 113.042 7.21056 113.253 6.40939C113.463 5.60823 112.985 4.78788 112.184 4.5771L111.42 7.47836ZM106.675 3.25833C105.864 3.08853 105.069 3.6082 104.9 4.41904C104.73 5.22987 105.249 6.02484 106.06 6.19464L106.675 3.25833ZM100.672 5.2261C101.491 5.35075 102.256 4.78788 102.38 3.96888C102.505 3.14989 101.942 2.38491 101.123 2.26025L100.672 5.2261ZM95.5424 1.54439C94.7186 1.45701 93.9799 2.05401 93.8926 2.87781C93.8052 3.70162 94.4022 4.44028 95.226 4.52766L95.5424 1.54439ZM89.7428 4.05081C90.5693 4.10814 91.2857 3.48464 91.343 2.6582C91.4003 1.83176 90.7768 1.11533 89.9504 1.058L89.7428 4.05081ZM84.3576 0.753233C83.5299 0.719349 82.8314 1.36289 82.7975 2.19063C82.7636 3.01836 83.4072 3.71684 84.2349 3.75072L84.3576 0.753233ZM78.7099 3.58555C79.5382 3.60219 80.2231 2.94424 80.2398 2.11598C80.2564 1.28772 79.5985 0.602792 78.7702 0.586153L78.7099 3.58555ZM73.1915 0.515339C72.3631 0.509957 71.6872 1.17715 71.6818 2.00556C71.6764 2.83397 72.3436 3.50989 73.172 3.51528L73.1915 0.515339ZM67.6227 3.50007C68.4511 3.50027 69.1229 2.82885 69.1231 2.00042C69.1233 1.172 68.4518 0.500267 67.6234 0.500071L67.6227 3.50007ZM2.41574 315.854C3.37876 315.576 4.33358 315.296 5.28051 315.014L4.4236 312.139C3.48507 312.419 2.53873 312.696 1.58426 312.971L2.41574 315.854ZM10.984 313.259C12.9042 312.65 14.7925 312.032 16.6521 311.406L15.6957 308.563C13.852 309.183 11.98 309.796 10.0767 310.4L10.984 313.259ZM22.2913 309.457C24.1862 308.784 26.0526 308.104 27.8941 307.418L26.8464 304.607C25.0188 305.288 23.1671 305.962 21.2877 306.63L22.2913 309.457ZM33.4644 305.295C35.3329 304.568 37.1782 303.836 39.0042 303.099L37.8814 300.317C36.0661 301.05 34.2325 301.777 32.3766 302.5L33.4644 305.295ZM44.5143 300.84C46.3577 300.074 48.1848 299.304 49.9998 298.533L48.8261 295.772C47.0171 296.541 45.1974 297.307 43.3626 298.07L44.5143 300.84ZM55.4667 296.19C57.2911 295.403 59.1079 294.616 60.921 293.829L59.7269 291.077C57.9143 291.864 56.1 292.65 54.2787 293.435L55.4667 296.19ZM66.3691 291.467C67.2768 291.074 68.1847 290.682 69.0935 290.29L67.9065 287.535C66.9958 287.927 66.0864 288.32 65.1776 288.714L66.3691 291.467ZM69.0935 290.29C69.9403 289.925 70.7907 289.572 71.6445 289.229L70.5251 286.445C69.6502 286.797 68.7771 287.16 67.9065 287.535L69.0935 290.29ZM76.8265 287.267C78.5714 286.643 80.326 286.047 82.0885 285.466L81.1487 282.617C79.3698 283.203 77.5906 283.808 75.816 284.443L76.8265 287.267ZM87.4021 283.751C89.1779 283.186 90.9624 282.622 92.7423 282.048L91.8219 279.193C90.0493 279.764 88.275 280.325 86.4927 280.892L87.4021 283.751ZM98.0837 280.279C99.8597 279.671 101.633 279.038 103.399 278.368L102.334 275.563C100.605 276.219 98.8635 276.841 97.1113 277.441L98.0837 280.279ZM108.653 276.24C109.519 275.864 110.383 275.476 111.244 275.074L109.974 272.356C109.14 272.746 108.301 273.123 107.459 273.488L108.653 276.24ZM111.244 275.074C112.121 274.664 112.999 274.252 113.878 273.837L112.597 271.125C111.724 271.537 110.849 271.947 109.974 272.356L111.244 275.074ZM119.136 271.297C120.884 270.427 122.622 269.53 124.341 268.592L122.903 265.959C121.225 266.875 119.521 267.754 117.8 268.611L119.136 271.297ZM129.436 265.634C131.109 264.596 132.752 263.502 134.351 262.339L132.586 259.913C131.054 261.028 129.473 262.081 127.854 263.085L129.436 265.634ZM138.998 258.636C139.743 257.983 140.474 257.31 141.19 256.615L139.1 254.463C138.422 255.121 137.729 255.759 137.021 256.379L138.998 258.636ZM141.19 256.615C141.948 255.879 142.704 255.135 143.455 254.384L141.334 252.263C140.593 253.003 139.849 253.736 139.1 254.463L141.19 256.615ZM147.883 249.814C149.333 248.266 150.759 246.69 152.154 245.086L149.889 243.118C148.521 244.692 147.12 246.241 145.694 247.762L147.883 249.814ZM156.236 240.184C157.564 238.517 158.853 236.821 160.095 235.094L157.661 233.341C156.448 235.026 155.189 236.684 153.89 238.315L156.236 240.184ZM163.692 229.803C164.844 228.002 165.942 226.168 166.979 224.304L164.356 222.847C163.352 224.654 162.285 226.434 161.164 228.187L163.692 229.803ZM169.904 218.593C170.814 216.653 171.653 214.68 172.414 212.675L169.609 211.611C168.876 213.542 168.067 215.445 167.188 217.319L169.904 218.593ZM174.45 206.57C175.042 204.513 175.549 202.425 175.962 200.304L173.018 199.73C172.621 201.762 172.136 203.765 171.567 205.74L174.45 206.57ZM176.908 193.925C177.016 192.86 177.101 191.787 177.16 190.707L174.165 190.541C174.108 191.575 174.027 192.602 173.923 193.622L176.908 193.925ZM177.16 190.707C177.215 189.714 177.245 188.716 177.251 187.716L174.251 187.699C174.245 188.651 174.217 189.599 174.165 190.541L177.16 190.707ZM177.008 181.748C176.839 179.778 176.585 177.804 176.25 175.835L173.292 176.338C173.614 178.229 173.858 180.12 174.019 182.004L177.008 181.748ZM175.027 170.012C174.548 168.094 173.998 166.188 173.381 164.3L170.529 165.232C171.125 167.054 171.655 168.891 172.116 170.738L175.027 170.012ZM171.345 158.721C170.603 156.884 169.801 155.072 168.943 153.293L166.241 154.597C167.07 156.316 167.846 158.068 168.563 159.844L171.345 158.721ZM166.19 148.035C165.209 146.301 164.175 144.61 163.095 142.968L160.589 144.617C161.632 146.202 162.631 147.837 163.579 149.513L166.19 148.035ZM159.657 138.12C159.052 137.328 158.436 136.551 157.809 135.791L155.494 137.699C156.097 138.43 156.69 139.178 157.273 139.941L159.657 138.12ZM157.809 135.791C157.169 135.014 156.514 134.252 155.846 133.506L153.612 135.509C154.252 136.223 154.88 136.953 155.494 137.699L157.809 135.791ZM151.616 129.199C150.124 127.817 148.574 126.519 146.966 125.318L145.171 127.722C146.689 128.855 148.158 130.085 149.577 131.399L151.616 129.199ZM141.887 121.978C140.116 120.965 138.285 120.071 136.398 119.313L135.279 122.097C137.033 122.801 138.739 123.634 140.397 124.582L141.887 121.978ZM130.564 117.46C128.596 116.996 126.576 116.68 124.507 116.526L124.284 119.517C126.194 119.66 128.058 119.952 129.876 120.38L130.564 117.46ZM118.382 116.545C117.378 116.625 116.364 116.743 115.342 116.901L115.798 119.866C116.749 119.719 117.69 119.61 118.62 119.536L118.382 116.545ZM115.342 116.901C114.319 117.058 113.288 117.236 112.254 117.436L112.822 120.382C113.819 120.189 114.812 120.017 115.798 119.866L115.342 116.901ZM106.147 118.862C104.14 119.415 102.139 120.054 100.166 120.783L101.206 123.597C103.095 122.899 105.015 122.286 106.944 121.754L106.147 118.862ZM94.3685 123.242C92.4675 124.161 90.6156 125.177 88.8364 126.297L90.4344 128.836C92.1124 127.78 93.8659 126.817 95.6741 125.943L94.3685 123.242ZM83.6907 130.014C82.0523 131.373 80.5131 132.847 79.0992 134.441L81.3434 136.432C82.6493 134.96 84.0773 133.591 85.6065 132.322L83.6907 130.014ZM75.2684 139.575C74.7086 140.48 74.1858 141.414 73.7031 142.38L76.3864 143.722C76.828 142.838 77.3067 141.982 77.8197 141.153L75.2684 139.575ZM73.7031 142.38C73.2647 143.257 72.8523 144.146 72.4667 145.045L75.2241 146.227C75.5864 145.382 75.9741 144.546 76.3864 143.722L73.7031 142.38ZM70.4772 150.575C69.9231 152.467 69.4878 154.387 69.1802 156.317L72.1428 156.79C72.4299 154.988 72.8369 153.192 73.3563 151.418L70.4772 150.575ZM68.6473 162.195C68.606 164.176 68.7074 166.152 68.9615 168.107L71.9364 167.72C71.7025 165.92 71.6083 164.094 71.6467 162.258L68.6473 162.195ZM70.2006 173.916C70.7712 175.806 71.5039 177.656 72.4082 179.446L75.086 178.093C74.2628 176.463 73.5942 174.777 73.0727 173.049L70.2006 173.916ZM75.5577 184.505C76.1493 185.291 76.781 186.058 77.4537 186.805L79.6836 184.798C79.0692 184.116 78.4929 183.416 77.9538 182.7L75.5577 184.505ZM77.4537 186.805C78.2302 187.668 79.041 188.491 79.8827 189.277L81.9296 187.084C81.1497 186.356 80.4002 185.595 79.6836 184.798L77.4537 186.805ZM85.2929 193.562C87.187 194.837 89.177 195.978 91.2372 196.998L92.5681 194.309C90.6161 193.343 88.7426 192.268 86.9686 191.073L85.2929 193.562ZM97.5198 199.68C99.644 200.457 101.814 201.135 104.007 201.724L104.786 198.827C102.67 198.258 100.585 197.607 98.5512 196.862L97.5198 199.68ZM110.612 203.241C112.841 203.672 115.073 204.028 117.284 204.322L117.679 201.349C115.52 201.062 113.347 200.715 111.182 200.296L110.612 203.241ZM123.989 205.044C125.121 205.139 126.241 205.22 127.346 205.29L127.534 202.295C126.449 202.227 125.349 202.147 124.24 202.054L123.989 205.044ZM127.346 205.29C128.376 205.354 129.404 205.405 130.429 205.441L130.535 202.443C129.538 202.408 128.538 202.359 127.534 202.295L127.346 205.29ZM136.601 205.489C138.668 205.447 140.723 205.347 142.766 205.191L142.537 202.199C140.55 202.352 138.551 202.449 136.54 202.489L136.601 205.489ZM148.906 204.545C150.949 204.272 152.98 203.941 154.999 203.555L154.435 200.608C152.471 200.984 150.495 201.306 148.508 201.571L148.906 204.545ZM161.026 202.226C163.02 201.729 165.001 201.177 166.97 200.571L166.087 197.704C164.17 198.294 162.241 198.832 160.3 199.316L161.026 202.226ZM172.815 198.603C174.738 197.899 176.649 197.143 178.548 196.338L177.376 193.576C175.523 194.362 173.659 195.099 171.783 195.786L172.815 198.603ZM184.159 193.794C185.082 193.349 186.001 192.892 186.918 192.423L185.551 189.752C184.655 190.211 183.757 190.657 182.855 191.092L184.159 193.794ZM186.918 192.423C187.942 191.899 188.944 191.364 189.927 190.817L188.468 188.196C187.516 188.726 186.545 189.244 185.551 189.752L186.918 192.423ZM195.762 187.279C197.683 186.012 199.528 184.687 201.311 183.299L199.469 180.931C197.747 182.272 195.965 183.551 194.11 184.775L195.762 187.279ZM206.535 178.907C208.205 177.393 209.83 175.812 211.423 174.161L209.263 172.078C207.714 173.685 206.138 175.218 204.52 176.684L206.535 178.907ZM215.997 169.134C216.728 168.286 217.456 167.421 218.181 166.538L215.864 164.633C215.152 165.499 214.44 166.346 213.725 167.176L215.997 169.134ZM218.181 166.538C218.761 165.833 219.333 165.129 219.894 164.426L217.55 162.554C216.999 163.244 216.437 163.936 215.864 164.633L218.181 166.538ZM223.208 160.076C224.293 158.568 225.314 157.041 226.254 155.477L223.682 153.932C222.793 155.412 221.818 156.87 220.773 158.324L223.208 160.076ZM228.851 150.556C229.615 148.869 230.273 147.126 230.804 145.307L227.925 144.466C227.436 146.139 226.829 147.75 226.119 149.318L228.851 150.556ZM231.97 139.817C232.093 138.905 232.185 137.975 232.245 137.024L229.25 136.837C229.195 137.716 229.11 138.575 228.997 139.414L231.97 139.817ZM232.245 137.024C232.309 135.99 232.35 134.957 232.367 133.926L229.367 133.876C229.351 134.862 229.312 135.849 229.25 136.837L232.245 137.024ZM232.2 127.738C232.057 125.682 231.829 123.634 231.524 121.596L228.557 122.039C228.85 124.003 229.07 125.973 229.207 127.947L232.2 127.738ZM230.395 115.534C229.95 113.533 229.439 111.544 228.869 109.571L225.986 110.403C226.54 112.32 227.036 114.248 227.467 116.185L230.395 115.534ZM226.999 103.718C226.325 101.787 225.602 99.8735 224.836 97.9778L222.055 99.1007C222.803 100.955 223.51 102.825 224.167 104.707L226.999 103.718ZM222.425 92.3485C221.582 90.4861 220.706 88.6436 219.804 86.8232L217.116 88.1554C218.003 89.9469 218.865 91.7574 219.692 93.5851L222.425 92.3485ZM217.008 81.3931C216.528 80.4929 216.043 79.599 215.555 78.7114L212.926 80.1572C213.409 81.034 213.887 81.9166 214.361 82.8047L217.008 81.3931ZM215.555 78.7114C215.011 77.7232 214.456 76.7443 213.89 75.7746L211.3 77.2877C211.853 78.235 212.395 79.1915 212.926 80.1572L215.555 78.7114ZM210.332 70.035C209.093 68.1483 207.806 66.3003 206.473 64.4918L204.058 66.2721C205.359 68.0369 206.615 69.8405 207.825 71.6825L210.332 70.035ZM202.316 59.1657C200.882 57.4284 199.401 55.7316 197.873 54.076L195.668 56.1109C197.159 57.7256 198.604 59.3807 200.003 61.0756L202.316 59.1657ZM193.154 49.2401C191.541 47.6758 189.881 46.1531 188.175 44.6726L186.209 46.9381C187.873 48.3826 189.492 49.868 191.066 51.3939L193.154 49.2401ZM182.955 40.3852C182.068 39.6961 181.17 39.0174 180.26 38.3492L178.484 40.7669C179.372 41.4192 180.249 42.0817 181.115 42.7543L182.955 40.3852ZM180.26 38.3492C179.503 37.793 178.74 37.2395 177.972 36.6891L176.225 39.1277C176.983 39.6711 177.736 40.2176 178.484 40.7669L180.26 38.3492ZM173.337 33.4502C171.786 32.393 170.215 31.3496 168.626 30.3216L166.996 32.8403C168.565 33.8553 170.116 34.8856 171.648 35.9294L173.337 33.4502ZM163.841 27.3064C162.237 26.323 160.618 25.3564 158.984 24.4084L157.478 27.0033C159.091 27.9389 160.689 28.8929 162.272 29.8637L163.841 27.3064ZM154.055 21.631C152.402 20.7266 150.735 19.8422 149.056 18.9797L147.685 21.648C149.341 22.4986 150.984 23.3708 152.615 24.263L154.055 21.631ZM143.988 16.4603C142.286 15.6427 140.574 14.8485 138.852 14.0797L137.629 16.819C139.325 17.5763 141.012 18.3586 142.689 19.1645L143.988 16.4603ZM133.648 11.8458C131.899 11.1253 130.142 10.4321 128.378 9.76789L127.321 12.5755C129.055 13.2286 130.784 13.9105 132.505 14.6197L133.648 11.8458ZM123.042 7.85569C121.247 7.24536 119.447 6.66653 117.643 6.12106L116.775 8.99269C118.545 9.528 120.313 10.0963 122.076 10.6959L123.042 7.85569ZM112.184 4.5771C111.267 4.33599 110.35 4.10389 109.433 3.88105L108.725 6.79631C109.623 7.0146 110.522 7.24202 111.42 7.47836L112.184 4.5771ZM109.433 3.88105C108.519 3.65916 107.6 3.45192 106.675 3.25833L106.06 6.19464C106.955 6.38198 107.843 6.58225 108.725 6.79631L109.433 3.88105ZM101.123 2.26025C99.2751 1.97899 97.4129 1.74279 95.5424 1.54439L95.226 4.52766C97.056 4.72176 98.8729 4.95232 100.672 5.2261L101.123 2.26025ZM89.9504 1.058C88.0878 0.928818 86.2217 0.82954 84.3576 0.753233L84.2349 3.75072C86.0746 3.82603 87.9122 3.92385 89.7428 4.05081L89.9504 1.058ZM78.7702 0.586153C76.9018 0.54862 75.0402 0.527351 73.1915 0.515339L73.172 3.51528C75.0111 3.52722 76.8586 3.54836 78.7099 3.58555L78.7702 0.586153ZM67.6234 0.500071C66.6925 0.499852 65.7646 0.500209 64.8438 0.500209V3.50021C65.7665 3.50021 66.6919 3.49985 67.6227 3.50007L67.6234 0.500071Z" fill="#3D405B"/>
</svg>
