<svg width="83" height="210" viewBox="0 0 83 210" fill="none" xmlns="http://www.w3.org/2000/svg">
<path d="M62.5852 0.929613C61.7783 0.741963 60.9721 1.24396 60.7844 2.05085C60.5968 2.85775 61.0988 3.66399 61.9057 3.85164L62.5852 0.929613ZM80.9822 42.3565L79.4858 42.2525L80.9822 42.3565ZM56.8158 96.564L55.6239 95.6533L56.8158 96.564ZM22.2796 108.18L21.2706 109.29L22.2796 108.18ZM32.6493 81.8327L32.5248 83.3276L32.6493 81.8327ZM47.6477 93.5377L48.8049 92.5833L47.6477 93.5377ZM56.4597 119.173L57.9564 119.072L56.4597 119.173ZM44.1762 164.168L42.8924 163.392L42.8924 163.392L44.1762 164.168ZM21.5675 189.046L20.5823 187.915L20.5823 187.915L21.5675 189.046ZM9.81808 198.036L10.5086 199.368L10.5086 199.368L9.81808 198.036ZM0.0447862 204.136C-0.156137 204.94 0.332504 205.754 1.1362 205.955L14.2331 209.229C15.0368 209.43 15.8512 208.942 16.0521 208.138C16.2531 207.334 15.7644 206.52 14.9607 206.319L3.31902 203.409L6.22944 191.767C6.43037 190.963 5.94173 190.149 5.13803 189.948C4.33434 189.747 3.51994 190.236 3.31902 191.039L0.0447862 204.136ZM4.58355 204.068C5.21512 203.531 5.29249 202.585 4.75638 201.953C4.22027 201.322 3.27368 201.244 2.64211 201.78L4.58355 204.068ZM6.69723 198.297C6.04203 198.804 5.92184 199.746 6.42879 200.401C6.93574 201.056 7.87785 201.177 8.53306 200.67L6.69723 198.297ZM13.8416 197.372C14.5267 196.906 14.7044 195.973 14.2387 195.288C13.7729 194.603 12.8399 194.425 12.1549 194.891L13.8416 197.372ZM17.7946 190.375C17.1731 190.923 17.1132 191.87 17.6609 192.492C18.2086 193.113 19.1564 193.173 19.778 192.626L17.7946 190.375ZM24.6758 188.312C25.2955 187.762 25.3521 186.814 24.8023 186.194C24.2524 185.575 23.3044 185.518 22.6847 186.068L24.6758 188.312ZM26.8162 182.309C26.2115 182.875 26.1803 183.824 26.7465 184.429C27.3128 185.034 28.262 185.065 28.8667 184.499L26.8162 182.309ZM32.9437 180.54C33.5264 179.952 33.5215 179.002 32.9327 178.419C32.3438 177.836 31.3941 177.841 30.8114 178.43L32.9437 180.54ZM34.6196 174.393C34.0671 175.01 34.1196 175.958 34.7369 176.511C35.3542 177.063 36.3025 177.011 36.855 176.394L34.6196 174.393ZM40.5377 172.017C41.0499 171.366 40.9374 170.423 40.2864 169.911C39.6353 169.398 38.6923 169.511 38.18 170.162L40.5377 172.017ZM41.4196 165.708C40.9597 166.398 41.1455 167.329 41.8346 167.789C42.5237 168.249 43.4551 168.063 43.9149 167.374L41.4196 165.708ZM46.9776 162.352C47.3861 161.631 47.133 160.715 46.4123 160.307C45.6916 159.898 44.7762 160.152 44.3677 160.872L46.9776 162.352ZM47.094 155.715C46.7291 156.459 47.0363 157.358 47.7801 157.723C48.5238 158.088 49.4225 157.78 49.7874 157.037L47.094 155.715ZM52.2635 151.549C52.579 150.783 52.2138 149.906 51.4478 149.591C50.6818 149.275 49.8051 149.64 49.4896 150.406L52.2635 151.549ZM51.5138 144.955C51.2537 145.742 51.6805 146.59 52.4671 146.85C53.2536 147.11 54.1021 146.683 54.3621 145.897L51.5138 144.955ZM56.0371 140.096C56.2355 139.291 55.7443 138.478 54.94 138.28C54.1357 138.082 53.3228 138.573 53.1244 139.377L56.0371 140.096ZM54.2802 133.697C54.1493 134.515 54.7063 135.284 55.5243 135.415C56.3423 135.546 57.1116 134.989 57.2425 134.171L54.2802 133.697ZM57.9371 128.157C57.9956 127.331 57.3731 126.613 56.5467 126.555C55.7203 126.496 55.003 127.119 54.9446 127.945L57.9371 128.157ZM55.0901 122.163C55.1073 122.991 55.7926 123.648 56.6209 123.631C57.4491 123.614 58.1066 122.929 58.0894 122.1L55.0901 122.163ZM57.6563 115.577C57.5685 114.753 56.8296 114.156 56.0058 114.244C55.182 114.332 54.5854 115.071 54.6732 115.895L57.6563 115.577ZM53.5991 109.264C53.7836 110.072 54.5879 110.577 55.3955 110.392C56.2032 110.208 56.7083 109.404 56.5238 108.596L53.5991 109.264ZM54.3667 101.782C54.0473 101.018 53.1686 100.657 52.4043 100.977C51.64 101.296 51.2793 102.175 51.5988 102.939L54.3667 101.782ZM48.4709 97.1386C48.9346 97.8251 49.867 98.0057 50.5535 97.542C51.24 97.0783 51.4206 96.1458 50.9569 95.4593L48.4709 97.1386ZM47.2362 90.6999C46.7005 90.068 45.754 89.9899 45.122 90.5255C44.49 91.0611 44.4119 92.0077 44.9476 92.6396L47.2362 90.6999ZM41.757 89.112C42.3376 89.7029 43.2873 89.7113 43.8782 89.1307C44.4692 88.5502 44.4776 87.6005 43.897 87.0095L41.757 89.112ZM40.1186 83.6217C39.4607 83.1183 38.5192 83.2436 38.0159 83.9016C37.5125 84.5596 37.6378 85.501 38.2958 86.0044L40.1186 83.6217ZM34.4876 83.7885C35.264 84.0775 36.1277 83.6823 36.4166 82.9059C36.7056 82.1295 36.3104 81.2659 35.534 80.9769L34.4876 83.7885ZM29.4558 80.5664C28.6478 80.7491 28.1409 81.5522 28.3236 82.3603C28.5063 83.1683 29.3094 83.6752 30.1174 83.4925L29.4558 80.5664ZM25.8118 85.8644C26.421 85.303 26.4598 84.354 25.8984 83.7448C25.337 83.1356 24.388 83.0968 23.7788 83.6582L25.8118 85.8644ZM20.0217 88.6372C19.6342 89.3694 19.9137 90.2771 20.6459 90.6646C21.3781 91.052 22.2858 90.7725 22.6733 90.0403L20.0217 88.6372ZM20.8343 95.0567C21.0149 94.2482 20.5058 93.4464 19.6973 93.2659C18.8887 93.0854 18.087 93.5944 17.9064 94.403L20.8343 95.0567ZM17.4225 100.563C17.4847 101.389 18.2049 102.008 19.031 101.946C19.857 101.884 20.4762 101.164 20.414 100.337L17.4225 100.563ZM21.7926 105.191C21.3801 104.473 20.4633 104.225 19.7449 104.637C19.0265 105.05 18.7785 105.966 19.191 106.685L21.7926 105.191ZM24.2836 111.489C25.0038 111.898 25.9195 111.646 26.3288 110.926C26.7381 110.205 26.486 109.29 25.7657 108.88L24.2836 111.489ZM31.5538 110.481C30.7257 110.456 30.0344 111.107 30.0097 111.936C29.985 112.764 30.6362 113.455 31.4643 113.48L31.5538 110.481ZM38.6659 112.298C39.45 112.031 39.8689 111.179 39.6016 110.395C39.3342 109.61 38.4818 109.192 37.6977 109.459L38.6659 112.298ZM43.515 106.661C42.8091 107.094 42.5884 108.018 43.022 108.724C43.4556 109.43 44.3794 109.651 45.0853 109.217L43.515 106.661ZM50.7567 105.068C51.3872 104.531 51.4628 103.584 50.9254 102.953C50.3881 102.323 49.4413 102.247 48.8108 102.785L50.7567 105.068ZM53.5287 98.1797C52.9765 98.7973 53.0295 99.7456 53.647 100.298C54.2646 100.85 55.2129 100.797 55.7651 100.179L53.5287 98.1797ZM59.8292 95.0526C60.3219 94.3866 60.1815 93.4473 59.5155 92.9546C58.8495 92.4619 57.9102 92.6023 57.4175 93.2683L59.8292 95.0526ZM60.8868 88.4126C60.4169 89.0948 60.589 90.0288 61.2713 90.4988C61.9535 90.9687 62.8876 90.7965 63.3575 90.1143L60.8868 88.4126ZM66.7096 85.0484C67.1533 84.3488 66.9459 83.422 66.2463 82.9782C65.5468 82.5345 64.6199 82.7419 64.1762 83.4415L66.7096 85.0484ZM67.2593 78.3486C66.8458 79.0664 67.0925 79.9836 67.8104 80.3971C68.5282 80.8106 69.4454 80.5639 69.8589 79.846L67.2593 78.3486ZM72.7733 74.499C73.1517 73.7621 72.8612 72.8579 72.1243 72.4794C71.3874 72.1009 70.4832 72.3915 70.1047 73.1284L72.7733 74.499ZM72.6745 67.7781C72.3368 68.5345 72.6762 69.4215 73.4327 69.7593C74.1892 70.097 75.0762 69.7576 75.4139 69.0011L72.6745 67.7781ZM77.7344 63.349C78.0247 62.5731 77.6309 61.7088 76.855 61.4186C76.0791 61.1284 75.2148 61.5221 74.9246 62.298L77.7344 63.349ZM76.8033 56.6938C76.5684 57.4882 77.022 58.3227 77.8164 58.5576C78.6109 58.7924 79.4453 58.3388 79.6802 57.5444L76.8033 56.6938ZM81.1885 51.5965C81.3592 50.7859 80.8405 49.9903 80.0299 49.8195C79.2192 49.6488 78.4237 50.1675 78.2529 50.9781L81.1885 51.5965ZM79.2108 45.1753C79.1134 45.998 79.7013 46.7439 80.524 46.8413C81.3467 46.9387 82.0926 46.3508 82.19 45.5281L79.2108 45.1753ZM82.6065 39.4101C82.6196 38.5817 81.9587 37.8996 81.1304 37.8865C80.3021 37.8734 79.6199 38.5343 79.6068 39.3626L82.6065 39.4101ZM79.4234 33.553C79.4875 34.379 80.209 34.9966 81.0349 34.9325C81.8609 34.8684 82.4785 34.1468 82.4144 33.3209L79.4234 33.553ZM81.6641 27.2743C81.5234 26.4579 80.7476 25.9101 79.9312 26.0508C79.1148 26.1915 78.567 26.9673 78.7077 27.7837L81.6641 27.2743ZM77.4302 22.1358C77.6574 22.9324 78.4874 23.3941 79.284 23.1669C80.0807 22.9398 80.5424 22.1098 80.3152 21.3131L77.4302 22.1358ZM78.2476 15.5171C77.9146 14.7585 77.0297 14.4135 76.2712 14.7464C75.5126 15.0794 75.1676 15.9643 75.5005 16.7228L78.2476 15.5171ZM72.7794 11.7495C73.246 12.434 74.1792 12.6106 74.8637 12.144C75.5482 11.6773 75.7248 10.7441 75.2582 10.0596L72.7794 11.7495ZM71.0895 5.30946C70.4646 4.76558 69.5171 4.83125 68.9733 5.45614C68.4294 6.08103 68.495 7.02851 69.1199 7.57239L71.0895 5.30946ZM64.5017 4.68464C65.2667 5.00253 66.1446 4.64007 66.4625 3.87506C66.7804 3.11006 66.4179 2.23219 65.6529 1.9143L64.5017 4.68464ZM2.27174 205.786C3.05906 205.314 3.83795 204.7 4.58355 204.068L2.64211 201.78C1.93551 202.38 1.30398 202.868 0.728256 203.214L2.27174 205.786ZM8.53306 200.67C9.21339 200.143 9.87012 199.699 10.5086 199.368L9.12761 196.705C8.27365 197.147 7.46033 197.706 6.69723 198.297L8.53306 200.67ZM10.5086 199.368C11.6928 198.754 12.7954 198.083 13.8416 197.372L12.1549 194.891C11.1947 195.544 10.1941 196.152 9.12761 196.705L10.5086 199.368ZM19.778 192.626C20.7059 191.808 21.6073 191.001 22.5527 190.177L20.5823 187.915C19.6314 188.743 18.6958 189.581 17.7946 190.375L19.778 192.626ZM22.5527 190.177C23.259 189.562 23.9674 188.94 24.6758 188.312L22.6847 186.068C21.9842 186.689 21.2829 187.305 20.5823 187.915L22.5527 190.177ZM28.8667 184.499C30.2433 183.21 31.6071 181.891 32.9437 180.54L30.8114 178.43C29.5054 179.75 28.1695 181.042 26.8162 182.309L28.8667 184.499ZM36.855 176.394C38.1277 174.972 39.3601 173.514 40.5377 172.017L38.18 170.162C37.0457 171.604 35.8547 173.013 34.6196 174.393L36.855 176.394ZM43.9149 167.374C44.4483 166.575 44.964 165.765 45.4601 164.943L42.8924 163.392C42.4205 164.173 41.929 164.945 41.4196 165.708L43.9149 167.374ZM45.4601 164.943C45.978 164.086 46.4841 163.222 46.9776 162.352L44.3677 160.872C43.8882 161.718 43.3962 162.558 42.8924 163.392L45.4601 164.943ZM49.7874 157.037C50.6724 155.232 51.5 153.403 52.2635 151.549L49.4896 150.406C48.752 152.197 47.9515 153.967 47.094 155.715L49.7874 157.037ZM54.3621 145.897C54.9941 143.985 55.5547 142.051 56.0371 140.096L53.1244 139.377C52.6613 141.255 52.1224 143.114 51.5138 144.955L54.3621 145.897ZM57.2425 134.171C57.5602 132.185 57.794 130.18 57.9371 128.157L54.9446 127.945C54.8078 129.878 54.5844 131.795 54.2802 133.697L57.2425 134.171ZM58.0894 122.1C58.0686 121.095 58.0245 120.085 57.9564 119.072L54.9631 119.273C55.0281 120.24 55.0702 121.203 55.0901 122.163L58.0894 122.1ZM57.9564 119.072C57.877 117.891 57.7788 116.726 57.6563 115.577L54.6732 115.895C54.791 117 54.886 118.126 54.9631 119.273L57.9564 119.072ZM56.5238 108.596C55.9907 106.262 55.2906 103.993 54.3667 101.782L51.5988 102.939C52.4483 104.972 53.0991 107.075 53.5991 109.264L56.5238 108.596ZM50.9569 95.4593C50.2999 94.4867 49.5842 93.5283 48.8049 92.5833L46.4905 94.4921C47.2097 95.3642 47.868 96.246 48.4709 97.1386L50.9569 95.4593ZM48.8049 92.5833C48.3373 92.0164 47.8099 91.3769 47.2362 90.6999L44.9476 92.6396C45.5066 93.2991 46.0218 93.9238 46.4905 94.4921L48.8049 92.5833ZM43.897 87.0095C42.7285 85.8202 41.4566 84.6453 40.1186 83.6217L38.2958 86.0044C39.4891 86.9172 40.6539 87.9892 41.757 89.112L43.897 87.0095ZM35.534 80.9769C34.6421 80.645 33.7179 80.4166 32.7739 80.3379L32.5248 83.3276C33.1518 83.3798 33.8068 83.5351 34.4876 83.7885L35.534 80.9769ZM32.7739 80.3379C31.6273 80.2424 30.5175 80.3263 29.4558 80.5664L30.1174 83.4925C30.8838 83.3192 31.6865 83.2577 32.5248 83.3276L32.7739 80.3379ZM23.7788 83.6582C22.2765 85.0427 21.0149 86.7602 20.0217 88.6372L22.6733 90.0403C23.5336 88.4146 24.5979 86.983 25.8118 85.8644L23.7788 83.6582ZM17.9064 94.403C17.4497 96.4484 17.2707 98.5497 17.4225 100.563L20.414 100.337C20.2868 98.6496 20.4349 96.8456 20.8343 95.0567L17.9064 94.403ZM19.191 106.685C19.7439 107.648 20.4333 108.529 21.2706 109.29L23.2886 107.07C22.6996 106.535 22.2019 105.904 21.7926 105.191L19.191 106.685ZM21.2706 109.29C22.2349 110.167 23.2416 110.897 24.2836 111.489L25.7657 108.88C24.9244 108.402 24.0964 107.804 23.2886 107.07L21.2706 109.29ZM31.4643 113.48C33.8849 113.552 36.3138 113.1 38.6659 112.298L37.6977 109.459C35.6108 110.171 33.5437 110.54 31.5538 110.481L31.4643 113.48ZM45.0853 109.217C47.0859 107.988 48.9945 106.57 50.7567 105.068L48.8108 102.785C47.1503 104.2 45.3665 105.523 43.515 106.661L45.0853 109.217ZM55.7651 100.179C56.5798 99.2682 57.331 98.3603 58.0076 97.4748L55.6239 95.6533C54.9964 96.4744 54.2947 97.323 53.5287 98.1797L55.7651 100.179ZM58.0076 97.4748C58.617 96.6773 59.2247 95.8697 59.8292 95.0526L57.4175 93.2683C56.8225 94.0726 56.2242 94.8677 55.6239 95.6533L58.0076 97.4748ZM63.3575 90.1143C64.4983 88.458 65.6187 86.7683 66.7096 85.0484L64.1762 83.4415C63.1069 85.1274 62.0075 86.7855 60.8868 88.4126L63.3575 90.1143ZM69.8589 79.846C70.8705 78.0898 71.845 76.3064 72.7733 74.499L70.1047 73.1284C69.1997 74.8904 68.2485 76.6314 67.2593 78.3486L69.8589 79.846ZM75.4139 69.0011C76.2458 67.138 77.0223 65.2529 77.7344 63.349L74.9246 62.298C74.2355 64.1403 73.4827 65.968 72.6745 67.7781L75.4139 69.0011ZM79.6802 57.5444C80.2617 55.5775 80.7677 53.5938 81.1885 51.5965L78.2529 50.9781C77.8495 52.8928 77.3635 54.799 76.8033 56.6938L79.6802 57.5444ZM82.19 45.5281C82.3108 44.5081 82.4074 43.4853 82.4786 42.4604L79.4858 42.2525C79.4181 43.2279 79.326 44.2023 79.2108 45.1753L82.19 45.5281ZM82.4786 42.4604C82.5464 41.4836 82.5898 40.4636 82.6065 39.4101L79.6068 39.3626C79.591 40.3648 79.5498 41.3313 79.4858 42.2525L82.4786 42.4604ZM82.4144 33.3209C82.2608 31.3426 82.015 29.3106 81.6641 27.2743L78.7077 27.7837C79.0418 29.7229 79.2766 31.6621 79.4234 33.553L82.4144 33.3209ZM80.3152 21.3131C79.749 19.3274 79.0646 17.3785 78.2476 15.5171L75.5005 16.7228C76.2563 18.4446 76.8964 20.2637 77.4302 22.1358L80.3152 21.3131ZM75.2582 10.0596C74.0555 8.29553 72.6728 6.68751 71.0895 5.30946L69.1199 7.57239C70.4841 8.75966 71.7008 10.1674 72.7794 11.7495L75.2582 10.0596ZM65.6529 1.9143C64.6781 1.50924 63.6559 1.17861 62.5852 0.929613L61.9057 3.85164C62.8153 4.06317 63.6798 4.34308 64.5017 4.68464L65.6529 1.9143Z" fill="#3D405B"/>
</svg>
