<svg width="29" height="29" viewBox="0 0 29 29" fill="none" xmlns="http://www.w3.org/2000/svg">
<path d="M7.29531 21.9767C7.06875 21.9313 6.8875 21.886 6.66094 21.7954C6.43437 21.7048 6.25312 21.6595 6.07187 21.5688C5.66406 21.3876 5.30156 21.161 4.93906 20.8892C4.21406 20.3907 3.625 19.711 3.17188 18.8954C2.71875 18.1251 2.44688 17.2188 2.40156 16.3579C2.35625 15.9048 2.40156 15.497 2.44688 15.0438C2.49219 14.8173 2.5375 14.636 2.58281 14.4095C2.62812 14.1829 2.71875 14.0017 2.76406 13.7751L2.80937 14.4095C2.80937 14.636 2.85469 14.8173 2.9 15.0438C2.94531 15.4517 3.03594 15.8595 3.12656 16.222C3.30781 16.9923 3.57969 17.7173 3.9875 18.397C4.39531 19.0767 4.84844 19.711 5.4375 20.3001C5.70937 20.572 6.02656 20.8438 6.34375 21.1157C6.47969 21.2517 6.66094 21.3876 6.84219 21.5235L7.29531 21.9767ZM7.15938 23.6079C7.02344 23.6985 6.84219 23.7438 6.66094 23.7892C6.47969 23.8345 6.34375 23.8798 6.1625 23.8798C5.84531 23.9251 5.48281 23.9704 5.12031 23.9251C4.44063 23.8798 3.71563 23.6985 3.12656 23.3813C2.49219 23.0642 1.94844 22.5657 1.58594 21.9767C1.40469 21.7048 1.22344 21.3876 1.0875 21.0704C1.04219 20.9345 0.996875 20.7532 0.951562 20.572C0.951562 20.436 0.90625 20.3001 0.90625 20.1188C1.04219 20.2548 1.13281 20.3907 1.22344 20.4813C1.35938 20.6173 1.45 20.7532 1.54063 20.8438C1.76719 21.0704 1.94844 21.297 2.175 21.4782C2.62813 21.886 3.08125 22.2485 3.625 22.5204C4.12344 22.7923 4.7125 23.0188 5.25625 23.2001C5.52813 23.2907 5.84531 23.336 6.1625 23.4267C6.29844 23.472 6.47969 23.472 6.61563 23.5173C6.84219 23.5626 6.97813 23.5626 7.15938 23.6079ZM17.4 1.58604C17.6266 1.63135 17.8078 1.72197 18.0344 1.8126C18.2609 1.90322 18.4422 1.99385 18.6234 2.08447C19.0312 2.31104 19.3937 2.5376 19.7562 2.80947C20.4812 3.35322 21.0703 4.07822 21.4781 4.89385C21.8859 5.70947 22.1125 6.61572 22.1125 7.47666C22.1125 7.92978 22.0672 8.3376 21.9766 8.79072C21.9312 9.01728 21.8859 9.19853 21.7953 9.4251C21.7047 9.65166 21.6594 9.83291 21.5687 10.0142L21.5234 9.37979C21.5234 9.15322 21.5234 8.97197 21.4781 8.74541L21.3422 7.52197C21.2062 6.75166 20.9344 5.98135 20.5719 5.25635C20.2094 4.53135 19.7563 3.89697 19.2125 3.30791C18.9406 2.99072 18.6234 2.71885 18.3516 2.40166C18.2156 2.26572 18.0344 2.12979 17.8531 1.99385L17.4 1.58604ZM21.3422 1.40479C21.5234 1.4501 21.6594 1.49541 21.7953 1.58604C21.9312 1.63135 22.1125 1.72197 22.2484 1.8126C22.5203 1.99385 22.7922 2.1751 23.0641 2.40166C23.5625 2.85479 23.9703 3.39854 24.1969 4.03291C24.4688 4.66728 24.5594 5.34697 24.4688 6.02666C24.4234 6.34385 24.3328 6.66103 24.2422 6.97822C24.1969 7.11416 24.1062 7.29541 24.0609 7.43135C23.9703 7.56728 23.925 7.70322 23.7891 7.83916V6.93291C23.7891 6.61572 23.7438 6.34385 23.7438 6.07197C23.6531 5.48291 23.5625 4.93916 23.3359 4.44072C23.1094 3.89697 22.8375 3.44385 22.5203 2.94541C22.3391 2.71885 22.1578 2.44697 21.9766 2.22041C21.8859 2.08447 21.7953 1.99385 21.6594 1.85791C21.5688 1.63135 21.4328 1.49541 21.3422 1.40479Z" fill="#42ADE2"/>
<path d="M4.53135 8.1563C3.6251 8.56412 3.30791 9.65162 3.71572 10.5579L9.4251 22.4751L12.597 20.9797L6.8876 9.01724C6.47979 8.11099 5.4376 7.70318 4.53135 8.1563ZM19.5298 17.6266L22.8829 16.0407L16.3579 2.44693C15.9048 1.54068 14.8173 1.13287 13.8657 1.58599C12.9595 2.03912 12.5517 3.12662 13.0048 4.07818L19.5298 17.6266Z" fill="#FFDD67"/>
<path d="M13.911 1.54058C13.8204 1.58589 13.7298 1.63121 13.6392 1.72183C14.5001 1.49527 15.4063 1.90308 15.8142 2.71871L22.3392 16.3125L22.9282 16.0406L16.4032 2.44683C15.9501 1.49527 14.8626 1.08746 13.911 1.54058Z" fill="#8D5D26"/>
<path d="M12.597 20.9343L16.0861 19.2578L9.42515 5.39214C8.97203 4.44057 7.7939 3.98745 6.84234 4.44057C5.89078 4.8937 5.48296 6.07182 5.93609 7.02339L12.597 20.9343Z" fill="#FFDD67"/>
<path d="M6.84219 4.48591C6.75156 4.53123 6.66094 4.57654 6.57031 4.66717C7.43125 4.4406 8.42813 4.84842 8.83594 5.70935L12.9594 14.364L13.9562 14.9531L9.425 5.43748C8.97187 4.4406 7.83906 4.03279 6.84219 4.48591Z" fill="#8D5D26"/>
<path d="M15.5423 18.1704L19.0314 16.4938L12.3705 2.62817C11.9173 1.67661 10.7392 1.22348 9.78765 1.72192C8.83609 2.17504 8.42828 3.35317 8.8814 4.30473L15.5423 18.1704Z" fill="#FFDD67"/>
<path d="M9.7874 1.67659C9.69678 1.7219 9.60615 1.81253 9.51553 1.85784C10.3765 1.63128 11.3733 2.03909 11.7812 2.90003L16.4483 12.6875L17.4452 13.2766L12.3702 2.62815C11.9171 1.63128 10.739 1.22346 9.7874 1.67659ZM4.53115 8.15628C4.44053 8.20159 4.3499 8.2469 4.25928 8.33753C5.0749 8.11096 5.93584 8.51878 6.29834 9.3344L9.69678 16.4485L10.6937 17.0375L6.8874 9.06253C6.47959 8.11096 5.4374 7.70315 4.53115 8.15628Z" fill="#8D5D26"/>
<path d="M27.55 6.79683C26.3265 5.84526 24.3328 6.88745 23.3359 10.15C22.6562 12.4156 22.5656 13.0953 21.1156 13.775L20.3 12.0984C20.3 12.0984 7.4312 18.3062 7.92964 19.3031C7.92964 19.3031 9.47027 24.1062 12.0984 26.3265C15.9953 29.6796 25.1031 26.1 25.5109 17.4453C25.7375 12.4156 28.864 7.83901 27.55 6.79683Z" fill="#FFDD67"/>
<path d="M27.5499 6.79692C27.3233 6.61567 27.0515 6.52505 26.7796 6.47974C26.8249 6.52505 26.9155 6.52505 26.9608 6.57036C28.3202 7.61255 26.9155 10.0141 26.1452 12.1891C25.5108 13.911 24.9671 15.6782 25.0577 17.4C25.4202 24.9219 17.853 28.5016 13.3218 27.1422C17.7624 29 26.0093 25.4657 25.6468 17.6266C25.5562 15.9047 26.0546 14.2282 26.7343 12.4157C27.4593 10.2407 28.864 7.83911 27.5499 6.79692Z" fill="#8D5D26"/>
<path d="M21.5234 13.5938C18.714 13.9109 14.5906 17.9437 17.4906 22.3391C15.3609 17.8984 18.85 14.9078 21.0703 13.8656C21.2968 13.6844 21.5234 13.5938 21.5234 13.5938Z" fill="#8D5D26"/>
</svg>
