<svg width="22" height="18" viewBox="0 0 22 18" fill="none" xmlns="http://www.w3.org/2000/svg">
<path d="M18.5803 1.04199C18.9604 0.690513 19.4663 0.496199 19.9912 0.500056C20.5161 0.503913 21.0189 0.705639 21.3936 1.06267C21.7682 1.41969 21.9854 1.9041 21.9993 2.41367C22.0132 2.92323 21.8227 3.41811 21.468 3.79386L10.6999 16.8718C10.5147 17.0654 10.2912 17.2209 10.0428 17.3288C9.79436 17.4366 9.52608 17.4948 9.25399 17.4997C8.9819 17.5046 8.71158 17.4561 8.45921 17.3572C8.20684 17.2584 7.97759 17.1111 7.78517 16.9242L0.64422 9.98949C0.445356 9.80954 0.285853 9.59253 0.175225 9.35142C0.0645965 9.11031 0.00511014 8.85002 0.000315 8.5861C-0.00448014 8.32217 0.0455143 8.06001 0.147315 7.81526C0.249115 7.57051 0.400637 7.34817 0.59284 7.16152C0.785043 6.97487 1.01399 6.82772 1.26602 6.72886C1.51806 6.63 1.78801 6.58145 2.05979 6.58611C2.33156 6.59076 2.59959 6.64853 2.84787 6.75597C3.09616 6.8634 3.31962 7.0183 3.50492 7.21142L9.15615 12.6968L18.529 1.09965C18.5459 1.07948 18.5612 1.06022 18.5803 1.04199Z" fill="#49F2CA"/>
</svg>
