<svg width="45" height="47" viewBox="0 0 45 47" fill="none" xmlns="http://www.w3.org/2000/svg">
<g clip-path="url(#clip0_97_900)">
<path d="M3.95496 12.0956C4.23114 12.1 4.50544 12.0495 4.76188 11.9471C5.01831 11.8447 5.25176 11.6924 5.44862 11.4991C5.64549 11.3058 5.80183 11.0753 5.90855 10.8211C6.01527 10.567 6.07023 10.2941 6.07023 10.0186C6.07023 9.74298 6.01527 9.47015 5.90855 9.21598C5.80183 8.9618 5.64549 8.73135 5.44862 8.53804C5.25176 8.34474 5.01831 8.19244 4.76188 8.09003C4.50544 7.98762 4.23114 7.93713 3.95496 7.94152C2.81748 7.95871 1.9043 8.88362 1.9043 10.0186C1.9043 11.1537 2.81748 12.0786 3.95496 12.0958V12.0956ZM35.8405 10.3348C36.1161 10.3384 36.3898 10.2873 36.6455 10.1844C36.9012 10.0816 37.1339 9.92917 37.3301 9.73591C37.5263 9.54265 37.6821 9.31245 37.7884 9.05865C37.8947 8.80485 37.9494 8.53252 37.9494 8.25745C37.9493 7.98239 37.8945 7.71007 37.7882 7.4563C37.6818 7.20252 37.526 6.97236 37.3297 6.77915C37.1335 6.58594 36.9008 6.43354 36.645 6.33079C36.3893 6.22804 36.1156 6.17699 35.8399 6.1806C34.7024 6.19779 33.7894 7.12288 33.7894 8.25789C33.7896 9.39291 34.703 10.3177 35.8405 10.3347V10.3348Z" fill="#FF37AD"/>
<path d="M37.5297 37.0207C37.8059 37.0251 38.0802 36.9746 38.3366 36.8721C38.5931 36.7697 38.8265 36.6174 39.0233 36.424C39.2202 36.2307 39.3765 36.0002 39.4832 35.746C39.5899 35.4918 39.6448 35.219 39.6447 34.9434C39.6447 34.6679 39.5897 34.3951 39.483 34.1409C39.3762 33.8867 39.2198 33.6563 39.023 33.463C38.8261 33.2697 38.5926 33.1175 38.3362 33.0151C38.0797 32.9127 37.8054 32.8623 37.5292 32.8667C36.3917 32.8839 35.4787 33.809 35.4789 34.944C35.4789 36.079 36.3923 37.0037 37.5297 37.0207ZM12.4579 4.15441C12.7336 4.15799 13.0072 4.1069 13.263 4.00412C13.5187 3.90134 13.7514 3.74891 13.9476 3.55568C14.1439 3.36244 14.2996 3.13226 14.406 2.87847C14.5123 2.62469 14.5671 2.35236 14.5671 2.07729C14.5671 1.80223 14.5123 1.5299 14.406 1.27612C14.2996 1.02233 14.1439 0.792146 13.9476 0.598913C13.7514 0.40568 13.5187 0.25325 13.263 0.150469C13.0072 0.0476872 12.7336 -0.00339878 12.4579 0.000175387C11.3202 0.0175373 10.4072 0.94228 10.4072 2.07729C10.4072 3.21231 11.3204 4.13723 12.4579 4.15441Z" fill="#FCC954"/>
<path d="M24.7755 18.5791C24.5286 18.5791 24.2849 18.523 24.063 18.415C23.841 18.307 23.6467 18.15 23.4946 17.9559C23.3426 17.7617 23.2369 17.5356 23.1855 17.2947C23.1341 17.0537 23.1384 16.8042 23.1981 16.5652C23.2631 16.3053 23.3162 16.0443 23.3561 15.7839C22.8683 15.9848 22.3486 16.0978 21.8212 16.1178C20.8756 16.1537 20.0291 15.9947 19.3075 15.646C18.6004 15.308 18.0115 14.7656 17.6175 14.0892C16.8415 12.7473 16.9084 10.982 17.787 9.5918C18.6246 8.26457 20.0433 7.54624 21.5814 7.66357C22.7662 7.75599 23.8045 8.19863 24.6361 8.95817C24.7875 8.53202 24.9327 8.07552 25.0708 7.58974C25.9204 4.59822 26.2009 1.59425 26.2032 1.56392C26.2224 1.35188 26.2833 1.1457 26.3825 0.957161C26.4816 0.768619 26.617 0.601412 26.7809 0.465093C26.9448 0.328775 27.134 0.226018 27.3377 0.162694C27.5415 0.0993703 27.7557 0.0767215 27.9682 0.0960419C28.3974 0.135109 28.7935 0.342598 29.0694 0.6729C29.3453 1.0032 29.4784 1.42929 29.4395 1.85749C29.4278 1.992 29.1288 5.19484 28.1971 8.47519C27.7267 10.1316 27.1709 11.5312 26.5413 12.6487C26.5877 12.8978 26.6247 13.1534 26.6522 13.4155C26.7833 14.6801 26.6789 16.0415 26.3509 17.3517C26.2626 17.702 26.0597 18.0128 25.7744 18.2351C25.489 18.4574 25.1375 18.5784 24.7755 18.579V18.5791ZM21.2383 10.8931C21.0702 10.8931 20.7742 10.9422 20.5359 11.3192C20.3077 11.6805 20.263 12.1738 20.4325 12.4669C20.6579 12.8567 21.3209 12.8907 21.6964 12.8765C22.1225 12.8604 22.5591 12.5938 22.9863 12.108C22.915 11.9595 22.8309 11.8173 22.7349 11.6833C22.3821 11.1945 21.9356 10.9446 21.329 10.8973C21.3061 10.8959 21.2754 10.8931 21.2383 10.8931Z" fill="#2890E9"/>
<path d="M20.1026 23.021C13.3626 17.7205 6.31779 15.424 4.36767 17.892C4.18419 18.1267 4.04933 18.3955 3.97093 18.6827C3.95897 18.7176 3.9498 18.7534 3.94351 18.7897V18.7939C3.91732 18.9048 3.89781 19.0167 3.88498 19.1301L0.0691163 41.4197C-0.542075 44.9994 3.00994 47.8655 6.39144 46.5218L27.0846 38.2954C27.4495 38.1506 28.3476 37.5971 28.5933 37.2916C28.6584 37.2281 28.7194 37.1606 28.7756 37.0894C30.7254 34.621 26.842 28.3228 20.1026 23.0204V23.021Z" fill="#F0A420"/>
<path d="M28.7731 37.0904C30.7243 34.6211 26.8424 28.3217 20.1024 23.0209C13.3624 17.7199 6.31673 15.4244 4.36573 17.8937C2.41456 20.3629 6.29634 26.6623 13.0363 31.9631C19.7763 37.2642 26.822 39.5596 28.7731 37.0904Z" fill="#FCC954"/>
<path d="M27.5967 35.6524C29.1978 33.6258 25.6709 28.188 19.7188 23.5068C13.7666 18.8252 7.64311 16.6732 6.04227 18.6993C4.4409 20.7259 7.96778 26.1637 13.9199 30.8449C19.8719 35.5265 25.9956 37.679 27.5967 35.6524Z" fill="#F0A420"/>
<path d="M13.3696 43.7479C10.8512 43.7602 8.79857 42.5026 6.31057 40.5461C3.41545 38.2682 1.49275 35.542 1.34105 33.9891L0.520508 38.7815C0.900195 40.1491 2.19447 41.8826 4.07164 43.3589C5.63311 44.5872 7.20828 45.4306 8.84146 45.5476L13.3696 43.7472V43.7477V43.7479ZM10.8503 35.0494C6.02633 31.2548 2.8925 26.9003 2.98057 24.4097L2.18094 29.0799C2.24264 31.3045 4.84842 34.8994 8.55512 37.8148C11.8763 40.4272 15.3373 42.2658 17.9875 41.9121L22.4863 40.1233C18.8617 40.3732 15.0374 38.3438 10.8503 35.0496V35.0494Z" fill="#2E6AC9"/>
<path d="M20.8363 25.4381C21.112 25.4417 21.3856 25.3906 21.6414 25.2878C21.8971 25.185 22.1298 25.0326 22.3261 24.8394C22.5223 24.6461 22.6781 24.4159 22.7844 24.1622C22.8907 23.9084 22.9455 23.6361 22.9455 23.361C22.9455 23.0859 22.8907 22.8136 22.7844 22.5598C22.6781 22.306 22.5223 22.0758 22.3261 21.8826C22.1298 21.6894 21.8971 21.5369 21.6414 21.4342C21.3856 21.3314 21.112 21.2803 20.8363 21.2839C19.6988 21.3011 18.7856 22.226 18.7856 23.361C18.7856 24.496 19.6988 25.4209 20.8363 25.4381Z" fill="#2890E9"/>
<path d="M32.0647 21.3969L32.08 21.3798C32.0989 21.3595 32.1341 21.322 32.1847 21.2709C32.3424 21.1145 32.5066 20.9647 32.6769 20.822C33.3027 20.2994 33.9865 19.8504 34.7149 19.4839C36.4952 18.5851 39.146 17.8517 42.6224 18.6514C43.6671 18.8916 44.709 18.2417 44.95 17.1996C45.1908 16.1576 44.5393 15.118 43.4948 14.8777C38.9945 13.8425 35.4165 14.789 32.9617 16.0292C31.965 16.531 31.0297 17.1459 30.1743 17.8617C29.9176 18.0768 29.6704 18.303 29.4334 18.5397C29.3414 18.6319 29.2518 18.7263 29.1645 18.8229L29.1434 18.8466L29.136 18.855L29.1325 18.8589L29.1312 18.8603C29.1307 18.8611 29.1297 18.862 30.6009 20.1247L29.1296 18.862C28.4481 19.6726 28.5446 20.8788 29.3464 21.5712C30.1481 22.2635 31.3584 22.186 32.0647 21.3969ZM12.8374 7.58464C12.6926 7.35525 12.5039 7.15662 12.2821 7.00012C12.0602 6.84362 11.8096 6.73234 11.5446 6.67265C11.2795 6.61295 11.0053 6.60603 10.7376 6.65226C10.4699 6.69849 10.2139 6.79698 9.98443 6.94207C9.75476 7.08666 9.55591 7.27498 9.39922 7.49627C9.24253 7.71757 9.13109 7.96749 9.07126 8.23178C9.01143 8.49606 9.00439 8.76951 9.05053 9.03651C9.09668 9.30351 9.19511 9.55882 9.34019 9.78785C9.41525 9.90763 10.9535 12.3939 11.2696 15.7989C11.5912 19.2585 10.5724 22.4386 8.23682 25.2901C9.02326 26.2873 9.96967 27.3238 11.0507 28.3604C12.5466 26.6358 13.6721 24.7824 14.4117 22.8216C15.3213 20.4091 15.6432 17.8512 15.3688 15.2195C14.9316 11.0326 13.1058 8.00992 12.8372 7.58464H12.8374Z" fill="#FF37AD"/>
<path d="M38.7143 27.4596C39.7693 27.7319 40.515 28.0288 40.8372 28.167C41.2138 28.3976 41.6541 28.5029 42.0945 28.4676C42.5349 28.4323 42.9527 28.2582 43.2876 27.9706C43.5094 27.7794 43.6884 27.5437 43.8128 27.2788C43.9372 27.014 44.0042 26.7259 44.0095 26.4335C44.0169 25.9927 43.8837 25.561 43.629 25.2008C43.3743 24.8406 43.0114 24.5705 42.5927 24.4297C41.6052 23.9921 37.8633 22.5146 32.917 22.7771C29.5875 22.9537 26.3859 23.8737 23.4014 25.5143C20.5756 27.0681 17.9515 29.2694 15.5693 32.0777C16.7058 32.8847 17.8898 33.623 19.1148 34.2886C23.1371 29.7149 27.7779 27.2356 32.9488 26.908C34.8878 26.7905 36.8332 26.9766 38.7145 27.4596H38.7143Z" fill="#2890E9"/>
</g>
<defs>
<clipPath id="clip0_97_900">
<rect width="45" height="47" fill="white"/>
</clipPath>
</defs>
</svg>
