<svg width="21" height="20" viewBox="0 0 21 20" fill="none" xmlns="http://www.w3.org/2000/svg">
<path d="M0.389722 1.74337C0.94851 -0.342962 6.93526 -0.342959 7.69818 0.650614C8.46111 1.64419 12.6027 0.650614 14.9281 0.650614C17.2534 0.650614 18.7788 0.650614 18.7788 0.650614C18.7788 0.650614 20.3455 -1.38426 20.6648 1.74337C20.9841 4.871 21.2236 16.3184 20.6648 18.3533C20.106 20.3882 12.5229 19.9631 10.2878 19.9631C8.05272 19.9631 5.01947 19.9631 5.01947 19.9631C5.01947 19.9631 3.10368 19.9631 2.78442 19.9631C2.46515 19.9631 0.868661 19.9631 0.389722 18.3533C-0.0892171 16.7435 -0.169066 3.82971 0.389722 1.74337Z" fill="#E07A5F" fill-opacity="0.3"/>
</svg>
