<svg width="126" height="20" viewBox="0 0 126 20" fill="none" preserveAspectRatio="xMaxYMin slice" xmlns="http://www.w3.org/2000/svg">
<path d="M2.33833 1.74337C5.69106 -0.342962 41.6116 -0.342959 46.1891 0.650614C50.7666 1.64419 75.6162 0.650614 89.5684 0.650614C103.521 0.650614 112.673 0.650614 112.673 0.650614C112.673 0.650614 122.073 -1.38426 123.989 1.74337C125.904 4.871 127.342 16.3184 123.989 18.3533C120.636 20.3882 75.1372 19.9631 61.7268 19.9631C48.3163 19.9631 30.1168 19.9631 30.1168 19.9631C30.1168 19.9631 18.6221 19.9631 16.7065 19.9631C14.7909 19.9631 5.21197 19.9631 2.33833 18.3533C-0.535302 16.7435 -1.0144 3.82971 2.33833 1.74337Z" fill="#E07A5F" fill-opacity="0.3"/>
</svg>
