<svg width="229" height="305" viewBox="0 0 229 305" fill="none" xmlns="http://www.w3.org/2000/svg">
<path d="M228.813 2.02143C228.825 1.19308 228.163 0.511987 227.335 0.500153C226.507 0.48832 225.826 1.15023 225.814 1.97857L228.813 2.02143ZM139.27 262.194L138.47 260.925L139.27 262.194ZM0.93934 292.075C0.353553 292.661 0.353553 293.61 0.93934 294.196L10.4853 303.742C11.0711 304.328 12.0208 304.328 12.6066 303.742C13.1924 303.156 13.1924 302.207 12.6066 301.621L4.12132 293.135L12.6066 284.65C13.1924 284.064 13.1924 283.115 12.6066 282.529C12.0208 281.943 11.0711 281.943 10.4853 282.529L0.93934 292.075ZM4.97756 294.629C5.80598 294.625 6.4744 293.95 6.47053 293.122C6.46665 292.293 5.79194 291.625 4.96352 291.629L4.97756 294.629ZM10.8924 291.571C10.064 291.584 9.4025 292.265 9.4148 293.093C9.42711 293.922 10.1086 294.583 10.9369 294.571L10.8924 291.571ZM16.8952 294.449C17.7234 294.428 18.3772 293.739 18.3556 292.911C18.334 292.083 17.6451 291.429 16.8169 291.45L16.8952 294.449ZM22.7388 291.26C21.911 291.292 21.2658 291.989 21.2976 292.816C21.3294 293.644 22.0263 294.289 22.8542 294.258L22.7388 291.26ZM28.812 293.989C29.6393 293.946 30.2752 293.24 30.2322 292.413C30.1892 291.586 29.4837 290.95 28.6564 290.993L28.812 293.989ZM34.5673 290.643C33.7407 290.698 33.1153 291.413 33.1703 292.239C33.2254 293.066 33.9401 293.691 34.7667 293.636L34.5673 290.643ZM40.7173 293.193C41.5429 293.125 42.157 292.401 42.089 291.575C42.0209 290.75 41.2964 290.135 40.4707 290.203L40.7173 293.193ZM46.3642 289.668C45.5399 289.75 44.9382 290.485 45.0202 291.309C45.1023 292.133 45.8371 292.735 46.6615 292.653L46.3642 289.668ZM52.5974 292.008C53.4201 291.911 54.0084 291.165 53.9113 290.342C53.8142 289.52 53.0686 288.931 52.2459 289.029L52.5974 292.008ZM58.1124 288.279C57.2917 288.392 56.7181 289.149 56.8311 289.97C56.9441 290.791 57.701 291.364 58.5217 291.251L58.1124 288.279ZM64.4312 290.375C65.2494 290.245 65.8072 289.477 65.6772 288.659C65.5472 287.84 64.7786 287.283 63.9604 287.413L64.4312 290.375ZM69.7873 286.421C68.9722 286.569 68.4314 287.35 68.5794 288.165C68.7274 288.98 69.5082 289.521 70.3233 289.373L69.7873 286.421ZM76.1926 288.237C77.004 288.07 77.5265 287.277 77.3595 286.466C77.1925 285.654 76.3993 285.132 75.5879 285.299L76.1926 288.237ZM81.3575 284.038C80.5505 284.225 80.0478 285.031 80.2348 285.838C80.4217 286.645 81.2275 287.147 82.0346 286.96L81.3575 284.038ZM87.8449 285.535C88.6468 285.327 89.1283 284.508 88.9204 283.707C88.7124 282.905 87.8938 282.423 87.0919 282.631L87.8449 285.535ZM92.7843 281.072C91.9884 281.302 91.5295 282.133 91.7593 282.929C91.9891 283.725 92.8207 284.184 93.6166 283.954L92.7843 281.072ZM99.3435 282.212C100.132 281.959 100.567 281.115 100.315 280.326C100.062 279.537 99.2177 279.102 98.4287 279.355L99.3435 282.212ZM104.018 277.472C103.237 277.749 102.828 278.606 103.104 279.387C103.38 280.168 104.237 280.577 105.018 280.301L104.018 277.472ZM110.634 278.216C111.406 277.915 111.788 277.046 111.488 276.274C111.187 275.502 110.317 275.12 109.545 275.42L110.634 278.216ZM115.003 273.193C114.241 273.518 113.888 274.4 114.213 275.162C114.539 275.923 115.42 276.277 116.182 275.952L115.003 273.193ZM121.652 273.505C122.403 273.154 122.727 272.261 122.376 271.511C122.025 270.76 121.132 270.436 120.381 270.787L121.652 273.505ZM125.674 268.2C124.936 268.577 124.643 269.48 125.02 270.218C125.397 270.956 126.3 271.248 127.038 270.872L125.674 268.2ZM132.33 268.049C133.054 267.647 133.315 266.733 132.912 266.009C132.509 265.285 131.596 265.025 130.872 265.428L132.33 268.049ZM135.963 262.473C135.254 262.902 135.027 263.824 135.456 264.533C135.885 265.242 136.807 265.469 137.516 265.04L135.963 262.473ZM142.63 261.814C143.322 261.359 143.514 260.429 143.059 259.737C142.604 259.045 141.674 258.852 140.982 259.308L142.63 261.814ZM145.857 255.968C145.183 256.449 145.026 257.386 145.507 258.061C145.988 258.735 146.925 258.892 147.599 258.411L145.857 255.968ZM152.463 254.796C153.119 254.289 153.239 253.347 152.732 252.692C152.225 252.037 151.283 251.917 150.627 252.424L152.463 254.796ZM155.237 248.711C154.602 249.243 154.519 250.189 155.051 250.824C155.583 251.459 156.529 251.542 157.164 251.01L155.237 248.711ZM161.713 247.041C162.326 246.484 162.372 245.536 161.815 244.922C161.258 244.309 160.309 244.263 159.696 244.82L161.713 247.041ZM164.009 240.746C163.418 241.326 163.41 242.276 163.991 242.867C164.571 243.458 165.521 243.466 166.112 242.885L164.009 240.746ZM170.335 238.569C170.903 237.966 170.874 237.017 170.27 236.449C169.667 235.881 168.718 235.91 168.15 236.514L170.335 238.569ZM172.123 232.122C171.579 232.747 171.645 233.695 172.27 234.239C172.895 234.782 173.842 234.717 174.386 234.092L172.123 232.122ZM178.266 229.455C178.786 228.81 178.684 227.865 178.038 227.346C177.393 226.827 176.449 226.929 175.929 227.574L178.266 229.455ZM179.557 222.889C179.062 223.553 179.2 224.493 179.864 224.988C180.529 225.483 181.468 225.345 181.963 224.681L179.557 222.889ZM185.48 219.773C185.95 219.091 185.778 218.157 185.096 217.687C184.414 217.217 183.48 217.388 183.01 218.071L185.48 219.773ZM186.288 213.127C185.843 213.825 186.048 214.753 186.746 215.198C187.444 215.644 188.372 215.439 188.817 214.74L186.288 213.127ZM191.974 209.597C192.395 208.884 192.159 207.964 191.445 207.543C190.732 207.122 189.812 207.358 189.391 208.072L191.974 209.597ZM192.323 202.911C191.925 203.638 192.193 204.549 192.92 204.946C193.647 205.343 194.558 205.076 194.955 204.349L192.323 202.911ZM197.761 199.011C198.135 198.271 197.838 197.369 197.099 196.995C196.36 196.622 195.457 196.918 195.084 197.657L197.761 199.011ZM197.68 192.318C197.329 193.068 197.653 193.961 198.403 194.312C199.154 194.663 200.047 194.339 200.398 193.588L197.68 192.318ZM202.871 188.087C203.2 187.327 202.85 186.444 202.089 186.115C201.329 185.786 200.446 186.136 200.117 186.897L202.871 188.087ZM202.397 181.412C202.089 182.181 202.464 183.054 203.233 183.361C204.003 183.668 204.875 183.294 205.183 182.524L202.397 181.412ZM207.341 176.901C207.628 176.124 207.23 175.261 206.453 174.975C205.675 174.688 204.813 175.086 204.526 175.863L207.341 176.901ZM206.513 170.254C206.247 171.039 206.666 171.891 207.45 172.158C208.235 172.424 209.087 172.005 209.354 171.221L206.513 170.254ZM211.222 165.5C211.47 164.709 211.03 163.867 210.24 163.62C209.449 163.372 208.608 163.812 208.36 164.602L211.222 165.5ZM210.074 158.906C209.844 159.701 210.303 160.533 211.099 160.763C211.895 160.992 212.727 160.533 212.956 159.737L210.074 158.906ZM214.563 153.935C214.776 153.134 214.299 152.313 213.498 152.1C212.697 151.888 211.876 152.364 211.663 153.165L214.563 153.935ZM213.131 147.397C212.935 148.202 213.428 149.013 214.233 149.209C215.038 149.405 215.849 148.912 216.045 148.107L213.131 147.397ZM217.412 142.252C217.592 141.443 217.083 140.641 216.275 140.461C215.466 140.28 214.664 140.789 214.484 141.598L217.412 142.252ZM215.729 135.768C215.563 136.58 216.087 137.372 216.899 137.538C217.71 137.704 218.503 137.18 218.668 136.368L215.729 135.768ZM219.819 130.471C219.971 129.657 219.434 128.874 218.62 128.722C217.805 128.57 217.022 129.107 216.87 129.922L219.819 130.471ZM217.914 124.054C217.776 124.87 218.325 125.645 219.142 125.783C219.959 125.922 220.733 125.372 220.872 124.555L217.914 124.054ZM221.832 118.622C221.958 117.803 221.397 117.037 220.578 116.911C219.759 116.785 218.993 117.346 218.867 118.165L221.832 118.622ZM219.732 112.267C219.618 113.087 220.19 113.845 221.01 113.96C221.831 114.074 222.589 113.502 222.703 112.681L219.732 112.267ZM223.492 106.728C223.596 105.906 223.013 105.156 222.191 105.052C221.369 104.949 220.619 105.531 220.516 106.353L223.492 106.728ZM221.223 100.428C221.13 101.251 221.722 101.994 222.545 102.087C223.368 102.18 224.111 101.588 224.204 100.765L221.223 100.428ZM224.843 94.797C224.927 93.9728 224.326 93.237 223.502 93.1536C222.678 93.0702 221.942 93.6707 221.858 94.4949L224.843 94.797ZM222.427 88.5527C222.352 89.3778 222.961 90.1069 223.786 90.1813C224.611 90.2557 225.34 89.6472 225.414 88.8221L222.427 88.5527ZM225.922 82.8444C225.988 82.0186 225.372 81.2957 224.547 81.2297C223.721 81.1637 222.998 81.7796 222.932 82.6054L225.922 82.8444ZM223.379 76.6493C223.321 77.4756 223.944 78.1928 224.77 78.251C225.597 78.3092 226.314 77.6865 226.372 76.8601L223.379 76.6493ZM226.767 70.8749C226.818 70.048 226.189 69.3363 225.362 69.2853C224.536 69.2343 223.824 69.8632 223.773 70.69L226.767 70.8749ZM224.117 64.7291C224.072 65.5563 224.707 66.263 225.534 66.3074C226.361 66.3519 227.068 65.7174 227.112 64.8901L224.117 64.7291ZM227.412 58.8975C227.451 58.07 226.811 57.368 225.984 57.3295C225.156 57.291 224.454 57.9307 224.416 58.7582L227.412 58.8975ZM224.673 52.7895C224.64 53.6173 225.285 54.3151 226.112 54.3482C226.94 54.3812 227.638 53.737 227.671 52.9093L224.673 52.7895ZM227.892 46.9223C227.921 46.0944 227.272 45.4003 226.444 45.372C225.616 45.3438 224.922 45.9921 224.894 46.82L227.892 46.9223ZM225.082 40.8396C225.058 41.6677 225.71 42.3584 226.538 42.3824C227.366 42.4064 228.057 41.7546 228.081 40.9265L225.082 40.8396ZM228.241 34.9391C228.262 34.1109 227.607 33.4231 226.779 33.4027C225.95 33.3823 225.262 34.0372 225.242 34.8654L228.241 34.9391ZM225.378 28.8914C225.36 29.7196 226.018 30.4051 226.846 30.4225C227.674 30.4398 228.36 29.7824 228.377 28.9542L225.378 28.8914ZM228.493 22.9574C228.508 22.1291 227.849 21.4456 227.021 21.4307C226.192 21.4157 225.509 22.0751 225.494 22.9034L228.493 22.9574ZM225.595 16.9242C225.582 17.7526 226.243 18.4347 227.071 18.4479C227.899 18.4611 228.581 17.8003 228.595 16.9719L225.595 16.9242ZM228.685 10.9949C228.697 10.1665 228.036 9.48524 227.207 9.47315C226.379 9.46106 225.698 10.1228 225.686 10.9511L228.685 10.9949ZM225.771 4.95479C225.76 5.78313 226.422 6.46415 227.25 6.47588C228.078 6.48761 228.759 5.82561 228.771 4.99727L225.771 4.95479ZM2 294.635C2.99166 294.635 3.98422 294.633 4.97756 294.629L4.96352 291.629C3.97499 291.633 2.98712 291.635 2 291.635V294.635ZM10.9369 294.571C12.9208 294.541 14.9072 294.501 16.8952 294.449L16.8169 291.45C14.8407 291.502 12.8656 291.542 10.8924 291.571L10.9369 294.571ZM22.8542 294.258C24.8394 294.181 26.8256 294.092 28.812 293.989L28.6564 290.993C26.6839 291.095 24.7112 291.184 22.7388 291.26L22.8542 294.258ZM34.7667 293.636C36.7509 293.504 38.7347 293.357 40.7173 293.193L40.4707 290.203C38.5044 290.366 36.5364 290.512 34.5673 290.643L34.7667 293.636ZM46.6615 292.653C48.6422 292.456 50.6211 292.241 52.5974 292.008L52.2459 289.029C50.2883 289.26 48.3275 289.472 46.3642 289.668L46.6615 292.653ZM58.5217 291.251C60.4951 290.979 62.4652 290.688 64.4312 290.375L63.9604 287.413C62.0155 287.722 60.0659 288.01 58.1124 288.279L58.5217 291.251ZM70.3233 289.373C72.2847 289.017 74.2414 288.639 76.1926 288.237L75.5879 285.299C73.6603 285.696 71.7265 286.069 69.7873 286.421L70.3233 289.373ZM82.0346 286.96C83.9779 286.51 85.9149 286.035 87.8449 285.535L87.0919 282.631C85.1878 283.125 83.2761 283.593 81.3575 284.038L82.0346 286.96ZM93.6166 283.954C95.5336 283.401 97.4428 282.82 99.3435 282.212L98.4287 279.355C96.556 279.954 94.6743 280.526 92.7843 281.072L93.6166 283.954ZM105.018 280.301C106.9 279.635 108.772 278.941 110.634 278.216L109.545 275.42C107.713 276.134 105.871 276.817 104.018 277.472L105.018 280.301ZM116.182 275.952C118.016 275.168 119.84 274.353 121.652 273.505L120.381 270.787C118.6 271.621 116.807 272.422 115.003 273.193L116.182 275.952ZM127.038 270.872C128.815 269.964 130.579 269.024 132.33 268.049L130.872 265.428C129.152 266.385 127.419 267.309 125.674 268.2L127.038 270.872ZM137.516 265.04C138.37 264.523 139.222 263.997 140.07 263.462L138.47 260.925C137.637 261.449 136.802 261.965 135.963 262.473L137.516 265.04ZM140.07 263.462C140.931 262.919 141.785 262.37 142.63 261.814L140.982 259.308C140.153 259.852 139.315 260.392 138.47 260.925L140.07 263.462ZM147.599 258.411C149.255 257.23 150.876 256.025 152.463 254.796L150.627 252.424C149.071 253.629 147.481 254.81 145.857 255.968L147.599 258.411ZM157.164 251.01C158.714 249.71 160.23 248.387 161.713 247.041L159.696 244.82C158.242 246.139 156.756 247.437 155.237 248.711L157.164 251.01ZM166.112 242.885C167.553 241.469 168.96 240.03 170.335 238.569L168.15 236.514C166.802 237.946 165.422 239.357 164.009 240.746L166.112 242.885ZM174.386 234.092C175.712 232.568 177.005 231.022 178.266 229.455L175.929 227.574C174.692 229.111 173.424 230.628 172.123 232.122L174.386 234.092ZM181.963 224.681C183.167 223.065 184.339 221.429 185.48 219.773L183.01 218.071C181.889 219.696 180.739 221.303 179.557 222.889L181.963 224.681ZM188.817 214.74C189.899 213.044 190.951 211.329 191.974 209.597L189.391 208.072C188.385 209.775 187.351 211.46 186.288 213.127L188.817 214.74ZM194.955 204.349C195.918 202.586 196.853 200.806 197.761 199.011L195.084 197.657C194.19 199.425 193.27 201.176 192.323 202.911L194.955 204.349ZM200.398 193.588C201.248 191.769 202.072 189.935 202.871 188.087L200.117 186.897C199.33 188.719 198.518 190.526 197.68 192.318L200.398 193.588ZM205.183 182.524C205.926 180.663 206.645 178.788 207.341 176.901L204.526 175.863C203.84 177.726 203.13 179.575 202.397 181.412L205.183 182.524ZM209.354 171.221C209.999 169.324 210.621 167.417 211.222 165.5L208.36 164.602C207.766 166.497 207.15 168.382 206.513 170.254L209.354 171.221ZM212.956 159.737C213.512 157.812 214.047 155.878 214.563 153.935L211.663 153.165C211.153 155.088 210.624 157.002 210.074 158.906L212.956 159.737ZM216.045 148.107C216.519 146.163 216.974 144.211 217.412 142.252L214.484 141.598C214.05 143.539 213.6 145.472 213.131 147.397L216.045 148.107ZM218.668 136.368C219.069 134.409 219.452 132.443 219.819 130.471L216.87 129.922C216.506 131.877 216.126 133.826 215.729 135.768L218.668 136.368ZM220.872 124.555C221.207 122.582 221.527 120.604 221.832 118.622L218.867 118.165C218.564 120.133 218.247 122.096 217.914 124.054L220.872 124.555ZM222.703 112.681C222.98 110.7 223.242 108.715 223.492 106.728L220.516 106.353C220.268 108.327 220.006 110.299 219.732 112.267L222.703 112.681ZM224.204 100.765C224.429 98.7771 224.642 96.7875 224.843 94.797L221.858 94.4949C221.658 96.4742 221.447 98.4521 221.223 100.428L224.204 100.765ZM225.414 88.8221C225.594 86.8296 225.763 84.8368 225.922 82.8444L222.932 82.6054C222.773 84.588 222.605 86.5707 222.427 88.5527L225.414 88.8221ZM226.372 76.8601C226.513 74.8636 226.644 72.8683 226.767 70.8749L223.773 70.69C223.65 72.6751 223.519 74.6618 223.379 76.6493L226.372 76.8601ZM227.112 64.8901C227.22 62.8896 227.32 60.8919 227.412 58.8975L224.416 58.7582C224.323 60.7457 224.224 62.7362 224.117 64.7291L227.112 64.8901ZM227.671 52.9093C227.751 50.9091 227.824 48.9132 227.892 46.9223L224.894 46.82C224.826 48.8055 224.753 50.7955 224.673 52.7895L227.671 52.9093ZM228.081 40.9265C228.139 38.9246 228.192 36.9285 228.241 34.9391L225.242 34.8654C225.193 36.8507 225.14 38.8424 225.082 40.8396L228.081 40.9265ZM228.377 28.9542C228.419 26.9473 228.458 24.9481 228.493 22.9574L225.494 22.9034C225.458 24.8915 225.42 26.8878 225.378 28.8914L228.377 28.9542ZM228.595 16.9719C228.626 14.9696 228.656 12.977 228.685 10.9949L225.686 10.9511C225.657 12.9323 225.627 14.9236 225.595 16.9242L228.595 16.9719ZM228.771 4.99727C228.785 4.00232 228.799 3.01036 228.813 2.02143L225.814 1.97857C225.8 2.96772 225.786 3.95986 225.771 4.95479L228.771 4.99727Z" fill="#3D405B"/>
</svg>
