<svg width="492" height="351" viewBox="0 0 492 351" fill="none" xmlns="http://www.w3.org/2000/svg">
<path d="M134.318 3.49813C135.145 3.45676 135.783 2.75249 135.741 1.92509C135.7 1.0977 134.996 0.460502 134.168 0.501871L134.318 3.49813ZM23.6651 179.832L24.7094 178.755L23.6651 179.832ZM77.5687 195.574L77.4008 194.084L77.5687 195.574ZM116.611 165.726L115.367 164.887L115.367 164.887L116.611 165.726ZM106.788 125.298L106.058 126.609L106.058 126.609L106.788 125.298ZM49.7983 121.646L49.1981 120.271L49.7983 121.646ZM5.15152 164.215L3.74019 163.707L3.74019 163.707L5.15152 164.215ZM18.8793 230.461L20.1063 229.598L18.8793 230.461ZM86.1958 264.906L86.4157 263.422L86.1958 264.906ZM175.049 260.687L174.694 259.229L175.049 260.687ZM258.423 249.667L258.346 248.169L258.423 249.667ZM364.845 260.435L364.434 261.878L364.845 260.435ZM402.25 275.674L401.606 277.029L402.25 275.674ZM431.28 291.669L432.19 290.476L431.28 291.669ZM487.679 350.332C488.499 350.449 489.259 349.879 489.376 349.059L491.285 335.695C491.402 334.875 490.833 334.115 490.012 333.998C489.192 333.881 488.433 334.45 488.315 335.271L486.618 347.15L474.739 345.453C473.919 345.336 473.159 345.906 473.042 346.726C472.925 347.546 473.495 348.306 474.315 348.423L487.679 350.332ZM131.299 0.676729C130.473 0.736058 129.851 1.454 129.91 2.2803C129.97 3.1066 130.688 3.72835 131.514 3.66903L131.299 0.676729ZM125.917 4.18937C126.74 4.09566 127.331 3.35244 127.238 2.52933C127.144 1.70622 126.401 1.11492 125.577 1.20862L125.917 4.18937ZM119.884 1.97248C119.065 2.09882 118.504 2.86496 118.63 3.6837C118.757 4.50243 119.523 5.06373 120.342 4.93739L119.884 1.97248ZM114.797 5.90266C115.61 5.74507 116.142 4.95801 115.984 4.14471C115.826 3.33141 115.039 2.79985 114.226 2.95744L114.797 5.90266ZM108.61 4.15487C107.803 4.34261 107.301 5.1489 107.489 5.95577C107.677 6.76265 108.483 7.26455 109.29 7.07681L108.61 4.15487ZM103.83 8.45291C104.63 8.23586 105.102 7.41179 104.885 6.6123C104.668 5.81282 103.844 5.34065 103.044 5.5577L103.83 8.45291ZM97.5338 7.1611C96.7427 7.40685 96.3005 8.24741 96.5463 9.03855C96.792 9.82969 97.6326 10.2718 98.4237 10.0261L97.5338 7.1611ZM93.0766 11.7931C93.8584 11.5191 94.27 10.6631 93.9959 9.88136C93.7218 9.09957 92.8659 8.68798 92.0841 8.96204L93.0766 11.7931ZM86.7027 10.9584C85.9313 11.2606 85.551 12.1309 85.8532 12.9022C86.1553 13.6736 87.0256 14.0539 87.7969 13.7518L86.7027 10.9584ZM82.593 15.9009C83.3527 15.5706 83.7009 14.687 83.3707 13.9273C83.0404 13.1675 82.1568 12.8193 81.3971 13.1496L82.593 15.9009ZM76.1748 15.5363C75.428 15.8948 75.1131 16.7908 75.4716 17.5377C75.83 18.2845 76.7261 18.5994 77.4729 18.2409L76.1748 15.5363ZM72.447 20.7727C73.1795 20.3858 73.4596 19.4783 73.0726 18.7458C72.6857 18.0133 71.7782 17.7331 71.0457 18.1201L72.447 20.7727ZM66.0205 20.9034C65.304 21.3193 65.0603 22.2372 65.4762 22.9537C65.892 23.6702 66.81 23.9139 67.5265 23.4981L66.0205 20.9034ZM62.7226 26.4204C63.4212 25.9751 63.6265 25.0478 63.1812 24.3493C62.736 23.6507 61.8087 23.4454 61.1101 23.8906L62.7226 26.4204ZM56.3281 27.0863C55.6497 27.5616 55.485 28.497 55.9603 29.1755C56.4357 29.854 57.371 30.0187 58.0495 29.5433L56.3281 27.0863ZM53.5244 32.8699C54.1803 32.3638 54.3018 31.4219 53.7957 30.766C53.2896 30.1101 52.3477 29.9887 51.6918 30.4948L53.5244 32.8699ZM47.2195 34.1213C46.5892 34.6588 46.5138 35.6055 47.0513 36.2359C47.5888 36.8663 48.5356 36.9416 49.166 36.4041L47.2195 34.1213ZM44.9952 40.1498C45.5968 39.5803 45.6227 38.6309 45.0532 38.0293C44.4836 37.4277 43.5342 37.4017 42.9327 37.9713L44.9952 40.1498ZM38.6098 42.2939C38.0386 42.8939 38.0619 43.8433 38.6619 44.4146C39.2618 44.9858 40.2113 44.9625 40.7825 44.3626L38.6098 42.2939ZM36.5494 49.0374C37.0898 48.4095 37.0188 47.4624 36.3908 46.9221C35.7629 46.3817 34.8158 46.4527 34.2754 47.0807L36.5494 49.0374ZM30.1883 52.0849C29.681 52.7399 29.8007 53.682 30.4556 54.1893C31.1106 54.6966 32.0527 54.5769 32.56 53.922L30.1883 52.0849ZM28.8303 59.0048C29.3028 58.3244 29.1344 57.3897 28.454 56.9171C27.7735 56.4446 26.8389 56.613 26.3663 57.2934L28.8303 59.0048ZM22.8195 62.6929C22.3827 63.3968 22.5992 64.3215 23.3031 64.7584C24.0069 65.1952 24.9317 64.9788 25.3685 64.2749L22.8195 62.6929ZM22.1793 69.7168C22.5801 68.9918 22.3173 68.0791 21.5923 67.6783C20.8673 67.2775 19.9546 67.5403 19.5538 68.2654L22.1793 69.7168ZM16.5695 73.9898C16.2043 74.7334 16.5111 75.6322 17.2547 75.9974C17.9983 76.3626 18.8971 76.0558 19.2623 75.3122L16.5695 73.9898ZM16.6111 81.0432C16.9417 80.2837 16.594 79.3999 15.8344 79.0692C15.0748 78.7386 14.191 79.0863 13.8604 79.8459L16.6111 81.0432ZM11.416 85.8119C11.1182 86.5849 11.5035 87.453 12.2765 87.7508C13.0496 88.0486 13.9177 87.6633 14.2155 86.8902L11.416 85.8119ZM12.0611 92.8355C12.3282 92.0513 11.9089 91.1991 11.1247 90.9321C10.3405 90.6651 9.48827 91.0843 9.22125 91.8685L12.0611 92.8355ZM7.25776 98.0001C7.0191 98.7934 7.46873 99.6299 8.26204 99.8686C9.05534 100.107 9.89191 99.6576 10.1306 98.8643L7.25776 98.0001ZM8.40603 104.959C8.61889 104.159 8.14241 103.337 7.3418 103.124C6.54118 102.911 5.7196 103.388 5.50675 104.188L8.40603 104.959ZM4.05328 110.052C3.87291 110.861 4.38216 111.663 5.19071 111.843C5.99927 112.023 6.80095 111.514 6.98131 110.705L4.05328 110.052ZM5.92864 116.097C6.06509 115.28 5.51331 114.507 4.69619 114.37C3.87908 114.234 3.10607 114.786 2.96962 115.603L5.92864 116.097ZM2.19839 121.211C2.10981 122.035 2.70573 122.774 3.52941 122.863C4.35309 122.951 5.09262 122.355 5.18119 121.532L2.19839 121.211ZM4.7651 126.993C4.80165 126.166 4.16036 125.465 3.33274 125.429C2.50512 125.392 1.80457 126.033 1.76802 126.861L4.7651 126.993ZM1.70786 132.535C1.72753 133.363 2.41485 134.018 3.24304 133.999C4.07124 133.979 4.72668 133.292 4.70702 132.463L1.70786 132.535ZM5.0332 137.918C4.95334 137.093 4.22015 136.49 3.39558 136.569C2.57102 136.649 1.96731 137.382 2.04717 138.207L5.0332 137.918ZM2.81232 143.843C2.95577 144.659 3.73349 145.204 4.5494 145.061C5.36531 144.918 5.91045 144.14 5.767 143.324L2.81232 143.843ZM6.92715 148.648C6.71765 147.847 5.89807 147.367 5.09657 147.577C4.29507 147.786 3.81516 148.606 4.02466 149.407L6.92715 148.648ZM5.69721 154.855C5.97387 155.636 6.83116 156.045 7.61202 155.768C8.39289 155.491 8.80163 154.634 8.52497 153.853L5.69721 154.855ZM10.5626 158.9C10.2194 158.146 9.32987 157.813 8.57592 158.156C7.82196 158.499 7.48905 159.389 7.83233 160.143L10.5626 158.9ZM10.4191 165.224C10.8267 165.945 11.7418 166.2 12.463 165.792C13.1842 165.384 13.4384 164.469 13.0309 163.748L10.4191 165.224ZM15.9101 168.366C15.4421 167.682 14.5086 167.508 13.825 167.976C13.1414 168.444 12.9666 169.377 13.4346 170.061L15.9101 168.366ZM16.847 174.623C17.3702 175.265 18.315 175.362 18.9574 174.839C19.5997 174.315 19.6962 173.371 19.1731 172.728L16.847 174.623ZM22.7849 176.817C22.2124 176.218 21.2629 176.197 20.6641 176.769C20.0652 177.341 20.0438 178.291 20.6163 178.89L22.7849 176.817ZM24.878 182.899C25.5229 183.419 26.4673 183.318 26.9873 182.673C27.5073 182.028 27.406 181.084 26.7611 180.564L24.878 182.899ZM31.3163 183.719C30.6065 183.292 29.6848 183.521 29.2577 184.231C28.8306 184.941 29.0598 185.863 29.7696 186.29L31.3163 183.719ZM34.9753 189.065C35.724 189.419 36.6184 189.1 36.9729 188.351C37.3275 187.602 37.0079 186.708 36.2592 186.353L34.9753 189.065ZM41.4448 188.556C40.6706 188.261 39.8041 188.65 39.5093 189.424C39.2145 190.198 39.6031 191.065 40.3773 191.36L41.4448 188.556ZM45.914 193.255C46.7061 193.498 47.5449 193.052 47.7875 192.26C48.0301 191.468 47.5846 190.629 46.7925 190.387L45.914 193.255ZM52.254 191.878C51.4486 191.684 50.6384 192.179 50.4443 192.984C50.2503 193.79 50.7458 194.6 51.5512 194.794L52.254 191.878ZM57.2682 195.994C58.0837 196.14 58.8631 195.597 59.009 194.782C59.155 193.966 58.6122 193.187 57.7968 193.041L57.2682 195.994ZM63.3949 193.866C62.5719 193.771 61.828 194.361 61.7333 195.184C61.6386 196.007 62.229 196.751 63.052 196.846L63.3949 193.866ZM68.8928 197.312C69.7205 197.347 70.42 196.705 70.4552 195.877C70.4903 195.05 69.8479 194.35 69.0202 194.315L68.8928 197.312ZM74.6297 194.307C73.8023 194.348 73.1656 195.053 73.2074 195.88C73.2493 196.708 73.954 197.345 74.7814 197.303L74.6297 194.307ZM81.0133 196.5C81.8206 196.314 82.324 195.509 82.1379 194.702C81.9517 193.895 81.1464 193.391 80.3391 193.577L81.0133 196.5ZM86.0487 191.658C85.2897 191.99 84.9435 192.874 85.2754 193.633C85.6074 194.392 86.4918 194.739 87.2508 194.407L86.0487 191.658ZM93.0145 191.372C93.7205 190.939 93.9415 190.015 93.5081 189.309C93.0747 188.603 92.151 188.382 91.445 188.815L93.0145 191.372ZM96.5016 185.314C95.8452 185.819 95.723 186.761 96.2285 187.417C96.734 188.074 97.6758 188.196 98.3321 187.69L96.5016 185.314ZM103.255 183.544C103.866 182.985 103.909 182.036 103.349 181.425C102.79 180.814 101.841 180.771 101.23 181.331L103.255 183.544ZM105.651 176.979C105.081 177.58 105.107 178.53 105.708 179.099C106.31 179.669 107.259 179.643 107.829 179.042L105.651 176.979ZM112.081 174.246C112.61 173.609 112.523 172.663 111.886 172.134C111.248 171.605 110.303 171.692 109.773 172.329L112.081 174.246ZM113.589 167.425C113.102 168.096 113.25 169.034 113.92 169.521C114.59 170.008 115.528 169.859 116.015 169.189L113.589 167.425ZM119.468 163.934C119.869 163.209 119.607 162.296 118.883 161.895C118.158 161.493 117.245 161.755 116.844 162.48L119.468 163.934ZM119.088 157.338C118.833 158.126 119.265 158.972 120.053 159.227C120.841 159.483 121.687 159.051 121.942 158.263L119.088 157.338ZM123.226 152.182C123.309 151.358 122.708 150.623 121.884 150.54C121.06 150.457 120.324 151.058 120.241 151.882L123.226 152.182ZM120.174 146.327C120.278 147.149 121.029 147.731 121.851 147.627C122.673 147.523 123.254 146.772 123.15 145.95L120.174 146.327ZM121.66 139.892C121.371 139.116 120.508 138.72 119.731 139.009C118.955 139.298 118.56 140.161 118.848 140.938L121.66 139.892ZM116.337 135.976C116.791 136.67 117.72 136.864 118.414 136.411C119.107 135.958 119.302 135.028 118.848 134.335L116.337 135.976ZM114.923 129.526C114.336 128.941 113.386 128.943 112.802 129.529C112.217 130.116 112.219 131.066 112.806 131.651L114.923 129.526ZM108.465 128.088C109.151 128.552 110.083 128.372 110.547 127.685C111.012 126.999 110.832 126.067 110.145 125.603L108.465 128.088ZM104.843 122.58C104.101 122.211 103.201 122.514 102.832 123.256C102.463 123.998 102.766 124.898 103.508 125.267L104.843 122.58ZM98.2301 122.938C99.0022 123.238 99.8715 122.856 100.172 122.084C100.472 121.311 100.089 120.442 99.3167 120.142L98.2301 122.938ZM93.6021 118.204C92.8069 117.972 91.9741 118.428 91.7421 119.224C91.51 120.019 91.9667 120.852 92.7619 121.084L93.6021 118.204ZM87.1526 119.703C87.9646 119.867 88.7557 119.341 88.9195 118.529C89.0834 117.717 88.5579 116.926 87.7458 116.762L87.1526 119.703ZM81.7889 115.82C80.9659 115.725 80.222 116.316 80.1273 117.139C80.0325 117.962 80.6229 118.706 81.4459 118.8L81.7889 115.82ZM75.6852 118.386C76.5133 118.409 77.2039 117.757 77.2278 116.929C77.2517 116.101 76.5998 115.411 75.7717 115.387L75.6852 118.386ZM69.7356 115.478C68.9087 115.528 68.2784 116.238 68.3278 117.065C68.3772 117.892 69.0877 118.522 69.9146 118.473L69.7356 115.478ZM64.1824 119.081C65.0012 118.955 65.563 118.189 65.4371 117.371C65.3112 116.552 64.5454 115.99 63.7266 116.116L64.1824 119.081ZM57.7975 117.326C56.995 117.531 56.5113 118.349 56.7171 119.151C56.9229 119.954 57.7402 120.437 58.5427 120.232L57.7975 117.326ZM53.059 121.946C53.8354 121.657 54.2306 120.794 53.9416 120.017C53.6527 119.241 52.789 118.846 52.0126 119.135L53.059 121.946ZM46.2794 121.615C45.5337 121.976 45.2218 122.873 45.5827 123.619C45.9435 124.364 46.8406 124.676 47.5863 124.316L46.2794 121.615ZM42.0917 127.218C42.8108 126.807 43.0602 125.89 42.6489 125.171C42.2375 124.452 41.3211 124.203 40.602 124.614L42.0917 127.218ZM35.1425 127.969C34.4504 128.425 34.2585 129.355 34.7138 130.047C35.1691 130.739 36.0992 130.931 36.7913 130.476L35.1425 127.969ZM31.6956 134.052C32.359 133.556 32.4946 132.616 31.9984 131.953C31.5023 131.289 30.5623 131.154 29.8989 131.65L31.6956 134.052ZM24.8862 135.643C24.2546 136.179 24.177 137.126 24.713 137.757C25.249 138.389 26.1956 138.466 26.8272 137.93L24.8862 135.643ZM22.2192 142.105C22.8143 141.528 22.8295 140.579 22.2531 139.984C21.6767 139.389 20.7271 139.373 20.1321 139.95L22.2192 142.105ZM15.6798 144.583C15.1285 145.201 15.1829 146.15 15.8013 146.701C16.4197 147.252 17.3679 147.198 17.9191 146.579L15.6798 144.583ZM13.9951 151.364C14.4921 150.701 14.3577 149.761 13.6949 149.264C13.0321 148.767 12.0919 148.901 11.5949 149.564L13.9951 151.364ZM7.97465 154.919C7.54708 155.629 7.77569 156.551 8.48526 156.978C9.19482 157.406 10.1166 157.177 10.5442 156.468L7.97465 154.919ZM7.70025 161.896C8.03676 161.139 7.69588 160.253 6.93888 159.916C6.18188 159.58 5.29541 159.921 4.9589 160.678L7.70025 161.896ZM2.79943 166.57C2.56309 167.364 3.01516 168.199 3.80916 168.436C4.60316 168.672 5.43842 168.22 5.67476 167.426L2.79943 166.57ZM4.35808 172.958C4.50524 172.143 3.96364 171.362 3.14839 171.215C2.33314 171.068 1.55295 171.61 1.40579 172.425L4.35808 172.958ZM0.655717 178.391C0.595724 179.218 1.2169 179.936 2.04315 179.996C2.8694 180.056 3.58785 179.435 3.64784 178.609L0.655717 178.391ZM3.52147 184.312C3.49918 183.484 2.80977 182.831 1.98165 182.853C1.15352 182.876 0.500262 183.565 0.522554 184.393L3.52147 184.312ZM0.962031 190.369C1.06006 191.192 1.80639 191.779 2.62899 191.681C3.4516 191.583 4.03898 190.837 3.94095 190.014L0.962031 190.369ZM4.86045 195.669C4.69385 194.857 3.90095 194.335 3.08944 194.501C2.27794 194.668 1.75514 195.461 1.92174 196.272L4.86045 195.669ZM3.3486 202.069C3.57678 202.866 4.40736 203.326 5.20374 203.098C6.00012 202.87 6.46074 202.04 6.23256 201.243L3.3486 202.069ZM8.01208 206.712C7.72868 205.933 6.86788 205.532 6.08944 205.815C5.311 206.099 4.90969 206.96 5.19309 207.738L8.01208 206.712ZM7.41143 213.262C7.74453 214.02 8.62946 214.365 9.38797 214.032C10.1465 213.699 10.4913 212.814 10.1582 212.056L7.41143 213.262ZM12.6363 217.262C12.2581 216.525 11.354 216.234 10.617 216.612C9.87989 216.99 9.58897 217.894 9.96716 218.631L12.6363 217.262ZM12.8301 223.837C13.2496 224.551 14.1688 224.79 14.8832 224.371C15.5975 223.951 15.8364 223.032 15.4169 222.318L12.8301 223.837ZM18.4778 227.215C18.0197 226.524 17.0887 226.336 16.3985 226.794C15.7083 227.252 15.5201 228.183 15.9782 228.874L18.4778 227.215ZM19.6304 233.988C20.1411 234.64 21.0839 234.755 21.7362 234.244C22.3884 233.733 22.5032 232.791 21.9925 232.138L19.6304 233.988ZM26.1385 236.914C25.5647 236.317 24.6152 236.297 24.0176 236.871C23.42 237.445 23.4006 238.394 23.9743 238.992L26.1385 236.914ZM28.7859 243.54C29.4142 244.08 30.3613 244.009 30.9011 243.38C31.441 242.752 31.3692 241.805 30.7409 241.265L28.7859 243.54ZM35.7342 245.176C35.0602 244.695 34.1234 244.851 33.6417 245.525C33.1601 246.199 33.316 247.136 33.99 247.617L35.7342 245.176ZM39.5144 251.229C40.2254 251.654 41.1465 251.422 41.5716 250.711C41.9967 250 41.7649 249.079 41.0539 248.654L39.5144 251.229ZM46.6374 251.714C45.897 251.343 44.9955 251.642 44.6238 252.382C44.2521 253.122 44.5509 254.024 45.2913 254.395L46.6374 251.714ZM51.2645 257.148C52.0277 257.47 52.9076 257.113 53.2299 256.35C53.5521 255.586 53.1947 254.707 52.4315 254.384L51.2645 257.148ZM58.3908 256.693C57.6101 256.416 56.7526 256.825 56.4756 257.605C56.1986 258.386 56.6069 259.244 57.3877 259.521L58.3908 256.693ZM63.6232 261.548C64.4173 261.784 65.2524 261.332 65.4883 260.538C65.7242 259.743 65.2718 258.908 64.4776 258.672L63.6232 261.548ZM70.6632 260.352C69.859 260.153 69.0458 260.644 68.847 261.448C68.6481 262.252 69.1389 263.066 69.9431 263.264L70.6632 260.352ZM76.3242 264.7C77.136 264.866 77.9281 264.342 78.0935 263.53C78.2589 262.718 77.735 261.926 76.9232 261.761L76.3242 264.7ZM83.2417 262.925C82.4244 262.789 81.6521 263.342 81.5168 264.16C81.3815 264.977 81.9344 265.749 82.7517 265.884L83.2417 262.925ZM89.1622 266.84C89.9833 266.95 90.7382 266.374 90.8484 265.553C90.9587 264.732 90.3824 263.977 89.5614 263.866L89.1622 266.84ZM95.8687 264.625C95.0449 264.538 94.3061 265.134 94.2185 265.958C94.1309 266.782 94.7277 267.521 95.5514 267.608L95.8687 264.625ZM101.959 268.2C102.785 268.265 103.507 267.648 103.572 266.822C103.637 265.996 103.02 265.274 102.194 265.209L101.959 268.2ZM108.532 265.617C107.705 265.575 107 266.212 106.959 267.04C106.917 267.867 107.554 268.572 108.381 268.613L108.532 265.617ZM114.813 268.846C115.642 268.864 116.328 268.207 116.346 267.379C116.364 266.551 115.708 265.865 114.879 265.846L114.813 268.846ZM121.231 265.897C120.402 265.902 119.735 266.578 119.74 267.406C119.745 268.235 120.421 268.902 121.249 268.897L121.231 265.897ZM127.684 268.767C128.512 268.738 129.16 268.044 129.131 267.216C129.103 266.388 128.409 265.74 127.581 265.769L127.684 268.767ZM133.925 265.462C133.098 265.513 132.47 266.225 132.521 267.052C132.573 267.879 133.285 268.507 134.112 268.456L133.925 265.462ZM140.529 267.964C141.354 267.89 141.962 267.16 141.887 266.335C141.812 265.51 141.083 264.902 140.258 264.977L140.529 267.964ZM146.576 264.316C145.753 264.413 145.165 265.159 145.263 265.982C145.36 266.805 146.106 267.392 146.929 267.295L146.576 264.316ZM153.308 266.449C154.128 266.329 154.695 265.567 154.575 264.747C154.455 263.928 153.693 263.36 152.873 263.481L153.308 266.449ZM159.146 262.474C158.33 262.616 157.783 263.393 157.926 264.21C158.068 265.026 158.845 265.572 159.661 265.43L159.146 262.474ZM165.984 264.24C166.796 264.076 167.321 263.285 167.157 262.473C166.993 261.661 166.202 261.135 165.39 261.299L165.984 264.24ZM171.602 259.96C170.794 260.145 170.29 260.95 170.475 261.757C170.66 262.565 171.465 263.069 172.272 262.884L171.602 259.96ZM178.315 261.452C179.122 261.264 179.623 260.458 179.436 259.651C179.248 258.844 178.442 258.342 177.635 258.53L178.315 261.452ZM183.534 257.216C182.723 257.388 182.207 258.185 182.379 258.995C182.552 259.806 183.349 260.322 184.159 260.15L183.534 257.216ZM190.028 258.953C190.841 258.795 191.372 258.007 191.213 257.194C191.055 256.381 190.267 255.85 189.454 256.009L190.028 258.953ZM195.393 254.903C194.577 255.048 194.034 255.827 194.178 256.643C194.323 257.458 195.102 258.002 195.918 257.857L195.393 254.903ZM201.826 256.856C202.643 256.724 203.199 255.954 203.067 255.136C202.935 254.318 202.165 253.762 201.347 253.894L201.826 256.856ZM207.315 252.976C206.495 253.096 205.928 253.858 206.048 254.678C206.168 255.498 206.93 256.065 207.75 255.945L207.315 252.976ZM213.687 255.119C214.509 255.01 215.086 254.256 214.978 253.435C214.869 252.614 214.116 252.036 213.294 252.144L213.687 255.119ZM219.283 251.393C218.46 251.491 217.873 252.237 217.97 253.06C218.068 253.883 218.814 254.47 219.637 254.372L219.283 251.393ZM225.597 253.702C226.42 253.614 227.017 252.875 226.93 252.051C226.842 251.228 226.103 250.631 225.279 250.719L225.597 253.702ZM231.282 250.115C230.458 250.193 229.852 250.925 229.93 251.75C230.009 252.575 230.74 253.18 231.565 253.102L231.282 250.115ZM237.541 252.569C238.366 252.499 238.98 251.774 238.91 250.949C238.841 250.123 238.116 249.51 237.29 249.579L237.541 252.569ZM243.303 249.106C242.477 249.167 241.856 249.886 241.917 250.712C241.978 251.538 242.697 252.159 243.523 252.098L243.303 249.106ZM249.511 251.685C250.338 251.631 250.965 250.918 250.912 250.091C250.859 249.265 250.145 248.638 249.318 248.691L249.511 251.685ZM255.336 248.33C254.509 248.376 253.876 249.084 253.922 249.911C253.968 250.738 254.676 251.372 255.503 251.326L255.336 248.33ZM261.469 251.024C262.297 250.987 262.938 250.287 262.902 249.459C262.866 248.632 262.165 247.99 261.338 248.026L261.469 251.024ZM267.325 247.811C266.497 247.835 265.845 248.525 265.868 249.353C265.891 250.181 266.582 250.833 267.41 250.81L267.325 247.811ZM273.353 250.69C274.182 250.68 274.845 250 274.835 249.171C274.825 248.343 274.145 247.68 273.316 247.69L273.353 250.69ZM279.309 247.663C278.481 247.66 277.807 248.33 277.804 249.158C277.801 249.986 278.47 250.66 279.299 250.663L279.309 247.663ZM285.243 250.731C286.072 250.747 286.756 250.089 286.772 249.261C286.788 248.432 286.13 247.748 285.302 247.732L285.243 250.731ZM291.292 247.897C290.464 247.867 289.769 248.515 289.74 249.342C289.71 250.17 290.357 250.865 291.185 250.895L291.292 247.897ZM297.123 251.156C297.95 251.199 298.656 250.564 298.699 249.736C298.743 248.909 298.107 248.203 297.28 248.16L297.123 251.156ZM303.263 248.523C302.436 248.466 301.72 249.09 301.663 249.916C301.606 250.742 302.229 251.459 303.056 251.516L303.263 248.523ZM308.981 251.976C309.806 252.048 310.533 251.436 310.604 250.611C310.676 249.786 310.064 249.059 309.239 248.987L308.981 251.976ZM315.207 249.556C314.383 249.47 313.646 250.068 313.56 250.892C313.474 251.716 314.072 252.454 314.896 252.54L315.207 249.556ZM320.8 253.208C321.623 253.309 322.371 252.724 322.471 251.902C322.572 251.079 321.987 250.331 321.165 250.23L320.8 253.208ZM327.11 251.014C326.29 250.898 325.531 251.469 325.415 252.289C325.299 253.11 325.87 253.869 326.69 253.985L327.11 251.014ZM332.563 254.871C333.381 255.003 334.151 254.447 334.283 253.629C334.414 252.811 333.858 252.041 333.04 251.91L332.563 254.871ZM338.952 252.92C338.137 252.772 337.356 253.314 337.209 254.129C337.061 254.944 337.602 255.724 338.417 255.872L338.952 252.92ZM344.25 256.99C345.062 257.154 345.853 256.629 346.017 255.817C346.181 255.005 345.656 254.214 344.844 254.049L344.25 256.99ZM350.713 255.301C349.905 255.12 349.102 255.628 348.921 256.436C348.739 257.245 349.248 258.047 350.056 258.228L350.713 255.301ZM355.833 259.591C356.637 259.79 357.45 259.3 357.65 258.496C357.849 257.692 357.358 256.878 356.554 256.679L355.833 259.591ZM362.364 258.188C361.564 257.97 360.74 258.442 360.523 259.242C360.305 260.041 360.777 260.865 361.576 261.083L362.364 258.188ZM367.629 262.83C368.42 263.077 369.261 262.635 369.507 261.844C369.753 261.053 369.312 260.212 368.521 259.966L367.629 262.83ZM374.971 262.14C374.192 261.858 373.332 262.261 373.05 263.04C372.769 263.819 373.172 264.679 373.951 264.961L374.971 262.14ZM380.19 267.357C380.957 267.668 381.832 267.298 382.143 266.53C382.454 265.763 382.084 264.888 381.316 264.577L380.19 267.357ZM387.563 267.219C386.805 266.886 385.92 267.231 385.587 267.989C385.254 268.748 385.599 269.633 386.357 269.966L387.563 267.219ZM392.474 272.728C393.226 273.076 394.117 272.748 394.465 271.996C394.812 271.244 394.484 270.352 393.732 270.005L392.474 272.728ZM399.847 272.873C399.099 272.518 398.204 272.837 397.85 273.586C397.495 274.335 397.814 275.229 398.563 275.584L399.847 272.873ZM404.113 278.215C404.862 278.568 405.756 278.246 406.109 277.497C406.462 276.747 406.141 275.854 405.392 275.501L404.113 278.215ZM410.403 277.867C409.655 277.511 408.76 277.828 408.403 278.576C408.047 279.324 408.365 280.219 409.112 280.575L410.403 277.867ZM414.062 282.986C414.803 283.357 415.704 283.058 416.075 282.317C416.446 281.576 416.147 280.675 415.406 280.304L414.062 282.986ZM420.36 282.892C419.634 282.494 418.722 282.761 418.324 283.487C417.927 284.214 418.194 285.126 418.92 285.523L420.36 282.892ZM423.643 288.26C424.348 288.694 425.272 288.474 425.707 287.769C426.141 287.064 425.921 286.14 425.216 285.705L423.643 288.26ZM429.916 288.805C429.24 288.327 428.304 288.487 427.825 289.163C427.346 289.839 427.506 290.775 428.182 291.254L429.916 288.805ZM432.99 294.889C433.642 295.4 434.585 295.286 435.096 294.634C435.607 293.982 435.493 293.039 434.841 292.528L432.99 294.889ZM440.063 296.729C439.424 296.202 438.479 296.293 437.952 296.932C437.425 297.571 437.516 298.517 438.155 299.044L440.063 296.729ZM443.224 303.32C443.852 303.861 444.799 303.791 445.34 303.164C445.881 302.537 445.811 301.589 445.183 301.048L443.224 303.32ZM450.21 305.471C449.593 304.918 448.645 304.969 448.092 305.586C447.538 306.203 447.59 307.151 448.207 307.704L450.21 305.471ZM453.112 312.18C453.719 312.744 454.668 312.708 455.232 312.101C455.795 311.493 455.759 310.544 455.152 309.981L453.112 312.18ZM460.021 314.564C459.422 313.992 458.472 314.014 457.9 314.614C457.328 315.213 457.35 316.163 457.95 316.734L460.021 314.564ZM462.732 321.353C463.325 321.932 464.275 321.92 464.853 321.328C465.432 320.735 465.421 319.785 464.828 319.206L462.732 321.353ZM469.585 323.894C468.998 323.31 468.048 323.313 467.464 323.901C466.88 324.488 466.883 325.438 467.471 326.022L469.585 323.894ZM472.159 330.805C472.719 331.416 473.668 331.456 474.278 330.896C474.889 330.336 474.93 329.387 474.369 328.777L472.159 330.805ZM478.883 334.098C478.369 333.447 477.426 333.336 476.776 333.85C476.126 334.363 476.015 335.306 476.528 335.957L478.883 334.098ZM480.618 341.397C481.104 342.068 482.042 342.217 482.713 341.73C483.383 341.243 483.532 340.305 483.045 339.635L480.618 341.397ZM487.064 345.201C486.576 344.531 485.638 344.384 484.968 344.871C484.299 345.359 484.151 346.297 484.639 346.967L487.064 345.201ZM134.168 0.501871C133.215 0.549536 132.258 0.607853 131.299 0.676729L131.514 3.66903C132.452 3.60169 133.387 3.5447 134.318 3.49813L134.168 0.501871ZM125.577 1.20862C123.686 1.42392 121.787 1.67877 119.884 1.97248L120.342 4.93739C122.206 4.64965 124.066 4.4001 125.917 4.18937L125.577 1.20862ZM114.226 2.95744C112.355 3.32008 110.482 3.71943 108.61 4.15487L109.29 7.07681C111.126 6.64974 112.962 6.25816 114.797 5.90266L114.226 2.95744ZM103.044 5.5577C101.202 6.05777 99.3645 6.59243 97.5338 7.1611L98.4237 10.0261C100.22 9.46809 102.023 8.94351 103.83 8.45291L103.044 5.5577ZM92.0841 8.96204C90.2797 9.5946 88.485 10.2603 86.7027 10.9584L87.7969 13.7518C89.5453 13.0668 91.3061 12.4138 93.0766 11.7931L92.0841 8.96204ZM81.3971 13.1496C79.6401 13.9133 77.8985 14.709 76.1748 15.5363L77.4729 18.2409C79.1624 17.43 80.87 16.6498 82.593 15.9009L81.3971 13.1496ZM71.0457 18.1201C69.3486 19.0166 67.6726 19.9446 66.0205 20.9034L67.5265 23.4981C69.1434 22.5596 70.7845 21.6509 72.447 20.7727L71.0457 18.1201ZM61.1101 23.8906C59.4876 24.9248 57.8926 25.9903 56.3281 27.0863L58.0495 29.5433C59.5774 28.4729 61.1361 27.4317 62.7226 26.4204L61.1101 23.8906ZM51.6918 30.4948C50.1653 31.6726 48.6735 32.8816 47.2195 34.1213L49.166 36.4041C50.5818 35.197 52.0356 34.0187 53.5244 32.8699L51.6918 30.4948ZM42.9327 37.9713C42.233 38.6336 41.5441 39.3038 40.8662 39.9817L42.9875 42.103C43.6458 41.4447 44.3152 40.7936 44.9952 40.1498L42.9327 37.9713ZM40.8662 39.9817C40.1005 40.7474 39.3485 41.5181 38.6098 42.2939L40.7825 44.3626C41.5042 43.6046 42.2391 42.8514 42.9875 42.103L40.8662 39.9817ZM34.2754 47.0807C32.8591 48.7266 31.4975 50.3946 30.1883 52.0849L32.56 53.922C33.8377 52.2724 35.1667 50.6444 36.5494 49.0374L34.2754 47.0807ZM26.3663 57.2934C25.1328 59.0694 23.9514 60.8691 22.8195 62.6929L25.3685 64.2749C26.4735 62.4944 27.6265 60.7379 28.8303 59.0048L26.3663 57.2934ZM19.5538 68.2654C18.5127 70.1487 17.5188 72.0567 16.5695 73.9898L19.2623 75.3122C20.1907 73.4217 21.1622 71.5567 22.1793 69.7168L19.5538 68.2654ZM13.8604 79.8459C13.0056 81.8095 12.1917 83.7981 11.416 85.8119L14.2155 86.8902C14.9763 84.9151 15.774 82.9663 16.6111 81.0432L13.8604 79.8459ZM9.22125 91.8685C8.53372 93.8877 7.88009 95.9314 7.25776 98.0001L10.1306 98.8643C10.743 96.8286 11.3857 94.8192 12.0611 92.8355L9.22125 91.8685ZM5.50675 104.188C5.23239 105.22 4.96486 106.258 4.70385 107.302L7.61428 108.03C7.87177 107 8.13559 105.976 8.40603 104.959L5.50675 104.188ZM4.70385 107.302C4.47451 108.22 4.25758 109.136 4.05328 110.052L6.98131 110.705C7.17998 109.815 7.39103 108.923 7.61428 108.03L4.70385 107.302ZM2.96962 115.603C2.65643 117.478 2.39868 119.348 2.19839 121.211L5.18119 121.532C5.37506 119.729 5.62477 117.917 5.92864 116.097L2.96962 115.603ZM1.76802 126.861C1.68403 128.763 1.66323 130.655 1.70786 132.535L4.70702 132.463C4.66405 130.653 4.68402 128.829 4.7651 126.993L1.76802 126.861ZM2.04717 138.207C2.23066 140.102 2.48492 141.981 2.81232 143.843L5.767 143.324C5.45336 141.54 5.20941 139.737 5.0332 137.918L2.04717 138.207ZM4.02466 149.407C4.5049 151.244 5.06163 153.061 5.69721 154.855L8.52497 153.853C7.91819 152.141 7.38628 150.405 6.92715 148.648L4.02466 149.407ZM7.83233 160.143C8.61534 161.862 9.47689 163.557 10.4191 165.224L13.0309 163.748C12.1317 162.157 11.3097 160.54 10.5626 158.9L7.83233 160.143ZM13.4346 170.061C14.4953 171.61 15.6322 173.131 16.847 174.623L19.1731 172.728C18.0104 171.301 16.9234 169.846 15.9101 168.366L13.4346 170.061ZM20.6163 178.89C21.2665 179.57 21.9347 180.243 22.6209 180.908L24.7094 178.755C24.0501 178.115 23.4087 177.469 22.7849 176.817L20.6163 178.89ZM22.6209 180.908C23.3269 181.593 24.0812 182.257 24.878 182.899L26.7611 180.564C26.0296 179.974 25.3444 179.37 24.7094 178.755L22.6209 180.908ZM29.7696 186.29C31.4095 187.276 33.1539 188.202 34.9753 189.065L36.2592 186.353C34.5176 185.529 32.862 184.649 31.3163 183.719L29.7696 186.29ZM40.3773 191.36C42.1823 192.047 44.0348 192.68 45.914 193.255L46.7925 190.387C44.9736 189.83 43.1843 189.219 41.4448 188.556L40.3773 191.36ZM51.5512 194.794C53.4558 195.253 55.3682 195.654 57.2682 195.994L57.7968 193.041C55.9551 192.711 54.1008 192.323 52.254 191.878L51.5512 194.794ZM63.052 196.846C65.0432 197.075 66.9986 197.232 68.8928 197.312L69.0202 194.315C67.2027 194.238 65.3193 194.087 63.3949 193.866L63.052 196.846ZM74.7814 197.303C75.7965 197.251 76.7834 197.172 77.7367 197.065L77.4008 194.084C76.5137 194.184 75.5884 194.258 74.6297 194.307L74.7814 197.303ZM77.7367 197.065C78.8342 196.941 79.9272 196.751 81.0133 196.5L80.3391 193.577C79.3582 193.803 78.3781 193.974 77.4008 194.084L77.7367 197.065ZM87.2508 194.407C89.2106 193.55 91.1363 192.525 93.0145 191.372L91.445 188.815C89.6696 189.905 87.8665 190.863 86.0487 191.658L87.2508 194.407ZM98.3321 187.69C100.027 186.385 101.672 184.992 103.255 183.544L101.23 181.331C99.7034 182.727 98.1233 184.065 96.5016 185.314L98.3321 187.69ZM107.829 179.042C109.326 177.461 110.747 175.851 112.081 174.246L109.773 172.329C108.479 173.887 107.101 175.448 105.651 176.979L107.829 179.042ZM116.015 169.189C116.662 168.3 117.276 167.423 117.855 166.565L115.367 164.887C114.808 165.716 114.215 166.564 113.589 167.425L116.015 169.189ZM117.855 166.565C118.44 165.697 118.977 164.819 119.468 163.934L116.844 162.48C116.396 163.288 115.904 164.091 115.367 164.887L117.855 166.565ZM121.942 158.263C122.596 156.243 123.023 154.208 123.226 152.182L120.241 151.882C120.059 153.692 119.678 155.517 119.088 157.338L121.942 158.263ZM123.15 145.95C122.888 143.878 122.388 141.85 121.66 139.892L118.848 140.938C119.496 142.68 119.94 144.485 120.174 146.327L123.15 145.95ZM118.848 134.335C117.734 132.631 116.423 131.02 114.923 129.526L112.806 131.651C114.161 133.001 115.34 134.45 116.337 135.976L118.848 134.335ZM110.145 125.603C109.306 125.035 108.43 124.496 107.517 123.988L106.058 126.609C106.895 127.075 107.698 127.569 108.465 128.088L110.145 125.603ZM107.517 123.988C106.639 123.499 105.747 123.029 104.843 122.58L103.508 125.267C104.371 125.695 105.221 126.143 106.058 126.609L107.517 123.988ZM99.3167 120.142C97.4473 119.416 95.5391 118.769 93.6021 118.204L92.7619 121.084C94.6166 121.625 96.4426 122.244 98.2301 122.938L99.3167 120.142ZM87.7458 116.762C85.776 116.365 83.7872 116.05 81.7889 115.82L81.4459 118.8C83.36 119.021 85.2654 119.322 87.1526 119.703L87.7458 116.762ZM75.7717 115.387C73.7566 115.329 71.7412 115.358 69.7356 115.478L69.9146 118.473C71.8303 118.358 73.757 118.33 75.6852 118.386L75.7717 115.387ZM63.7266 116.116C61.7272 116.423 59.7473 116.826 57.7975 117.326L58.5427 120.232C60.3944 119.757 62.2775 119.374 64.1824 119.081L63.7266 116.116ZM52.0126 119.135C51.0637 119.488 50.1251 119.866 49.1981 120.271L50.3985 123.021C51.274 122.638 52.1612 122.28 53.059 121.946L52.0126 119.135ZM49.1981 120.271C48.234 120.692 47.2601 121.141 46.2794 121.615L47.5863 124.316C48.533 123.857 49.4714 123.425 50.3985 123.021L49.1981 120.271ZM40.602 124.614C38.7823 125.655 36.9566 126.776 35.1425 127.969L36.7913 130.476C38.5541 129.316 40.3267 128.228 42.0917 127.218L40.602 124.614ZM29.8989 131.65C28.1973 132.922 26.5212 134.256 24.8862 135.643L26.8272 137.93C28.414 136.584 30.0419 135.289 31.6956 134.052L29.8989 131.65ZM20.1321 139.95C18.5861 141.447 17.0966 142.994 15.6798 144.583L17.9191 146.579C19.2845 145.048 20.7229 143.554 22.2192 142.105L20.1321 139.95ZM11.5949 149.564C10.2854 151.31 9.07223 153.098 7.97465 154.919L10.5442 156.468C11.5855 154.74 12.7413 153.036 13.9951 151.364L11.5949 149.564ZM4.9589 160.678C4.51351 161.68 4.10624 162.69 3.74019 163.707L6.56285 164.723C6.90316 163.777 7.28305 162.835 7.70025 161.896L4.9589 160.678ZM3.74019 163.707C3.39792 164.657 3.08462 165.612 2.79943 166.57L5.67476 167.426C5.94402 166.521 6.23977 165.62 6.56285 164.723L3.74019 163.707ZM1.40579 172.425C1.04789 174.408 0.800438 176.398 0.655717 178.391L3.64784 178.609C3.78512 176.718 4.01961 174.833 4.35808 172.958L1.40579 172.425ZM0.522554 184.393C0.576305 186.39 0.725405 188.384 0.962031 190.369L3.94095 190.014C3.71472 188.116 3.57265 186.214 3.52147 184.312L0.522554 184.393ZM1.92174 196.272C2.32143 198.219 2.79955 200.153 3.3486 202.069L6.23256 201.243C5.70368 199.397 5.24409 197.538 4.86045 195.669L1.92174 196.272ZM5.19309 207.738C5.87202 209.603 6.61388 211.446 7.41143 213.262L10.1582 212.056C9.38569 210.296 8.66807 208.514 8.01208 206.712L5.19309 207.738ZM9.96716 218.631C10.8746 220.4 11.8313 222.137 12.8301 223.837L15.4169 222.318C14.4461 220.665 13.517 218.978 12.6363 217.262L9.96716 218.631ZM15.9782 228.874C16.5275 229.701 17.0858 230.518 17.6524 231.324L20.1063 229.598C19.5551 228.814 19.012 228.019 18.4778 227.215L15.9782 228.874ZM17.6524 231.324C18.2922 232.233 18.9519 233.121 19.6304 233.988L21.9925 232.138C21.3454 231.312 20.7164 230.465 20.1063 229.598L17.6524 231.324ZM23.9743 238.992C25.5107 240.592 27.1174 242.107 28.7859 243.54L30.7409 241.265C29.1427 239.892 27.6061 238.443 26.1385 236.914L23.9743 238.992ZM33.99 247.617C35.7805 248.897 37.6248 250.099 39.5144 251.229L41.0539 248.654C39.2309 247.564 37.4552 246.406 35.7342 245.176L33.99 247.617ZM45.2913 254.395C47.2482 255.378 49.242 256.294 51.2645 257.148L52.4315 254.384C50.4662 253.554 48.5323 252.666 46.6374 251.714L45.2913 254.395ZM57.3877 259.521C59.4477 260.252 61.5289 260.926 63.6232 261.548L64.4776 258.672C62.4303 258.064 60.3989 257.406 58.3908 256.693L57.3877 259.521ZM69.9431 263.264C72.0668 263.79 74.1964 264.267 76.3242 264.7L76.9232 261.761C74.8335 261.335 72.7443 260.867 70.6632 260.352L69.9431 263.264ZM82.7517 265.884C83.8293 266.063 84.9044 266.231 85.976 266.39L86.4157 263.422C85.3603 263.266 84.3019 263.1 83.2417 262.925L82.7517 265.884ZM85.976 266.39C87.0386 266.547 88.1007 266.697 89.1622 266.84L89.5614 263.866C88.5134 263.726 87.4648 263.578 86.4157 263.422L85.976 266.39ZM95.5514 267.608C97.6895 267.836 99.8255 268.033 101.959 268.2L102.194 265.209C100.088 265.044 97.9792 264.85 95.8687 264.625L95.5514 267.608ZM108.381 268.613C110.527 268.721 112.671 268.798 114.813 268.846L114.879 265.846C112.766 265.8 110.65 265.723 108.532 265.617L108.381 268.613ZM121.249 268.897C123.396 268.884 125.541 268.84 127.684 268.767L127.581 265.769C125.466 265.841 123.349 265.884 121.231 265.897L121.249 268.897ZM134.112 268.456C136.253 268.322 138.392 268.158 140.529 267.964L140.258 264.977C138.149 265.168 136.038 265.329 133.925 265.462L134.112 268.456ZM146.929 267.295C149.057 267.042 151.183 266.76 153.308 266.449L152.873 263.481C150.775 263.788 148.676 264.066 146.576 264.316L146.929 267.295ZM159.661 265.43C161.77 265.062 163.878 264.665 165.984 264.24L165.39 261.299C163.31 261.719 161.228 262.111 159.146 262.474L159.661 265.43ZM172.272 262.884C173.316 262.644 174.36 262.398 175.403 262.145L174.694 259.229C173.664 259.48 172.633 259.723 171.602 259.96L172.272 262.884ZM175.403 262.145C176.372 261.909 177.342 261.678 178.315 261.452L177.635 258.53C176.653 258.759 175.673 258.992 174.694 259.229L175.403 262.145ZM184.159 260.15C186.109 259.734 188.066 259.336 190.028 258.953L189.454 256.009C187.475 256.394 185.501 256.796 183.534 257.216L184.159 260.15ZM195.918 257.857C197.882 257.508 199.852 257.175 201.826 256.856L201.347 253.894C199.359 254.215 197.374 254.552 195.393 254.903L195.918 257.857ZM207.75 255.945C209.726 255.656 211.705 255.38 213.687 255.119L213.294 252.144C211.299 252.408 209.306 252.685 207.315 252.976L207.75 255.945ZM219.637 254.372C221.622 254.136 223.609 253.913 225.597 253.702L225.279 250.719C223.28 250.931 221.281 251.156 219.283 251.393L219.637 254.372ZM231.565 253.102C233.558 252.913 235.55 252.736 237.541 252.569L237.29 249.579C235.289 249.747 233.286 249.925 231.282 250.115L231.565 253.102ZM243.523 252.098C245.521 251.95 247.518 251.813 249.511 251.685L249.318 248.691C247.316 248.82 245.311 248.958 243.303 249.106L243.523 252.098ZM255.503 251.326C256.503 251.27 257.502 251.216 258.5 251.165L258.346 248.169C257.344 248.221 256.34 248.274 255.336 248.33L255.503 251.326ZM258.5 251.165C259.488 251.114 260.478 251.067 261.469 251.024L261.338 248.026C260.339 248.07 259.341 248.118 258.346 248.169L258.5 251.165ZM267.41 250.81C269.386 250.755 271.367 250.714 273.353 250.69L273.316 247.69C271.314 247.715 269.317 247.755 267.325 247.811L267.41 250.81ZM279.299 250.663C281.277 250.67 283.259 250.693 285.243 250.731L285.302 247.732C283.301 247.693 281.303 247.67 279.309 247.663L279.299 250.663ZM291.185 250.895C293.163 250.966 295.143 251.053 297.123 251.156L297.28 248.16C295.283 248.056 293.287 247.968 291.292 247.897L291.185 250.895ZM303.056 251.516C305.032 251.652 307.007 251.806 308.981 251.976L309.239 248.987C307.248 248.815 305.255 248.661 303.263 248.523L303.056 251.516ZM314.896 252.54C316.867 252.745 318.835 252.968 320.8 253.208L321.165 250.23C319.182 249.988 317.196 249.763 315.207 249.556L314.896 252.54ZM326.69 253.985C328.653 254.262 330.611 254.557 332.563 254.871L333.04 251.91C331.068 251.592 329.091 251.294 327.11 251.014L326.69 253.985ZM338.417 255.872C340.368 256.225 342.313 256.598 344.25 256.99L344.844 254.049C342.887 253.653 340.923 253.277 338.952 252.92L338.417 255.872ZM350.056 258.228C351.991 258.663 353.917 259.117 355.833 259.591L356.554 256.679C354.616 256.199 352.669 255.74 350.713 255.301L350.056 258.228ZM361.576 261.083C362.532 261.342 363.484 261.607 364.434 261.878L365.255 258.992C364.294 258.719 363.33 258.451 362.364 258.188L361.576 261.083ZM364.434 261.878C365.508 262.184 366.573 262.501 367.629 262.83L368.521 259.966C367.442 259.63 366.354 259.305 365.255 258.992L364.434 261.878ZM373.951 264.961C376.052 265.722 378.129 266.523 380.19 267.357L381.316 264.577C379.224 263.73 377.113 262.915 374.971 262.14L373.951 264.961ZM386.357 269.966C388.398 270.862 390.433 271.785 392.474 272.728L393.732 270.005C391.679 269.056 389.625 268.124 387.563 267.219L386.357 269.966ZM398.563 275.584C399.573 276.063 400.587 276.544 401.606 277.029L402.894 274.319C401.875 273.835 400.86 273.352 399.847 272.873L398.563 275.584ZM401.606 277.029C402.445 277.428 403.281 277.822 404.113 278.215L405.392 275.501C404.561 275.109 403.728 274.716 402.894 274.319L401.606 277.029ZM409.112 280.575C410.78 281.37 412.43 282.168 414.062 282.986L415.406 280.304C413.75 279.474 412.081 278.666 410.403 277.867L409.112 280.575ZM418.92 285.523C420.516 286.396 422.09 287.303 423.643 288.26L425.216 285.705C423.614 284.718 421.994 283.786 420.36 282.892L418.92 285.523ZM428.182 291.254C428.917 291.774 429.646 292.309 430.37 292.861L432.19 290.476C431.437 289.902 430.679 289.345 429.916 288.805L428.182 291.254ZM430.37 292.861C431.248 293.532 432.122 294.208 432.99 294.889L434.841 292.528C433.963 291.839 433.079 291.155 432.19 290.476L430.37 292.861ZM438.155 299.044C439.862 300.451 441.551 301.877 443.224 303.32L445.183 301.048C443.494 299.592 441.788 298.151 440.063 296.729L438.155 299.044ZM448.207 307.704C449.854 309.182 451.488 310.674 453.112 312.18L455.152 309.981C453.517 308.464 451.871 306.96 450.21 305.471L448.207 307.704ZM457.95 316.734C459.552 318.263 461.145 319.803 462.732 321.353L464.828 319.206C463.233 317.65 461.632 316.102 460.021 314.564L457.95 316.734ZM467.471 326.022C468.258 326.803 469.043 327.587 469.828 328.371L471.949 326.25C471.162 325.463 470.374 324.678 469.585 323.894L467.471 326.022ZM469.828 328.371C470.64 329.184 471.415 329.994 472.159 330.805L474.369 328.777C473.597 327.936 472.793 327.094 471.949 326.25L469.828 328.371ZM476.528 335.957C477.936 337.74 479.274 339.545 480.618 341.397L483.045 339.635C481.692 337.77 480.327 335.927 478.883 334.098L476.528 335.957ZM484.639 346.967C485.304 347.88 485.986 348.806 486.691 349.747L489.091 347.947C488.396 347.02 487.723 346.106 487.064 345.201L484.639 346.967Z" fill="#3D405B"/>
</svg>
