<svg width="510" height="453" viewBox="0 0 510 453" fill="none" xmlns="http://www.w3.org/2000/svg">
<path d="M71.8982 3.18693C72.5537 2.68039 72.6745 1.73835 72.168 1.08283C71.6614 0.427307 70.7194 0.306533 70.0639 0.813072L71.8982 3.18693ZM8.38052 100.716L6.89919 100.48L8.38052 100.716ZM2.25179 205.561L0.752356 205.602L2.25179 205.561ZM24.9062 301.213L23.6094 301.967L24.9062 301.213ZM79.025 350.681L78.4784 352.077L79.025 350.681ZM162.529 367.37L162.502 365.871L162.529 367.37ZM200.998 362.281L201.379 363.732L200.998 362.281ZM237.223 342.801L236.36 341.574L236.36 341.574L237.223 342.801ZM258.4 320.092L259.866 320.409L258.4 320.092ZM253.748 294.975L255.005 294.156L255.005 294.156L253.748 294.975ZM139.601 291.199L140.504 292.397L139.601 291.199ZM110.982 356.043L109.488 355.91L110.982 356.043ZM131.064 423.952L129.92 424.922L131.064 423.952ZM190.163 450.929L190.232 449.431L190.163 450.929ZM261.081 440.094L260.694 438.645L261.081 440.094ZM332.327 421.599L332.707 423.05L332.327 421.599ZM509.37 411.825C509.956 411.239 509.956 410.289 509.37 409.703L499.824 400.157C499.238 399.572 498.289 399.572 497.703 400.157C497.117 400.743 497.117 401.693 497.703 402.279L506.188 410.764L497.703 419.249C497.117 419.835 497.117 420.785 497.703 421.371C498.289 421.956 499.238 421.956 499.824 421.371L509.37 411.825ZM67.6945 2.67551C67.0474 3.19282 66.9422 4.13673 67.4596 4.78378C67.9769 5.43084 68.9208 5.53602 69.5678 5.0187L67.6945 2.67551ZM64.9971 8.79759C65.6269 8.25935 65.701 7.31251 65.1628 6.68275C64.6246 6.053 63.6777 5.97881 63.048 6.51704L64.9971 8.79759ZM58.5282 10.5091C57.9162 11.0676 57.8729 12.0163 58.4313 12.6282C58.9897 13.2402 59.9385 13.2835 60.5504 12.7251L58.5282 10.5091ZM56.235 16.7934C56.8285 16.2154 56.8411 15.2658 56.2631 14.6723C55.6852 14.0788 54.7355 14.0662 54.142 14.6441L56.235 16.7934ZM49.8913 18.9201C49.3169 19.517 49.3351 20.4666 49.9321 21.041C50.529 21.6154 51.4786 21.5972 52.053 21.0003L49.8913 18.9201ZM48.0104 25.3408C48.5651 24.7254 48.5158 23.7769 47.9004 23.2223C47.285 22.6677 46.3366 22.7169 45.782 23.3323L48.0104 25.3408ZM41.8196 27.8772C41.2856 28.5106 41.3661 29.4569 41.9995 29.9909C42.6328 30.5249 43.5792 30.4444 44.1131 29.811L41.8196 27.8772ZM40.3669 34.4081C40.8793 33.7572 40.7671 32.8141 40.1162 32.3016C39.4653 31.7892 38.5222 31.9014 38.0098 32.5523L40.3669 34.4081ZM34.3598 37.3539C33.8699 38.0219 34.0142 38.9607 34.6822 39.4506C35.3502 39.9406 36.2889 39.7962 36.7789 39.1282L34.3598 37.3539ZM33.3565 43.9684C33.8229 43.2837 33.6459 42.3506 32.9612 41.8843C32.2765 41.4179 31.3434 41.5949 30.877 42.2796L33.3565 43.9684ZM27.5696 47.3263C27.128 48.0272 27.3383 48.9534 28.0392 49.395C28.7401 49.8365 29.6663 49.6263 30.1079 48.9254L27.5696 47.3263ZM27.0419 53.9956C27.4574 53.2789 27.2132 52.3611 26.4965 51.9456C25.7798 51.5301 24.862 51.7742 24.4465 52.4909L27.0419 53.9956ZM21.5178 57.7695C21.1298 58.5014 21.4086 59.4094 22.1405 59.7974C22.8724 60.1854 23.7804 59.9067 24.1684 59.1747L21.5178 57.7695ZM21.4969 64.4598C21.856 63.7133 21.5419 62.817 20.7953 62.4579C20.0488 62.0988 19.1525 62.4129 18.7934 63.1595L21.4969 64.4598ZM16.2852 68.6546C15.9566 69.4151 16.3068 70.298 17.0673 70.6265C17.8278 70.9551 18.7106 70.605 19.0392 69.8445L16.2852 68.6546ZM16.806 75.3242C17.1024 74.5506 16.7156 73.6832 15.942 73.3868C15.1684 73.0904 14.301 73.4773 14.0046 74.2509L16.806 75.3242ZM11.9642 79.9414C11.7017 80.7271 12.1259 81.5769 12.9116 81.8394C13.6973 82.1019 14.5471 81.6777 14.8096 80.892L11.9642 79.9414ZM13.0622 86.5399C13.289 85.7432 12.8271 84.9133 12.0303 84.6865C11.2336 84.4596 10.4037 84.9216 10.1769 85.7183L13.0622 86.5399ZM8.65522 91.5739C8.46571 92.3804 8.96585 93.1877 9.77231 93.3773C10.5788 93.5668 11.3862 93.0666 11.5757 92.2602L8.65522 91.5739ZM10.3624 98.0417C10.5129 97.2271 9.97445 96.4447 9.1598 96.2942C8.34515 96.1438 7.56277 96.6822 7.41232 97.4969L10.3624 98.0417ZM6.44774 103.376C6.32284 104.195 6.88549 104.96 7.70445 105.085C8.5234 105.21 9.28855 104.647 9.41345 103.829L6.44774 103.376ZM8.57276 109.591C8.68713 108.77 8.1147 108.012 7.2942 107.898C6.47371 107.784 5.71585 108.356 5.60149 109.176L8.57276 109.591ZM4.82844 114.987C4.72423 115.808 5.30599 116.559 6.12783 116.663C6.94968 116.768 7.7004 116.186 7.80461 115.364L4.82844 114.987ZM7.1065 121.147C7.2009 120.324 6.61024 119.58 5.78721 119.486C4.96417 119.392 4.22045 119.982 4.12604 120.805L7.1065 121.147ZM3.49192 126.631C3.407 127.455 4.00619 128.192 4.83025 128.277C5.65432 128.362 6.39119 127.763 6.47611 126.939L3.49192 126.631ZM5.91139 132.737C5.98712 131.912 5.37975 131.182 4.5548 131.107C3.72984 131.031 2.99968 131.638 2.92395 132.463L5.91139 132.737ZM2.42004 138.3C2.35323 139.126 2.96845 139.85 3.79418 139.916C4.6199 139.983 5.34345 139.368 5.41027 138.542L2.42004 138.3ZM4.97092 144.353C5.02907 143.527 4.40628 142.81 3.5799 142.751C2.75352 142.693 2.03646 143.316 1.97832 144.142L4.97092 144.353ZM1.59712 149.988C1.54741 150.815 2.17748 151.526 3.00442 151.576C3.83135 151.625 4.54201 150.995 4.59171 150.168L1.59712 149.988ZM4.27112 155.987C4.31259 155.16 3.67548 154.456 2.84809 154.414C2.0207 154.373 1.31636 155.01 1.27488 155.837L4.27112 155.987ZM1.01021 161.689C0.976785 162.517 1.62071 163.215 2.44847 163.248C3.27622 163.281 3.97434 162.638 4.00777 161.81L1.01021 161.689ZM3.8004 167.635C3.82595 166.807 3.1754 166.115 2.34737 166.089C1.51934 166.064 0.827372 166.714 0.801824 167.542L3.8004 167.635ZM0.648592 173.397C0.630769 174.225 1.28774 174.911 2.11597 174.929C2.94421 174.947 3.63007 174.29 3.6479 173.462L0.648592 173.397ZM3.54927 179.29C3.5595 178.461 2.89627 177.781 2.06791 177.771C1.23954 177.761 0.559727 178.424 0.549494 179.253L3.54927 179.29ZM0.503631 185.109C0.500872 185.938 1.17021 186.611 1.99863 186.614C2.82705 186.617 3.50086 185.948 3.50361 185.119L0.503631 185.109ZM3.5102 190.949C3.50559 190.121 2.83028 189.453 2.00187 189.457C1.17345 189.462 0.505632 190.137 0.510247 190.966L3.5102 190.949ZM0.568685 196.821C0.580591 197.65 1.26175 198.312 2.09009 198.3C2.91843 198.288 3.58028 197.607 3.56838 196.778L0.568685 196.821ZM3.6776 202.607C3.65847 201.778 2.97157 201.122 2.14336 201.142C1.31516 201.161 0.659273 201.848 0.678403 202.676L3.6776 202.607ZM0.848339 208.717C0.876729 209.545 1.57092 210.193 2.39886 210.165C3.2268 210.136 3.87497 209.442 3.84658 208.614L0.848339 208.717ZM4.10508 214.797C4.06394 213.97 3.35985 213.332 2.53244 213.374C1.70504 213.415 1.06764 214.119 1.10878 214.946L4.10508 214.797ZM1.47258 221.174C1.5284 222 2.24369 222.625 3.07023 222.569C3.89678 222.513 4.52158 221.798 4.46577 220.972L1.47258 221.174ZM4.94307 227.134C4.87061 226.309 4.14287 225.699 3.31762 225.771C2.49237 225.844 1.88211 226.571 1.95457 227.397L4.94307 227.134ZM2.56985 233.612C2.66096 234.435 3.40231 235.029 4.22571 234.938C5.04911 234.846 5.64276 234.105 5.55166 233.282L2.56985 233.612ZM6.3063 239.409C6.19454 238.588 5.43851 238.013 4.61766 238.125C3.7968 238.237 3.22197 238.993 3.33372 239.814L6.3063 239.409ZM4.26143 245.997C4.39581 246.815 5.16743 247.368 5.98489 247.234C6.80234 247.1 7.35608 246.328 7.22169 245.511L4.26143 245.997ZM8.31221 251.579C8.15326 250.766 7.36532 250.236 6.55228 250.395C5.73924 250.554 5.209 251.342 5.36794 252.155L8.31221 251.579ZM6.66762 258.279C6.85294 259.086 7.65772 259.591 8.46516 259.405C9.27259 259.22 9.77692 258.415 9.5916 257.608L6.66762 258.279ZM11.0726 263.586C10.8593 262.785 10.0374 262.309 9.23693 262.523C8.43645 262.736 7.96048 263.558 8.17383 264.358L11.0726 263.586ZM9.89846 270.383C10.1413 271.175 10.9802 271.62 11.7722 271.378C12.5643 271.135 13.0095 270.296 12.7667 269.504L9.89846 270.383ZM14.6834 275.35C14.4099 274.568 13.5543 274.156 12.7723 274.43C11.9903 274.703 11.5781 275.559 11.8515 276.341L14.6834 275.35ZM14.0408 282.218C14.3458 282.988 15.2174 283.365 15.9876 283.06C16.7579 282.756 17.1351 281.884 16.8302 281.114L14.0408 282.218ZM19.212 286.782C18.8751 286.025 17.9884 285.685 17.2316 286.021C16.4748 286.358 16.1344 287.245 16.4713 288.002L19.212 286.782ZM19.1451 293.679C19.5141 294.421 20.4145 294.723 21.1562 294.354C21.8979 293.985 22.2001 293.085 21.8311 292.343L19.1451 293.679ZM24.6871 297.785C24.2863 297.06 23.3737 296.798 22.6487 297.198C21.9236 297.599 21.6607 298.512 22.0614 299.237L24.6871 297.785ZM25.2218 304.667C25.6549 305.373 26.5785 305.594 27.2847 305.161C27.9908 304.728 28.2122 303.804 27.7791 303.098L25.2218 304.667ZM31.1167 308.266C30.6512 307.581 29.7184 307.402 29.0331 307.868C28.3478 308.333 28.1696 309.266 28.6351 309.952L31.1167 308.266ZM32.2893 315.071C32.7861 315.734 33.7262 315.869 34.3892 315.372C35.0521 314.875 35.1867 313.935 34.6899 313.272L32.2893 315.071ZM38.4926 318.106C37.9652 317.467 37.0197 317.376 36.3809 317.904C35.7421 318.431 35.6518 319.377 36.1793 320.016L38.4926 318.106ZM40.3015 324.771C40.8591 325.384 41.8078 325.428 42.4205 324.871C43.0331 324.313 43.0777 323.364 42.52 322.752L40.3015 324.771ZM46.7685 327.192C46.1809 326.608 45.2311 326.611 44.6472 327.199C44.0632 327.786 44.0662 328.736 44.6538 329.32L46.7685 327.192ZM49.236 333.643C49.8534 334.195 50.8017 334.142 51.354 333.525C51.9064 332.907 51.8536 331.959 51.2362 331.407L49.236 333.643ZM55.9207 335.371C55.2736 334.854 54.3297 334.959 53.8125 335.606C53.2952 336.253 53.4005 337.197 54.0476 337.715L55.9207 335.371ZM59.0888 341.508C59.7653 341.987 60.7014 341.826 61.1795 341.149C61.6577 340.473 61.4969 339.537 60.8204 339.059L59.0888 341.508ZM65.9303 342.436C65.225 342.002 64.301 342.221 63.8665 342.927C63.432 343.632 63.6516 344.556 64.3569 344.99L65.9303 342.436ZM69.8473 348.124C70.5804 348.509 71.4874 348.227 71.8731 347.494C72.2588 346.761 71.9771 345.854 71.2439 345.468L69.8473 348.124ZM76.7511 348.117C75.9917 347.786 75.1077 348.133 74.7764 348.892C74.4451 349.651 74.7921 350.535 75.5515 350.867L76.7511 348.117ZM81.3487 353.183C82.1233 353.477 82.9893 353.087 83.283 352.312C83.5767 351.538 83.1868 350.672 82.4122 350.378L81.3487 353.183ZM88.1277 352.475C87.3469 352.198 86.4895 352.606 86.2126 353.387C85.9358 354.168 86.3443 355.025 87.1251 355.302L88.1277 352.475ZM92.9482 357.295C93.735 357.554 94.583 357.126 94.8424 356.34C95.1017 355.553 94.6742 354.705 93.8874 354.445L92.9482 357.295ZM99.6893 356.284C98.8967 356.043 98.0588 356.49 97.8177 357.283C97.5765 358.075 98.0236 358.913 98.8161 359.154L99.6893 356.284ZM104.727 360.876C105.525 361.098 106.352 360.631 106.574 359.833C106.796 359.035 106.329 358.208 105.531 357.986L104.727 360.876ZM111.412 359.544C110.608 359.342 109.793 359.829 109.591 360.633C109.389 361.436 109.876 362.251 110.68 362.453L111.412 359.544ZM116.672 363.879C117.48 364.06 118.283 363.552 118.464 362.744C118.645 361.935 118.137 361.133 117.328 360.952L116.672 363.879ZM123.278 362.202C122.465 362.043 121.677 362.573 121.518 363.386C121.359 364.199 121.889 364.987 122.702 365.146L123.278 362.202ZM128.766 366.245C129.583 366.381 130.356 365.829 130.492 365.012C130.628 364.195 130.076 363.422 129.259 363.286L128.766 366.245ZM135.267 364.196C134.446 364.084 133.69 364.659 133.578 365.48C133.466 366.301 134.041 367.057 134.862 367.168L135.267 364.196ZM140.985 367.905C141.809 367.991 142.547 367.393 142.633 366.569C142.719 365.745 142.121 365.008 141.297 364.922L140.985 367.905ZM147.345 365.454C146.518 365.395 145.801 366.017 145.742 366.843C145.683 367.67 146.305 368.387 147.131 368.446L147.345 365.454ZM153.294 368.781C154.122 368.811 154.818 368.165 154.849 367.337C154.879 366.509 154.233 365.813 153.405 365.783L153.294 368.781ZM159.47 365.897C158.641 365.897 157.969 366.568 157.969 367.396C157.968 368.225 158.64 368.897 159.468 368.897L159.47 365.897ZM165.822 368.783C166.65 368.753 167.297 368.058 167.268 367.23C167.239 366.403 166.544 365.755 165.716 365.785L165.822 368.783ZM172.135 365.442C171.309 365.501 170.687 366.219 170.746 367.045C170.805 367.872 171.523 368.494 172.349 368.435L172.135 365.442ZM178.861 367.847C179.685 367.757 180.279 367.016 180.189 366.193C180.099 365.369 179.358 364.775 178.535 364.865L178.861 367.847ZM184.905 364.041C184.085 364.164 183.521 364.927 183.643 365.747C183.766 366.566 184.53 367.131 185.349 367.008L184.905 364.041ZM191.8 365.906C192.613 365.749 193.146 364.962 192.989 364.149C192.833 363.335 192.046 362.803 191.233 362.96L191.8 365.906ZM197.505 361.61C196.7 361.802 196.202 362.611 196.394 363.417C196.586 364.223 197.395 364.72 198.201 364.528L197.505 361.61ZM204.767 362.736C205.555 362.48 205.986 361.634 205.73 360.846C205.474 360.058 204.628 359.627 203.84 359.883L204.767 362.736ZM210.136 357.472C209.377 357.805 209.032 358.69 209.365 359.448C209.698 360.207 210.583 360.552 211.341 360.219L210.136 357.472ZM217.639 357.146C218.37 356.755 218.645 355.846 218.254 355.116C217.864 354.385 216.955 354.11 216.224 354.501L217.639 357.146ZM222.125 351.109C221.418 351.542 221.196 352.465 221.628 353.172C222.06 353.878 222.983 354.101 223.69 353.669L222.125 351.109ZM229.543 349.919C230.232 349.459 230.419 348.528 229.959 347.839C229.5 347.149 228.569 346.963 227.879 347.422L229.543 349.919ZM233.543 343.549C232.863 344.022 232.697 344.957 233.17 345.637C233.644 346.316 234.579 346.483 235.259 346.009L233.543 343.549ZM240.252 342.521C240.934 342.049 241.104 341.115 240.633 340.434C240.162 339.752 239.227 339.582 238.546 340.053L240.252 342.521ZM242.863 337.024C242.192 337.509 242.041 338.447 242.526 339.118C243.012 339.79 243.95 339.94 244.621 339.455L242.863 337.024ZM248.905 336.167C249.544 335.64 249.634 334.694 249.107 334.056C248.579 333.417 247.634 333.326 246.995 333.854L248.905 336.167ZM250.781 330.386C250.205 330.982 250.221 331.931 250.817 332.507C251.413 333.083 252.362 333.067 252.938 332.471L250.781 330.386ZM256.463 328.174C256.927 327.487 256.747 326.555 256.061 326.091C255.375 325.627 254.442 325.807 253.978 326.493L256.463 328.174ZM256.25 322.119C255.964 322.897 256.363 323.759 257.14 324.045C257.918 324.331 258.78 323.932 259.066 323.155L256.25 322.119ZM260.397 317.012C260.48 316.187 259.878 315.452 259.054 315.37C258.23 315.288 257.495 315.889 257.412 316.713L260.397 317.012ZM257.411 310.473C257.489 311.298 258.221 311.903 259.046 311.825C259.871 311.747 260.476 311.015 260.398 310.19L257.411 310.473ZM259.156 303.505C258.933 302.707 258.106 302.241 257.308 302.465C256.51 302.688 256.044 303.515 256.267 304.313L259.156 303.505ZM254.032 298.484C254.403 299.225 255.305 299.524 256.045 299.152C256.785 298.781 257.084 297.879 256.713 297.139L254.032 298.484ZM253.13 291.519C252.623 290.863 251.681 290.743 251.026 291.249C250.37 291.756 250.25 292.698 250.757 293.354L253.13 291.519ZM246.736 288.89C247.333 289.464 248.283 289.446 248.857 288.849C249.432 288.252 249.413 287.302 248.816 286.728L246.736 288.89ZM243.913 282.588C243.249 282.093 242.309 282.231 241.815 282.896C241.32 283.561 241.458 284.5 242.123 284.995L243.913 282.588ZM237.062 281.651C237.776 282.071 238.695 281.831 239.115 281.117C239.534 280.402 239.295 279.483 238.58 279.064L237.062 281.651ZM232.935 276.108C232.184 275.758 231.292 276.084 230.942 276.835C230.592 277.586 230.917 278.478 231.668 278.828L232.935 276.108ZM226.029 276.491C226.807 276.776 227.669 276.377 227.954 275.599C228.239 274.821 227.839 273.959 227.061 273.674L226.029 276.491ZM221.019 271.728C220.221 271.505 219.393 271.97 219.17 272.768C218.946 273.566 219.412 274.394 220.21 274.617L221.019 271.728ZM214.26 273.19C215.072 273.353 215.863 272.827 216.026 272.014C216.189 271.202 215.663 270.412 214.85 270.249L214.26 273.19ZM208.59 269.233C207.768 269.132 207.019 269.716 206.917 270.538C206.815 271.36 207.399 272.109 208.222 272.211L208.59 269.233ZM202.129 271.699C202.957 271.735 203.657 271.093 203.693 270.265C203.729 269.437 203.087 268.737 202.26 268.701L202.129 271.699ZM195.812 268.709C194.984 268.747 194.345 269.449 194.383 270.276C194.421 271.104 195.123 271.744 195.951 271.705L195.812 268.709ZM189.689 272.26C190.511 272.154 191.091 271.402 190.985 270.58C190.879 269.759 190.128 269.178 189.306 269.284L189.689 272.26ZM182.881 270.349C182.069 270.512 181.543 271.303 181.707 272.115C181.871 272.927 182.662 273.453 183.474 273.289L182.881 270.349ZM177.329 274.735C178.129 274.52 178.604 273.698 178.389 272.897C178.174 272.097 177.352 271.623 176.552 271.837L177.329 274.735ZM170.33 273.705C169.544 273.966 169.118 274.815 169.379 275.601C169.64 276.387 170.489 276.813 171.275 276.552L170.33 273.705ZM165.33 278.711C166.101 278.407 166.479 277.536 166.175 276.765C165.871 275.995 164.999 275.617 164.229 275.921L165.33 278.711ZM158.259 278.468C157.507 278.814 157.177 279.704 157.522 280.457C157.868 281.21 158.759 281.54 159.512 281.194L158.259 278.468ZM153.84 283.992C154.572 283.605 154.852 282.697 154.465 281.965C154.078 281.232 153.17 280.952 152.438 281.339L153.84 283.992ZM146.787 284.54C146.078 284.97 145.852 285.892 146.282 286.6C146.711 287.309 147.634 287.535 148.342 287.105L146.787 284.54ZM143.051 290.548C143.73 290.074 143.896 289.138 143.421 288.459C142.947 287.78 142.012 287.615 141.333 288.089L143.051 290.548ZM136.255 291.953C135.623 292.489 135.544 293.435 136.079 294.067C136.614 294.7 137.561 294.779 138.193 294.243L136.255 291.953ZM133.897 298.307C134.467 297.706 134.442 296.756 133.841 296.186C133.24 295.616 132.291 295.641 131.721 296.242L133.897 298.307ZM127.672 300.983C127.167 301.639 127.29 302.581 127.946 303.086C128.603 303.592 129.544 303.469 130.05 302.813L127.672 300.983ZM126.656 307.686C127.098 306.985 126.888 306.059 126.187 305.617C125.486 305.176 124.559 305.386 124.118 306.087L126.656 307.686ZM121.039 311.476C120.658 312.212 120.946 313.117 121.681 313.498C122.417 313.879 123.322 313.591 123.703 312.856L121.039 311.476ZM121.164 318.256C121.488 317.494 121.134 316.613 120.372 316.288C119.61 315.963 118.729 316.318 118.404 317.08L121.164 318.256ZM116.174 322.843C115.9 323.625 116.312 324.481 117.094 324.755C117.876 325.029 118.731 324.617 119.005 323.835L116.174 322.843ZM117.193 329.548C117.421 328.752 116.96 327.922 116.164 327.694C115.367 327.466 114.537 327.927 114.309 328.723L117.193 329.548ZM112.771 334.686C112.584 335.494 113.087 336.299 113.894 336.486C114.701 336.673 115.507 336.17 115.693 335.362L112.771 334.686ZM114.475 341.251C114.624 340.436 114.085 339.654 113.271 339.505C112.456 339.355 111.674 339.894 111.524 340.709L114.475 341.251ZM110.538 346.77C110.421 347.591 110.992 348.35 111.812 348.467C112.632 348.584 113.391 348.014 113.508 347.193L110.538 346.77ZM112.768 353.177C112.855 352.353 112.258 351.614 111.434 351.527C110.61 351.44 109.872 352.037 109.785 352.861L112.768 353.177ZM109.258 358.974C109.207 359.801 109.836 360.512 110.663 360.563C111.49 360.613 112.202 359.984 112.252 359.157L109.258 358.974ZM112.057 365.128C112.06 364.3 111.391 363.625 110.563 363.622C109.734 363.619 109.06 364.287 109.057 365.116L112.057 365.128ZM109.212 371.263C109.257 372.09 109.965 372.724 110.792 372.678C111.619 372.633 112.253 371.925 112.207 371.098L109.212 371.263ZM112.715 377.045C112.619 376.222 111.874 375.633 111.052 375.728C110.229 375.824 109.639 376.569 109.735 377.391L112.715 377.045ZM110.636 383.479C110.783 384.294 111.564 384.836 112.379 384.689C113.194 384.541 113.736 383.761 113.588 382.946L110.636 383.479ZM114.837 388.776C114.637 387.972 113.824 387.482 113.02 387.682C112.216 387.882 111.726 388.696 111.926 389.5L114.837 388.776ZM113.611 395.425C113.865 396.214 114.71 396.648 115.498 396.394C116.287 396.141 116.721 395.296 116.468 394.508L113.611 395.425ZM118.483 400.112C118.176 399.343 117.303 398.968 116.534 399.275C115.764 399.583 115.39 400.455 115.697 401.225L118.483 400.112ZM118.182 406.867C118.543 407.612 119.44 407.925 120.186 407.564C120.932 407.203 121.244 406.307 120.883 405.561L118.182 406.867ZM123.664 410.823C123.251 410.105 122.334 409.858 121.616 410.271C120.898 410.684 120.65 411.601 121.064 412.319L123.664 410.823ZM124.331 417.551C124.795 418.237 125.727 418.418 126.414 417.954C127.1 417.49 127.28 416.557 126.816 415.871L124.331 417.551ZM130.325 420.676C129.813 420.025 128.87 419.913 128.219 420.425C127.568 420.938 127.455 421.881 127.968 422.532L130.325 420.676ZM131.81 427.051C132.374 427.658 133.323 427.693 133.93 427.13C134.537 426.566 134.572 425.617 134.008 425.01L131.81 427.051ZM137.873 428.824C137.259 428.267 136.31 428.314 135.754 428.928C135.198 429.542 135.244 430.49 135.858 431.047L137.873 428.824ZM140.216 434.686C140.872 435.192 141.814 435.07 142.319 434.413C142.825 433.757 142.703 432.815 142.046 432.31L140.216 434.686ZM146.484 435.468C145.792 435.013 144.861 435.205 144.406 435.897C143.951 436.589 144.143 437.52 144.835 437.975L146.484 435.468ZM149.674 440.918C150.397 441.324 151.311 441.067 151.717 440.345C152.123 439.623 151.866 438.708 151.144 438.303L149.674 440.918ZM155.99 440.817C155.243 440.459 154.347 440.776 153.99 441.523C153.633 442.271 153.949 443.166 154.697 443.523L155.99 440.817ZM159.873 445.798C160.641 446.107 161.515 445.735 161.824 444.966C162.134 444.198 161.761 443.324 160.993 443.015L159.873 445.798ZM166.125 444.9C165.339 444.638 164.49 445.063 164.228 445.849C163.966 446.635 164.391 447.484 165.177 447.746L166.125 444.9ZM170.588 449.37C171.388 449.584 172.211 449.109 172.425 448.309C172.639 447.508 172.164 446.686 171.364 446.472L170.588 449.37ZM176.687 447.728C175.875 447.562 175.083 448.085 174.917 448.897C174.751 449.708 175.274 450.501 176.086 450.667L176.687 447.728ZM181.653 451.631C182.473 451.748 183.232 451.177 183.349 450.357C183.465 449.537 182.895 448.778 182.074 448.661L181.653 451.631ZM187.507 449.261C186.682 449.196 185.959 449.813 185.895 450.639C185.83 451.465 186.447 452.187 187.272 452.252L187.507 449.261ZM193.13 452.528C193.958 452.546 194.644 451.888 194.661 451.06C194.678 450.232 194.021 449.546 193.192 449.529L193.13 452.528ZM199.126 449.513C198.297 449.534 197.643 450.222 197.664 451.051C197.684 451.879 198.373 452.533 199.201 452.512L199.126 449.513ZM205.256 452.235C206.083 452.18 206.709 451.466 206.655 450.64C206.6 449.813 205.886 449.187 205.06 449.241L205.256 452.235ZM210.986 448.742C210.162 448.826 209.562 449.563 209.646 450.387C209.73 451.211 210.466 451.811 211.29 451.727L210.986 448.742ZM217.298 451.017C218.119 450.908 218.696 450.153 218.586 449.332C218.476 448.511 217.721 447.934 216.9 448.044L217.298 451.017ZM222.796 447.171C221.978 447.303 221.423 448.073 221.555 448.891C221.688 449.709 222.458 450.265 223.276 450.132L222.796 447.171ZM229.224 449.094C230.038 448.942 230.575 448.159 230.423 447.345C230.271 446.53 229.488 445.993 228.673 446.145L229.224 449.094ZM234.531 444.988C233.72 445.157 233.199 445.951 233.368 446.762C233.537 447.573 234.331 448.094 235.142 447.925L234.531 444.988ZM241.033 446.645C241.841 446.462 242.348 445.658 242.165 444.85C241.982 444.042 241.179 443.536 240.371 443.719L241.033 446.645ZM246.193 442.355C245.388 442.549 244.893 443.36 245.087 444.165C245.282 444.97 246.093 445.465 246.898 445.271L246.193 442.355ZM252.74 443.821C253.543 443.617 254.028 442.801 253.824 441.998C253.62 441.195 252.804 440.71 252.001 440.914L252.74 443.821ZM257.8 439.412C256.999 439.623 256.52 440.444 256.731 441.245C256.942 442.046 257.762 442.524 258.564 442.313L257.8 439.412ZM264.538 440.738C265.34 440.531 265.823 439.713 265.616 438.911C265.408 438.109 264.59 437.626 263.788 437.833L264.538 440.738ZM269.987 436.276C269.182 436.473 268.69 437.285 268.887 438.09C269.084 438.894 269.897 439.387 270.701 439.189L269.987 436.276ZM276.886 437.7C277.692 437.508 278.19 436.7 277.999 435.894C277.808 435.088 276.999 434.589 276.193 434.781L276.886 437.7ZM282.4 433.318C281.594 433.508 281.093 434.315 281.282 435.121C281.472 435.928 282.279 436.428 283.085 436.239L282.4 433.318ZM289.292 434.778C290.098 434.587 290.597 433.779 290.406 432.973C290.215 432.167 289.406 431.668 288.6 431.859L289.292 434.778ZM294.787 430.373C293.982 430.569 293.489 431.381 293.686 432.186C293.882 432.991 294.694 433.484 295.499 433.287L294.787 430.373ZM301.472 431.787C302.273 431.578 302.754 430.758 302.545 429.957C302.335 429.155 301.516 428.675 300.715 428.884L301.472 431.787ZM306.386 427.354C305.588 427.576 305.12 428.403 305.341 429.201C305.563 429.999 306.389 430.467 307.188 430.245L306.386 427.354ZM312.875 428.638C313.671 428.409 314.132 427.579 313.903 426.782C313.675 425.986 312.844 425.526 312.048 425.754L312.875 428.638ZM317.711 424.121C316.916 424.351 316.457 425.182 316.687 425.978C316.916 426.774 317.748 427.233 318.544 427.003L317.711 424.121ZM324.205 425.379C325.002 425.154 325.465 424.324 325.239 423.527C325.014 422.73 324.184 422.267 323.387 422.493L324.205 425.379ZM329.086 420.91C328.286 421.127 327.814 421.951 328.03 422.75C328.247 423.55 329.071 424.023 329.87 423.806L329.086 420.91ZM335.551 422.321C336.354 422.119 336.842 421.305 336.641 420.501C336.439 419.698 335.624 419.21 334.821 419.411L335.551 422.321ZM340.584 418.028C339.776 418.213 339.272 419.018 339.457 419.826C339.642 420.633 340.447 421.137 341.254 420.952L340.584 418.028ZM346.985 419.698C347.795 419.529 348.316 418.734 348.147 417.923C347.977 417.112 347.183 416.592 346.372 416.761L346.985 419.698ZM352.183 415.607C351.369 415.761 350.833 416.545 350.987 417.359C351.141 418.173 351.925 418.709 352.739 418.555L352.183 415.607ZM358.515 417.519C359.332 417.38 359.882 416.606 359.743 415.789C359.604 414.972 358.829 414.423 358.013 414.562L358.515 417.519ZM363.86 413.621C363.041 413.745 362.478 414.51 362.602 415.329C362.727 416.148 363.491 416.711 364.31 416.587L363.86 413.621ZM370.122 415.754C370.943 415.643 371.519 414.887 371.408 414.066C371.297 413.245 370.542 412.67 369.721 412.78L370.122 415.754ZM375.593 412.036C374.771 412.134 374.183 412.88 374.281 413.702C374.379 414.525 375.125 415.113 375.947 415.015L375.593 412.036ZM381.785 414.366C382.609 414.281 383.208 413.543 383.122 412.719C383.037 411.895 382.3 411.297 381.476 411.382L381.785 414.366ZM387.366 410.814C386.541 410.888 385.932 411.617 386.005 412.442C386.079 413.267 386.808 413.876 387.633 413.802L387.366 410.814ZM393.489 413.318C394.315 413.256 394.934 412.535 394.871 411.709C394.808 410.883 394.088 410.264 393.262 410.327L393.489 413.318ZM399.162 409.915C398.335 409.968 397.708 410.681 397.76 411.508C397.813 412.334 398.526 412.962 399.353 412.909L399.162 409.915ZM405.222 412.57C406.049 412.527 406.685 411.821 406.641 410.994C406.598 410.166 405.893 409.531 405.065 409.574L405.222 412.57ZM410.971 409.297C410.143 409.332 409.5 410.031 409.534 410.858C409.569 411.686 410.268 412.329 411.096 412.295L410.971 409.297ZM416.973 412.078C417.801 412.052 418.451 411.359 418.424 410.531C418.398 409.703 417.705 409.053 416.877 409.08L416.973 412.078ZM422.784 408.916C421.956 408.936 421.3 409.623 421.32 410.451C421.339 411.279 422.026 411.935 422.854 411.916L422.784 408.916ZM428.738 411.801C429.566 411.788 430.227 411.106 430.214 410.278C430.201 409.449 429.519 408.789 428.691 408.801L428.738 411.801ZM434.597 408.729C433.768 408.737 433.103 409.414 433.11 410.243C433.117 411.071 433.795 411.737 434.623 411.729L434.597 408.729ZM440.51 411.695C441.339 411.693 442.008 411.019 442.006 410.191C442.004 409.362 441.33 408.693 440.502 408.695L440.51 411.695ZM446.405 408.693C445.577 408.691 444.904 409.361 444.902 410.19C444.901 411.018 445.571 411.691 446.399 411.693L446.405 408.693ZM452.289 411.717C453.118 411.722 453.793 411.055 453.798 410.226C453.803 409.398 453.136 408.722 452.308 408.717L452.289 411.717ZM458.208 408.763C457.38 408.755 456.702 409.421 456.695 410.249C456.687 411.077 457.352 411.755 458.181 411.763L458.208 408.763ZM464.073 411.824C464.902 411.834 465.581 411.17 465.59 410.342C465.6 409.514 464.936 408.834 464.108 408.825L464.073 411.824ZM470.005 408.897C469.177 408.886 468.497 409.549 468.486 410.378C468.476 411.206 469.138 411.886 469.967 411.897L470.005 408.897ZM475.862 411.975C476.69 411.986 477.371 411.323 477.382 410.495C477.393 409.667 476.73 408.986 475.902 408.975L475.862 411.975ZM481.797 409.053C480.968 409.042 480.288 409.705 480.277 410.533C480.267 411.362 480.93 412.042 481.758 412.053L481.797 409.053ZM487.656 412.125C488.484 412.135 489.163 411.471 489.173 410.643C489.183 409.815 488.519 409.135 487.69 409.126L487.656 412.125ZM493.583 409.188C492.755 409.18 492.077 409.845 492.069 410.674C492.061 411.502 492.726 412.18 493.555 412.188L493.583 409.188ZM499.455 412.235C500.284 412.24 500.96 411.573 500.965 410.744C500.97 409.916 500.303 409.24 499.474 409.235L499.455 412.235ZM505.364 409.261C504.536 409.259 503.863 409.929 503.861 410.757C503.859 411.585 504.529 412.259 505.358 412.261L505.364 409.261ZM70.0639 0.813072C69.2704 1.42621 68.4805 2.04707 67.6945 2.67551L69.5678 5.0187C70.341 4.40057 71.1179 3.78994 71.8982 3.18693L70.0639 0.813072ZM63.048 6.51704C61.5241 7.81948 60.0169 9.15054 58.5282 10.5091L60.5504 12.7251C62.0151 11.3884 63.4979 10.0789 64.9971 8.79759L63.048 6.51704ZM54.142 14.6441C52.7047 16.0438 51.2872 17.4695 49.8913 18.9201L52.053 21.0003C53.4263 19.5731 54.8209 18.1705 56.235 16.7934L54.142 14.6441ZM45.782 23.3323C44.4376 24.824 43.1162 26.3393 41.8196 27.8772L44.1131 29.811C45.3884 28.2985 46.688 26.808 48.0104 25.3408L45.782 23.3323ZM38.0098 32.5523C36.7663 34.1316 35.5491 35.7325 34.3598 37.3539L36.7789 39.1282C37.9478 37.5346 39.1443 35.9609 40.3669 34.4081L38.0098 32.5523ZM30.877 42.2796C29.7443 43.9426 28.6413 45.6252 27.5696 47.3263L30.1079 48.9254C31.1603 47.2549 32.2437 45.6022 33.3565 43.9684L30.877 42.2796ZM24.4465 52.4909C23.4365 54.2332 22.4597 55.993 21.5178 57.7695L24.1684 59.1747C25.0922 57.4322 26.0506 55.7055 27.0419 53.9956L24.4465 52.4909ZM18.7934 63.1595C17.9197 64.9758 17.0831 66.8079 16.2852 68.6546L19.0392 69.8445C19.8207 68.0355 20.6405 66.2403 21.4969 64.4598L18.7934 63.1595ZM14.0046 74.2509C13.283 76.1343 12.6023 78.0315 11.9642 79.9414L14.8096 80.892C15.4337 79.024 16.0997 77.1678 16.806 75.3242L14.0046 74.2509ZM10.1769 85.7183C9.62428 87.6589 9.11646 89.6111 8.65522 91.5739L11.5757 92.2602C12.0261 90.3435 12.5221 88.4364 13.0622 86.5399L10.1769 85.7183ZM7.41232 97.4969C7.22908 98.489 7.05797 99.4835 6.89919 100.48L9.86184 100.952C10.0167 99.98 10.1836 99.0098 10.3624 98.0417L7.41232 97.4969ZM6.89919 100.48C6.7457 101.444 6.59523 102.409 6.44774 103.376L9.41345 103.829C9.55994 102.868 9.7094 101.909 9.86184 100.952L6.89919 100.48ZM5.60149 109.176C5.33231 111.108 5.0747 113.044 4.82844 114.987L7.80461 115.364C8.04934 113.434 8.30532 111.509 8.57276 109.591L5.60149 109.176ZM4.12604 120.805C3.90375 122.743 3.69245 124.685 3.49192 126.631L6.47611 126.939C6.67548 125.004 6.88554 123.073 7.1065 121.147L4.12604 120.805ZM2.92395 132.463C2.74558 134.406 2.57768 136.352 2.42004 138.3L5.41027 138.542C5.56705 136.605 5.73402 134.67 5.91139 132.737L2.92395 132.463ZM1.97832 144.142C1.84131 146.09 1.71431 148.039 1.59712 149.988L4.59171 150.168C4.7083 148.229 4.83463 146.29 4.97092 144.353L1.97832 144.142ZM1.27488 155.837C1.17712 157.788 1.08896 159.739 1.01021 161.689L4.00777 161.81C4.08613 159.869 4.17385 157.928 4.27112 155.987L1.27488 155.837ZM0.801824 167.542C0.741566 169.495 0.690555 171.447 0.648592 173.397L3.6479 173.462C3.68966 171.521 3.74043 169.578 3.8004 167.635L0.801824 167.542ZM0.549494 179.253C0.525342 181.208 0.510123 183.16 0.503631 185.109L3.50361 185.119C3.51008 183.179 3.52523 181.236 3.54927 179.29L0.549494 179.253ZM0.510247 190.966C0.521146 192.922 0.540694 194.874 0.568685 196.821L3.56838 196.778C3.54051 194.84 3.52105 192.896 3.5102 190.949L0.510247 190.966ZM0.678403 202.676C0.700969 203.653 0.725629 204.628 0.752356 205.602L3.75123 205.52C3.72462 204.55 3.70007 203.579 3.6776 202.607L0.678403 202.676ZM0.752356 205.602C0.780881 206.642 0.812787 207.68 0.848339 208.717L3.84658 208.614C3.81127 207.584 3.77957 206.553 3.75123 205.52L0.752356 205.602ZM1.10878 214.946C1.21228 217.028 1.33282 219.104 1.47258 221.174L4.46577 220.972C4.32728 218.921 4.20776 216.862 4.10508 214.797L1.10878 214.946ZM1.95457 227.397C2.13704 229.475 2.34138 231.547 2.56985 233.612L5.55166 233.282C5.3258 231.24 5.12367 229.191 4.94307 227.134L1.95457 227.397ZM3.33372 239.814C3.61532 241.882 3.92378 243.943 4.26143 245.997L7.22169 245.511C6.88872 243.485 6.58433 241.451 6.3063 239.409L3.33372 239.814ZM5.36794 252.155C5.76853 254.204 6.20097 256.246 6.66762 258.279L9.5916 257.608C9.13248 255.607 8.70678 253.598 8.31221 251.579L5.36794 252.155ZM8.17383 264.358C8.71134 266.375 9.28543 268.384 9.89846 270.383L12.7667 269.504C12.1648 267.541 11.6009 265.568 11.0726 263.586L8.17383 264.358ZM11.8515 276.341C12.5398 278.309 13.2688 280.268 14.0408 282.218L16.8302 281.114C16.0734 279.202 15.3585 277.281 14.6834 275.35L11.8515 276.341ZM16.4713 288.002C17.3179 289.904 18.2085 291.796 19.1451 293.679L21.8311 292.343C20.9138 290.499 20.0415 288.645 19.212 286.782L16.4713 288.002ZM22.0614 299.237C22.5658 300.149 23.0817 301.059 23.6094 301.967L26.2029 300.459C25.6862 299.57 25.181 298.679 24.6871 297.785L22.0614 299.237ZM23.6094 301.967C24.1342 302.87 24.6717 303.77 25.2218 304.667L27.7791 303.098C27.2414 302.221 26.7159 301.341 26.2029 300.459L23.6094 301.967ZM28.6351 309.952C29.8077 311.678 31.0264 313.386 32.2893 315.071L34.6899 313.272C33.4551 311.624 32.2634 309.954 31.1167 308.266L28.6351 309.952ZM36.1793 320.016C37.5125 321.63 38.8872 323.217 40.3015 324.771L42.52 322.752C41.1388 321.234 39.7957 319.684 38.4926 318.106L36.1793 320.016ZM44.6538 329.32C46.1439 330.801 47.6719 332.243 49.236 333.643L51.2362 331.407C49.7122 330.043 48.2223 328.637 46.7685 327.192L44.6538 329.32ZM54.0476 337.715C55.6937 339.03 57.3748 340.297 59.0888 341.508L60.8204 339.059C59.156 337.882 57.5221 336.651 55.9207 335.371L54.0476 337.715ZM64.3569 344.99C66.1556 346.098 67.9864 347.145 69.8473 348.124L71.2439 345.468C69.445 344.522 67.6732 343.51 65.9303 342.436L64.3569 344.99ZM75.5515 350.867C76.52 351.289 77.4957 351.693 78.4784 352.077L79.5716 349.284C78.6252 348.913 77.685 348.524 76.7511 348.117L75.5515 350.867ZM78.4784 352.077C79.4316 352.451 80.3885 352.819 81.3487 353.183L82.4122 350.378C81.462 350.018 80.5151 349.653 79.5716 349.284L78.4784 352.077ZM87.1251 355.302C89.0544 355.986 90.9958 356.651 92.9482 357.295L93.8874 354.445C91.9566 353.809 90.0363 353.152 88.1277 352.475L87.1251 355.302ZM98.8161 359.154C100.777 359.751 102.748 360.325 104.727 360.876L105.531 357.986C103.576 357.442 101.628 356.874 99.6893 356.284L98.8161 359.154ZM110.68 362.453C112.67 362.954 114.668 363.43 116.672 363.879L117.328 360.952C115.35 360.509 113.378 360.039 111.412 359.544L110.68 362.453ZM122.702 365.146C124.719 365.541 126.741 365.908 128.766 366.245L129.259 363.286C127.262 362.954 125.268 362.592 123.278 362.202L122.702 365.146ZM134.862 367.168C136.901 367.446 138.942 367.692 140.985 367.905L141.297 364.922C139.286 364.712 137.275 364.469 135.267 364.196L134.862 367.168ZM147.131 368.446C149.186 368.593 151.241 368.705 153.294 368.781L153.405 365.783C151.387 365.708 149.366 365.598 147.345 365.454L147.131 368.446ZM159.468 368.897C160.498 368.898 161.527 368.889 162.556 368.87L162.502 365.871C161.492 365.889 160.481 365.898 159.47 365.897L159.468 368.897ZM162.556 368.87C163.644 368.85 164.733 368.821 165.822 368.783L165.716 365.785C164.644 365.823 163.573 365.851 162.502 365.871L162.556 368.87ZM172.349 368.435C174.522 368.28 176.694 368.084 178.861 367.847L178.535 364.865C176.406 365.098 174.272 365.29 172.135 365.442L172.349 368.435ZM185.349 367.008C187.506 366.685 189.657 366.318 191.8 365.906L191.233 362.96C189.132 363.364 187.022 363.724 184.905 364.041L185.349 367.008ZM198.201 364.528C199.263 364.275 200.322 364.01 201.379 363.732L200.617 360.831C199.583 361.102 198.546 361.362 197.505 361.61L198.201 364.528ZM201.379 363.732C202.519 363.433 203.649 363.1 204.767 362.736L203.84 359.883C202.774 360.229 201.699 360.546 200.617 360.831L201.379 363.732ZM211.341 360.219C213.479 359.282 215.578 358.249 217.639 357.146L216.224 354.501C214.222 355.572 212.194 356.57 210.136 357.472L211.341 360.219ZM223.69 353.669C225.672 352.457 227.622 351.199 229.543 349.919L227.879 347.422C225.983 348.686 224.066 349.922 222.125 351.109L223.69 353.669ZM235.259 346.009C236.208 345.347 237.15 344.686 238.086 344.028L236.36 341.574C235.425 342.231 234.487 342.89 233.543 343.549L235.259 346.009ZM238.086 344.028C238.788 343.534 239.512 343.033 240.252 342.521L238.546 340.053C237.806 340.565 237.073 341.072 236.36 341.574L238.086 344.028ZM244.621 339.455C246.061 338.414 247.507 337.322 248.905 336.167L246.995 333.854C245.662 334.955 244.27 336.006 242.863 337.024L244.621 339.455ZM252.938 332.471C254.231 331.133 255.427 329.706 256.463 328.174L253.978 326.493C253.056 327.856 251.977 329.149 250.781 330.386L252.938 332.471ZM259.066 323.155C259.392 322.27 259.661 321.355 259.866 320.409L256.934 319.774C256.759 320.579 256.53 321.36 256.25 322.119L259.066 323.155ZM259.866 320.409C260.106 319.3 260.282 318.164 260.397 317.012L257.412 316.713C257.308 317.758 257.149 318.782 256.934 319.774L259.866 320.409ZM260.398 310.19C260.184 307.937 259.766 305.685 259.156 303.505L256.267 304.313C256.829 306.322 257.215 308.397 257.411 310.473L260.398 310.19ZM256.713 297.139C256.194 296.104 255.624 295.106 255.005 294.156L252.491 295.794C253.046 296.645 253.56 297.545 254.032 298.484L256.713 297.139ZM255.005 294.156C254.416 293.252 253.79 292.373 253.13 291.519L250.757 293.354C251.368 294.145 251.948 294.959 252.491 295.794L255.005 294.156ZM248.816 286.728C247.283 285.253 245.642 283.874 243.913 282.588L242.123 284.995C243.757 286.21 245.301 287.509 246.736 288.89L248.816 286.728ZM238.58 279.064C236.757 277.994 234.869 277.009 232.935 276.108L231.668 278.828C233.521 279.691 235.325 280.632 237.062 281.651L238.58 279.064ZM227.061 273.674C225.07 272.945 223.05 272.297 221.019 271.728L220.21 274.617C222.169 275.165 224.114 275.79 226.029 276.491L227.061 273.674ZM214.85 270.249C212.752 269.827 210.659 269.489 208.59 269.233L208.222 272.211C210.217 272.457 212.235 272.783 214.26 273.19L214.85 270.249ZM202.26 268.701C201.188 268.655 200.128 268.632 199.082 268.632V271.632C200.083 271.632 201.1 271.654 202.129 271.699L202.26 268.701ZM199.082 268.632C198.001 268.632 196.91 268.658 195.812 268.709L195.951 271.705C197.004 271.656 198.049 271.632 199.082 271.632V268.632ZM189.306 269.284C187.177 269.558 185.031 269.915 182.881 270.349L183.474 273.289C185.558 272.869 187.634 272.524 189.689 272.26L189.306 269.284ZM176.552 271.837C174.469 272.396 172.392 273.02 170.33 273.705L171.275 276.552C173.283 275.886 175.305 275.278 177.329 274.735L176.552 271.837ZM164.229 275.921C162.211 276.717 160.217 277.568 158.259 278.468L159.512 281.194C161.42 280.317 163.363 279.488 165.33 278.711L164.229 275.921ZM152.438 281.339C150.503 282.362 148.615 283.431 146.787 284.54L148.342 287.105C150.119 286.028 151.955 284.988 153.84 283.992L152.438 281.339ZM141.333 288.089C140.434 288.717 139.555 289.355 138.698 290.001L140.504 292.397C141.332 291.773 142.181 291.156 143.051 290.548L141.333 288.089ZM138.698 290.001C137.861 290.632 137.047 291.283 136.255 291.953L138.193 294.243C138.943 293.609 139.712 292.994 140.504 292.397L138.698 290.001ZM131.721 296.242C130.285 297.756 128.937 299.339 127.672 300.983L130.05 302.813C131.254 301.248 132.535 299.743 133.897 298.307L131.721 296.242ZM124.118 306.087C123.016 307.836 121.992 309.636 121.039 311.476L123.703 312.856C124.619 311.086 125.602 309.36 126.656 307.686L124.118 306.087ZM118.404 317.08C117.597 318.972 116.856 320.896 116.174 322.843L119.005 323.835C119.667 321.946 120.385 320.084 121.164 318.256L118.404 317.08ZM114.309 328.723C113.744 330.699 113.232 332.69 112.771 334.686L115.693 335.362C116.144 333.412 116.643 331.472 117.193 329.548L114.309 328.723ZM111.524 340.709C111.152 342.734 110.825 344.757 110.538 346.77L113.508 347.193C113.79 345.218 114.11 343.234 114.475 341.251L111.524 340.709ZM109.785 352.861C109.677 353.883 109.578 354.9 109.488 355.91L112.476 356.176C112.565 355.182 112.662 354.181 112.768 353.177L109.785 352.861ZM109.488 355.91C109.397 356.932 109.32 357.953 109.258 358.974L112.252 359.157C112.313 358.164 112.387 357.171 112.476 356.176L109.488 355.91ZM109.057 365.116C109.049 367.171 109.1 369.221 109.212 371.263L112.207 371.098C112.099 369.116 112.049 367.125 112.057 365.128L109.057 365.116ZM109.735 377.391C109.972 379.433 110.272 381.463 110.636 383.479L113.588 382.946C113.236 380.993 112.945 379.025 112.715 377.045L109.735 377.391ZM111.926 389.5C112.422 391.494 112.983 393.47 113.611 395.425L116.468 394.508C115.86 392.617 115.317 390.706 114.837 388.776L111.926 389.5ZM115.697 401.225C116.458 403.131 117.286 405.012 118.182 406.867L120.883 405.561C120.018 403.771 119.218 401.954 118.483 400.112L115.697 401.225ZM121.064 412.319C122.085 414.094 123.174 415.839 124.331 417.551L126.816 415.871C125.7 414.219 124.649 412.536 123.664 410.823L121.064 412.319ZM127.968 422.532C128.602 423.337 129.253 424.134 129.92 424.922L132.209 422.982C131.565 422.222 130.937 421.453 130.325 420.676L127.968 422.532ZM129.92 424.922C130.533 425.645 131.164 426.355 131.81 427.051L134.008 425.01C133.392 424.346 132.792 423.67 132.209 422.982L129.92 424.922ZM135.858 431.047C137.257 432.315 138.712 433.528 140.216 434.686L142.046 432.31C140.604 431.199 139.211 430.036 137.873 428.824L135.858 431.047ZM144.835 437.975C146.409 439.01 148.025 439.991 149.674 440.918L151.144 438.303C149.553 437.409 147.998 436.464 146.484 435.468L144.835 437.975ZM154.697 443.523C156.396 444.336 158.124 445.094 159.873 445.798L160.993 443.015C159.301 442.334 157.632 441.601 155.99 440.817L154.697 443.523ZM165.177 447.746C166.967 448.342 168.773 448.884 170.588 449.37L171.364 446.472C169.607 446.001 167.858 445.477 166.125 444.9L165.177 447.746ZM176.086 450.667C177.941 451.046 179.798 451.368 181.653 451.631L182.074 448.661C180.281 448.406 178.483 448.095 176.687 447.728L176.086 450.667ZM187.272 452.252C188.216 452.326 189.157 452.384 190.094 452.427L190.232 449.431C189.327 449.389 188.419 449.333 187.507 449.261L187.272 452.252ZM190.094 452.427C191.103 452.474 192.115 452.507 193.13 452.528L193.192 449.529C192.202 449.508 191.215 449.476 190.232 449.431L190.094 452.427ZM199.201 452.512C201.213 452.462 203.232 452.368 205.256 452.235L205.06 449.241C203.074 449.372 201.095 449.464 199.126 449.513L199.201 452.512ZM211.29 451.727C213.292 451.523 215.295 451.285 217.298 451.017L216.9 448.044C214.926 448.308 212.954 448.542 210.986 448.742L211.29 451.727ZM223.276 450.132C225.262 449.811 227.245 449.463 229.224 449.094L228.673 446.145C226.717 446.51 224.757 446.853 222.796 447.171L223.276 450.132ZM235.142 447.925C237.114 447.515 239.078 447.087 241.033 446.645L240.371 443.719C238.432 444.157 236.484 444.582 234.531 444.988L235.142 447.925ZM246.898 445.271C248.859 444.797 250.807 444.312 252.74 443.821L252.001 440.914C250.078 441.402 248.141 441.884 246.193 442.355L246.898 445.271ZM258.564 442.313C259.536 442.057 260.504 441.801 261.467 441.544L260.694 438.645C259.734 438.901 258.769 439.157 257.8 439.412L258.564 442.313ZM261.467 441.544C262.49 441.271 263.513 441.003 264.538 440.738L263.788 437.833C262.756 438.1 261.725 438.37 260.694 438.645L261.467 441.544ZM270.701 439.189C272.76 438.685 274.822 438.19 276.886 437.7L276.193 434.781C274.124 435.272 272.055 435.769 269.987 436.276L270.701 439.189ZM283.085 436.239C285.153 435.754 287.223 435.268 289.292 434.778L288.6 431.859C286.535 432.348 284.469 432.833 282.4 433.318L283.085 436.239ZM295.499 433.287C296.533 433.034 297.567 432.779 298.6 432.521L297.873 429.61C296.845 429.867 295.816 430.121 294.787 430.373L295.499 433.287ZM298.6 432.521C299.56 432.281 300.517 432.036 301.472 431.787L300.715 428.884C299.769 429.131 298.822 429.373 297.873 429.61L298.6 432.521ZM307.188 430.245C309.089 429.718 310.984 429.18 312.875 428.638L312.048 425.754C310.162 426.295 308.276 426.83 306.386 427.354L307.188 430.245ZM318.544 427.003C320.432 426.458 322.317 425.915 324.205 425.379L323.387 422.493C321.492 423.03 319.6 423.575 317.711 424.121L318.544 427.003ZM329.87 423.806C330.815 423.55 331.76 423.298 332.707 423.05L331.947 420.148C330.992 420.398 330.038 420.652 329.086 420.91L329.87 423.806ZM332.707 423.05C333.655 422.802 334.603 422.559 335.551 422.321L334.821 419.411C333.863 419.651 332.905 419.897 331.947 420.148L332.707 423.05ZM341.254 420.952C343.163 420.515 345.073 420.097 346.985 419.698L346.372 416.761C344.442 417.164 342.512 417.586 340.584 418.028L341.254 420.952ZM352.739 418.555C354.664 418.192 356.589 417.847 358.515 417.519L358.013 414.562C356.069 414.892 354.125 415.24 352.183 415.607L352.739 418.555ZM364.31 416.587C366.246 416.293 368.184 416.015 370.122 415.754L369.721 412.78C367.766 413.044 365.813 413.324 363.86 413.621L364.31 416.587ZM375.947 415.015C377.892 414.784 379.838 414.568 381.785 414.366L381.476 411.382C379.514 411.585 377.553 411.803 375.593 412.036L375.947 415.015ZM387.633 413.802C389.584 413.628 391.536 413.467 393.489 413.318L393.262 410.327C391.296 410.476 389.331 410.639 387.366 410.814L387.633 413.802ZM399.353 412.909C401.308 412.785 403.264 412.672 405.222 412.57L405.065 409.574C403.097 409.677 401.129 409.79 399.162 409.915L399.353 412.909ZM411.096 412.295C413.054 412.213 415.013 412.141 416.973 412.078L416.877 409.08C414.908 409.143 412.939 409.215 410.971 409.297L411.096 412.295ZM422.854 411.916C424.814 411.87 426.776 411.832 428.738 411.801L428.691 408.801C426.721 408.832 424.752 408.87 422.784 408.916L422.854 411.916ZM434.623 411.729C436.585 411.712 438.547 411.701 440.51 411.695L440.502 408.695C438.533 408.701 436.565 408.712 434.597 408.729L434.623 411.729ZM446.399 411.693C448.362 411.697 450.325 411.705 452.289 411.717L452.308 408.717C450.34 408.705 448.372 408.697 446.405 408.693L446.399 411.693ZM458.181 411.763C460.144 411.781 462.108 411.802 464.073 411.824L464.108 408.825C462.141 408.802 460.175 408.781 458.208 408.763L458.181 411.763ZM469.967 411.897C471.931 411.922 473.896 411.948 475.862 411.975L475.902 408.975C473.936 408.949 471.971 408.922 470.005 408.897L469.967 411.897ZM481.758 412.053C483.723 412.078 485.689 412.103 487.656 412.125L487.69 409.126C485.726 409.103 483.761 409.078 481.797 409.053L481.758 412.053ZM493.555 412.188C495.521 412.206 497.488 412.222 499.455 412.235L499.474 409.235C497.51 409.222 495.547 409.206 493.583 409.188L493.555 412.188ZM505.358 412.261C506.341 412.263 507.325 412.264 508.309 412.264V409.264C507.328 409.264 506.346 409.263 505.364 409.261L505.358 412.261Z" fill="#3D405B"/>
</svg>
