<svg width="471" height="442" viewBox="0 0 471 442" fill="none" xmlns="http://www.w3.org/2000/svg">
<path d="M98.5696 1.82474C98.4728 1.00199 97.7274 0.41348 96.9046 0.510274C96.0819 0.607069 95.4934 1.35251 95.5901 2.17526L98.5696 1.82474ZM258.638 251.096L259.345 249.773L258.638 251.096ZM341.984 272.637L341.967 271.137L341.984 272.637ZM386.801 263.24L387.277 264.663L386.801 263.24ZM442.316 238.519L443.166 239.754L443.166 239.754L442.316 238.519ZM463.857 167.245L462.455 167.777L462.455 167.777L463.857 167.245ZM335.189 117.946L334.75 116.512L335.189 117.946ZM273.384 175.485L274.719 176.171L274.719 176.171L273.384 175.485ZM257.12 247.337L258.61 247.512L257.12 247.337ZM252.928 277.553L254.357 278.008L252.928 277.553ZM241.217 306.178L242.571 306.824L242.571 306.824L241.217 306.178ZM200 360L198.953 358.926L200 360ZM141.5 394.5L140.844 393.151L140.844 393.151L141.5 394.5ZM71.5 416L71.9196 417.44L71.5 416ZM26 426L25.468 424.598L26 426ZM0.93934 428.939C0.353553 429.525 0.353553 430.475 0.93934 431.061L10.4853 440.607C11.0711 441.192 12.0208 441.192 12.6066 440.607C13.1924 440.021 13.1924 439.071 12.6066 438.485L4.12132 430L12.6066 421.515C13.1924 420.929 13.1924 419.979 12.6066 419.393C12.0208 418.808 11.0711 418.808 10.4853 419.393L0.93934 428.939ZM5.15135 431.376C5.97783 431.319 6.60183 430.603 6.54509 429.777C6.48835 428.95 5.77236 428.326 4.94588 428.383L5.15135 431.376ZM10.9209 427.764C10.0997 427.873 9.52243 428.627 9.6316 429.448C9.74077 430.27 10.495 430.847 11.3162 430.738L10.9209 427.764ZM17.4237 429.761C18.2377 429.608 18.7733 428.823 18.6198 428.009C18.4663 427.195 17.6819 426.66 16.8678 426.813L17.4237 429.761ZM22.6965 425.488C21.8984 425.71 21.4314 426.537 21.6533 427.335C21.8753 428.133 22.7023 428.6 23.5004 428.378L22.6965 425.488ZM29.2206 426.447C30.0067 426.186 30.4321 425.336 30.1707 424.55C29.9093 423.764 29.0601 423.339 28.274 423.6L29.2206 426.447ZM33.9711 421.935C33.1686 422.14 32.6848 422.958 32.8904 423.76C33.0961 424.563 33.9133 425.046 34.7158 424.841L33.9711 421.935ZM40.327 423.564C41.1389 423.399 41.6637 422.608 41.4991 421.796C41.3344 420.984 40.5428 420.459 39.7309 420.624L40.327 423.564ZM45.5095 419.553C44.693 419.693 44.1444 420.469 44.2843 421.285C44.4242 422.102 45.1995 422.65 46.016 422.51L45.5095 419.553ZM51.7556 421.566C52.5735 421.435 53.1297 420.665 52.9978 419.847C52.866 419.029 52.0961 418.473 51.2782 418.605L51.7556 421.566ZM57.0163 417.658C56.1999 417.799 55.6519 418.575 55.7924 419.391C55.9329 420.208 56.7087 420.755 57.5251 420.615L57.0163 417.658ZM63.3031 419.539C64.1148 419.373 64.6387 418.581 64.4731 417.769C64.3076 416.957 63.5154 416.434 62.7037 416.599L63.3031 419.539ZM68.3145 415.317C67.5121 415.523 67.0288 416.34 67.2349 417.143C67.441 417.945 68.2585 418.429 69.0609 418.222L68.3145 415.317ZM74.8437 416.604C75.6413 416.38 76.1063 415.552 75.8824 414.754C75.6584 413.957 74.8303 413.492 74.0327 413.716L74.8437 416.604ZM79.9527 412.105C79.1518 412.317 78.6744 413.138 78.8864 413.938C79.0983 414.739 79.9193 415.217 80.7202 415.005L79.9527 412.105ZM86.6237 413.474C87.4264 413.27 87.9113 412.453 87.7067 411.65C87.5021 410.848 86.6854 410.363 85.8827 410.567L86.6237 413.474ZM91.8139 409.069C91.0104 409.271 90.5229 410.086 90.7248 410.889C90.9268 411.693 91.7418 412.18 92.5453 411.978L91.8139 409.069ZM98.4758 410.483C99.2788 410.279 99.7644 409.463 99.5605 408.66C99.3566 407.857 98.5403 407.371 97.7374 407.575L98.4758 410.483ZM103.645 406.052C102.843 406.263 102.364 407.083 102.575 407.884C102.785 408.685 103.605 409.164 104.407 408.954L103.645 406.052ZM110.329 407.357C111.127 407.136 111.594 406.309 111.373 405.511C111.151 404.713 110.325 404.245 109.526 404.467L110.329 407.357ZM115.372 402.785C114.578 403.022 114.127 403.858 114.364 404.652C114.602 405.445 115.437 405.896 116.231 405.659L115.372 402.785ZM122.102 403.825C122.89 403.567 123.319 402.72 123.061 401.933C122.804 401.145 121.957 400.716 121.169 400.973L122.102 403.825ZM126.904 399C126.125 399.282 125.723 400.142 126.005 400.921C126.287 401.7 127.148 402.102 127.927 401.82L126.904 399ZM133.686 399.612C134.454 399.3 134.824 398.425 134.512 397.658C134.201 396.89 133.326 396.52 132.558 396.832L133.686 399.612ZM138.112 394.44C137.358 394.784 137.027 395.674 137.372 396.428C137.716 397.181 138.606 397.513 139.359 397.168L138.112 394.44ZM144.71 394.626C145.46 394.272 145.78 393.378 145.427 392.629C145.073 391.88 144.179 391.559 143.43 391.912L144.71 394.626ZM148.625 389.519C147.87 389.86 147.534 390.748 147.875 391.503C148.216 392.258 149.105 392.594 149.86 392.252L148.625 389.519ZM155.051 389.93C155.808 389.594 156.148 388.707 155.812 387.95C155.475 387.193 154.588 386.853 153.831 387.19L155.051 389.93ZM159.022 384.867C158.267 385.208 157.932 386.097 158.274 386.852C158.615 387.607 159.504 387.942 160.258 387.6L159.022 384.867ZM165.453 385.201C166.202 384.846 166.521 383.952 166.166 383.203C165.811 382.454 164.917 382.135 164.168 382.49L165.453 385.201ZM169.243 380.001C168.504 380.377 168.211 381.28 168.587 382.018C168.963 382.757 169.866 383.05 170.605 382.674L169.243 380.001ZM175.681 379.969C176.404 379.566 176.663 378.652 176.26 377.929C175.856 377.205 174.942 376.946 174.219 377.35L175.681 379.969ZM179.074 374.499C178.369 374.935 178.151 375.859 178.587 376.564C179.022 377.268 179.947 377.486 180.651 377.051L179.074 374.499ZM185.481 373.902C186.163 373.432 186.336 372.498 185.867 371.816C185.397 371.133 184.463 370.96 183.781 371.43L185.481 373.902ZM188.33 368.13C187.672 368.633 187.547 369.574 188.05 370.232C188.553 370.891 189.494 371.016 190.152 370.513L188.33 368.13ZM194.645 366.897C195.278 366.362 195.356 365.415 194.821 364.783C194.286 364.151 193.34 364.072 192.707 364.607L194.645 366.897ZM196.914 360.869C196.308 361.434 196.274 362.383 196.839 362.989C197.404 363.596 198.353 363.629 198.959 363.064L196.914 360.869ZM203.086 359.077C203.677 358.496 203.684 357.546 203.103 356.956C202.522 356.365 201.573 356.358 200.982 356.939L203.086 359.077ZM205.004 352.939C204.42 353.527 204.423 354.477 205.01 355.061C205.598 355.645 206.547 355.642 207.132 355.055L205.004 352.939ZM211.126 350.983C211.701 350.387 211.685 349.437 211.09 348.862C210.494 348.286 209.544 348.302 208.968 348.898L211.126 350.983ZM212.868 344.792C212.303 345.398 212.337 346.347 212.943 346.912C213.549 347.477 214.498 347.443 215.063 346.837L212.868 344.792ZM218.917 342.606C219.468 341.987 219.412 341.039 218.793 340.489C218.174 339.938 217.226 339.994 216.675 340.613L218.917 342.606ZM220.361 336.347C219.829 336.982 219.913 337.928 220.548 338.46C221.183 338.992 222.129 338.908 222.661 338.273L220.361 336.347ZM226.266 333.811C226.775 333.157 226.657 332.214 226.003 331.706C225.349 331.197 224.406 331.315 223.898 331.969L226.266 333.811ZM227.255 327.46C226.775 328.135 226.933 329.072 227.608 329.552C228.283 330.032 229.22 329.874 229.7 329.199L227.255 327.46ZM232.928 324.434C233.376 323.738 233.175 322.81 232.479 322.361C231.782 321.912 230.854 322.113 230.405 322.81L232.928 324.434ZM233.338 318.019C232.921 318.735 233.164 319.653 233.88 320.07C234.596 320.487 235.514 320.244 235.931 319.528L233.338 318.019ZM238.718 314.507C239.106 313.775 238.828 312.867 238.096 312.479C237.364 312.091 236.456 312.369 236.068 313.101L238.718 314.507ZM238.63 308.078C238.264 308.821 238.57 309.72 239.314 310.086C240.057 310.452 240.956 310.146 241.322 309.402L238.63 308.078ZM243.679 304.484C244.031 303.734 243.708 302.841 242.958 302.489C242.208 302.137 241.315 302.46 240.963 303.21L243.679 304.484ZM243.109 298.544C242.769 299.3 243.106 300.188 243.861 300.528C244.617 300.868 245.505 300.532 245.845 299.776L243.109 298.544ZM247.931 295.028C248.257 294.266 247.904 293.385 247.143 293.059C246.381 292.733 245.499 293.086 245.173 293.847L247.931 295.028ZM247.14 289.114C246.83 289.882 247.203 290.756 247.971 291.065C248.74 291.374 249.614 291.002 249.923 290.233L247.14 289.114ZM251.801 285.387C252.09 284.611 251.695 283.747 250.919 283.458C250.142 283.169 249.279 283.564 248.99 284.34L251.801 285.387ZM250.702 279.523C250.437 280.308 250.858 281.159 251.643 281.424C252.428 281.689 253.279 281.268 253.544 280.483L250.702 279.523ZM255.089 275.491C255.301 274.69 254.824 273.869 254.023 273.657C253.222 273.445 252.401 273.922 252.189 274.723L255.089 275.491ZM253.253 269.868C253.107 270.683 253.65 271.463 254.466 271.608C255.281 271.754 256.06 271.211 256.206 270.395L253.253 269.868ZM256.959 265.27C257.058 264.448 256.471 263.701 255.649 263.602C254.826 263.504 254.08 264.09 253.981 264.913L256.959 265.27ZM254.492 259.892C254.419 260.717 255.03 261.445 255.855 261.517C256.68 261.59 257.408 260.98 257.48 260.154L254.492 259.892ZM257.898 255.066C257.965 254.24 257.35 253.517 256.524 253.45C255.698 253.384 254.975 253.999 254.908 254.825L257.898 255.066ZM255.355 249.723C255.274 250.547 255.876 251.281 256.701 251.363C257.525 251.444 258.259 250.842 258.341 250.017L255.355 249.723ZM258.966 244.442C259.06 243.619 258.469 242.875 257.646 242.78C256.823 242.686 256.08 243.277 255.985 244.1L258.966 244.442ZM256.684 237.964C256.59 238.787 257.181 239.531 258.004 239.625C258.828 239.719 259.571 239.128 259.665 238.305L256.684 237.964ZM260.379 232.179C260.478 231.357 259.891 230.61 259.068 230.511C258.246 230.413 257.499 231 257.4 231.822L260.379 232.179ZM258.17 225.678C258.062 226.499 258.64 227.252 259.461 227.36C260.283 227.468 261.036 226.89 261.144 226.069L258.17 225.678ZM261.996 219.979C262.119 219.16 261.553 218.396 260.734 218.274C259.915 218.151 259.151 218.717 259.029 219.536L261.996 219.979ZM260.015 213.404C259.874 214.22 260.421 214.997 261.237 215.138C262.053 215.28 262.83 214.733 262.971 213.917L260.015 213.404ZM264.105 207.892C264.271 207.08 263.747 206.288 262.935 206.122C262.124 205.956 261.331 206.48 261.166 207.292L264.105 207.892ZM262.518 201.211C262.323 202.017 262.818 202.827 263.623 203.022C264.428 203.217 265.239 202.722 265.434 201.917L262.518 201.211ZM266.993 196.007C267.221 195.211 266.761 194.38 265.965 194.151C265.169 193.923 264.338 194.383 264.109 195.179L266.993 196.007ZM265.976 189.217C265.709 190.001 266.128 190.853 266.912 191.12C267.696 191.388 268.549 190.968 268.816 190.184L265.976 189.217ZM270.934 184.471C271.243 183.703 270.871 182.829 270.103 182.519C269.334 182.21 268.46 182.582 268.151 183.35L270.934 184.471ZM270.662 177.612C270.307 178.36 270.626 179.255 271.374 179.61C272.123 179.965 273.017 179.646 273.372 178.897L270.662 177.612ZM276.147 173.468C276.542 172.739 276.271 171.829 275.543 171.434C274.815 171.039 273.905 171.309 273.51 172.037L276.147 173.468ZM276.61 166.61C276.184 167.32 276.413 168.242 277.124 168.668C277.834 169.095 278.755 168.865 279.182 168.155L276.61 166.61ZM282.448 162.978C282.905 162.287 282.715 161.356 282.024 160.899C281.333 160.442 280.403 160.632 279.946 161.322L282.448 162.978ZM283.509 156.186C283.022 156.856 283.17 157.794 283.84 158.281C284.51 158.768 285.449 158.619 285.936 157.949L283.509 156.186ZM289.642 153.083C290.159 152.435 290.052 151.491 289.405 150.974C288.757 150.458 287.814 150.564 287.297 151.211L289.642 153.083ZM291.311 146.414C290.764 147.036 290.826 147.984 291.449 148.53C292.072 149.077 293.019 149.015 293.566 148.392L291.311 146.414ZM297.707 143.897C298.283 143.302 298.268 142.352 297.672 141.776C297.077 141.2 296.128 141.215 295.551 141.81L297.707 143.897ZM300.022 137.424C299.416 137.989 299.382 138.938 299.946 139.544C300.511 140.151 301.46 140.185 302.066 139.62L300.022 137.424ZM306.645 135.587C307.282 135.057 307.369 134.111 306.839 133.474C306.309 132.838 305.363 132.751 304.726 133.281L306.645 135.587ZM309.667 129.412C308.999 129.903 308.856 130.842 309.347 131.509C309.837 132.176 310.776 132.32 311.444 131.829L309.667 129.412ZM316.46 128.382C317.158 127.936 317.362 127.008 316.916 126.31C316.469 125.612 315.541 125.408 314.844 125.855L316.46 128.382ZM320.257 122.651C319.529 123.047 319.261 123.958 319.657 124.686C320.053 125.413 320.964 125.682 321.692 125.286L320.257 122.651ZM327.128 122.585C327.884 122.246 328.221 121.358 327.881 120.602C327.542 119.847 326.654 119.509 325.898 119.849L327.128 122.585ZM331.751 117.5C330.97 117.776 330.561 118.633 330.837 119.414C331.114 120.195 331.971 120.605 332.752 120.328L331.751 117.5ZM338.377 118.578C339.175 118.356 339.642 117.529 339.419 116.731C339.197 115.933 338.37 115.466 337.572 115.688L338.377 118.578ZM343.283 114.248C342.475 114.431 341.968 115.235 342.151 116.043C342.334 116.851 343.138 117.357 343.946 117.174L343.283 114.248ZM349.575 116.038C350.391 115.893 350.934 115.114 350.79 114.299C350.645 113.483 349.866 112.939 349.05 113.084L349.575 116.038ZM354.863 112.189C354.041 112.296 353.462 113.049 353.57 113.871C353.677 114.692 354.43 115.271 355.252 115.163L354.863 112.189ZM360.965 114.546C361.79 114.476 362.402 113.75 362.332 112.924C362.261 112.099 361.535 111.487 360.71 111.557L360.965 114.546ZM366.58 111.188C365.752 111.222 365.108 111.92 365.142 112.748C365.175 113.575 365.874 114.219 366.701 114.185L366.58 111.188ZM372.448 114.079C373.276 114.083 373.951 113.414 373.954 112.585C373.957 111.757 373.288 111.083 372.459 111.08L372.448 114.079ZM378.338 111.233C377.51 111.193 376.807 111.831 376.767 112.659C376.727 113.486 377.365 114.189 378.192 114.229L378.338 111.233ZM383.924 114.638C384.749 114.715 385.48 114.109 385.558 113.285C385.635 112.46 385.029 111.728 384.205 111.651L383.924 114.638ZM390.048 112.336C389.227 112.221 388.469 112.792 388.353 113.612C388.237 114.433 388.809 115.191 389.629 115.307L390.048 112.336ZM395.294 116.242C396.108 116.397 396.893 115.862 397.047 115.048C397.202 114.234 396.667 113.449 395.853 113.295L395.294 116.242ZM401.609 114.533C400.803 114.339 399.993 114.834 399.799 115.64C399.605 116.445 400.1 117.255 400.906 117.449L401.609 114.533ZM406.448 118.935C407.242 119.17 408.077 118.716 408.312 117.922C408.547 117.128 408.093 116.293 407.299 116.058L406.448 118.935ZM412.904 117.878C412.123 117.601 411.266 118.01 410.989 118.791C410.712 119.571 411.121 120.429 411.902 120.706L412.904 117.878ZM417.246 122.768C418.011 123.088 418.889 122.728 419.209 121.964C419.529 121.199 419.169 120.321 418.405 120.001L417.246 122.768ZM423.779 122.435C423.034 122.071 422.136 122.379 421.772 123.124C421.408 123.868 421.717 124.766 422.461 125.13L423.779 122.435ZM427.523 127.799C428.243 128.208 429.159 127.955 429.567 127.235C429.976 126.514 429.724 125.599 429.003 125.19L427.523 127.799ZM434.047 128.269C433.354 127.815 432.424 128.008 431.97 128.701C431.516 129.393 431.709 130.323 432.401 130.777L434.047 128.269ZM437.069 134.068C437.729 134.568 438.67 134.438 439.17 133.778C439.67 133.117 439.54 132.177 438.88 131.676L437.069 134.068ZM443.47 135.412C442.847 134.867 441.899 134.93 441.354 135.554C440.808 136.177 440.872 137.125 441.495 137.67L443.47 135.412ZM445.649 141.577C446.231 142.166 447.181 142.172 447.77 141.59C448.359 141.008 448.365 140.058 447.783 139.468L445.649 141.577ZM451.786 143.835C451.249 143.204 450.303 143.127 449.671 143.663C449.04 144.2 448.963 145.146 449.499 145.778L451.786 143.835ZM453.021 150.258C453.507 150.929 454.445 151.078 455.116 150.591C455.786 150.105 455.935 149.167 455.449 148.496L453.021 150.258ZM458.745 153.427C458.311 152.721 457.388 152.5 456.682 152.934C455.976 153.367 455.755 154.291 456.189 154.997L458.745 153.427ZM458.98 159.957C459.359 160.694 460.263 160.985 461 160.606C461.737 160.228 462.027 159.324 461.649 158.587L458.98 159.957ZM464.154 163.951C463.831 163.188 462.951 162.831 462.188 163.153C461.425 163.475 461.068 164.355 461.39 165.118L464.154 163.951ZM463.414 170.448C463.679 171.233 464.531 171.654 465.315 171.388C466.1 171.122 466.521 170.271 466.255 169.486L463.414 170.448ZM467.934 175.141C467.729 174.338 466.913 173.854 466.11 174.058C465.307 174.263 464.822 175.079 465.027 175.882L467.934 175.141ZM466.197 181.417C466.334 182.234 467.107 182.785 467.924 182.648C468.741 182.512 469.293 181.738 469.156 180.921L466.197 181.417ZM469.871 186.794C469.809 185.968 469.088 185.349 468.262 185.411C467.436 185.473 466.817 186.194 466.879 187.02L469.871 186.794ZM467.033 192.65C467.015 193.479 467.672 194.165 468.5 194.183C469.328 194.201 470.014 193.544 470.032 192.716L467.033 192.65ZM469.599 198.637C469.703 197.815 469.12 197.065 468.298 196.961C467.476 196.858 466.726 197.441 466.623 198.263L469.599 198.637ZM465.626 203.792C465.435 204.598 465.934 205.406 466.74 205.597C467.546 205.788 468.354 205.289 468.545 204.483L465.626 203.792ZM466.861 210.184C467.139 209.403 466.732 208.545 465.951 208.267C465.171 207.989 464.313 208.396 464.035 209.177L466.861 210.184ZM461.862 214.354C461.501 215.099 461.811 215.997 462.557 216.359C463.302 216.721 464.199 216.41 464.561 215.665L461.862 214.354ZM461.681 220.862C462.121 220.16 461.908 219.235 461.206 218.795C460.503 218.355 459.578 218.568 459.138 219.27L461.681 220.862ZM455.911 223.876C455.402 224.53 455.519 225.472 456.173 225.982C456.826 226.491 457.769 226.374 458.278 225.72L455.911 223.876ZM454.412 230.211C454.982 229.609 454.956 228.66 454.355 228.09C453.754 227.52 452.804 227.546 452.235 228.147L454.412 230.211ZM448.168 232.067C447.546 232.616 447.487 233.563 448.035 234.185C448.583 234.806 449.531 234.865 450.152 234.317L448.168 232.067ZM445.564 238.037C446.228 237.542 446.365 236.602 445.87 235.938C445.374 235.274 444.435 235.137 443.771 235.632L445.564 238.037ZM438.964 238.955C438.269 239.406 438.072 240.335 438.523 241.03C438.974 241.725 439.903 241.922 440.598 241.471L438.964 238.955ZM435.341 244.702C436.057 244.286 436.3 243.368 435.883 242.652C435.466 241.936 434.548 241.693 433.832 242.11L435.341 244.702ZM428.552 245.026C427.819 245.411 427.536 246.318 427.921 247.051C428.306 247.785 429.213 248.068 429.946 247.683L428.552 245.026ZM424.44 250.435C425.188 250.078 425.505 249.183 425.149 248.435C424.793 247.687 423.897 247.37 423.15 247.726L424.44 250.435ZM417.646 250.235C416.887 250.566 416.54 251.45 416.872 252.209C417.203 252.969 418.087 253.316 418.846 252.984L417.646 250.235ZM413.185 255.359C413.953 255.049 414.324 254.175 414.014 253.407C413.704 252.639 412.83 252.267 412.062 252.577L413.185 255.359ZM406.412 254.782C405.637 255.075 405.247 255.941 405.539 256.715C405.832 257.49 406.698 257.881 407.473 257.588L406.412 254.782ZM401.725 259.701C402.505 259.422 402.91 258.563 402.631 257.783C402.352 257.003 401.493 256.597 400.713 256.877L401.725 259.701ZM394.976 258.889C394.193 259.159 393.777 260.013 394.046 260.796C394.316 261.579 395.17 261.995 395.953 261.726L394.976 258.889ZM390.169 263.692C390.955 263.428 391.377 262.577 391.113 261.792C390.848 261.007 389.998 260.585 389.213 260.849L390.169 263.692ZM383.603 262.722C382.816 262.981 382.389 263.829 382.648 264.616C382.907 265.403 383.755 265.831 384.542 265.571L383.603 262.722ZM379.048 267.34C379.838 267.092 380.279 266.251 380.032 265.46C379.784 264.67 378.943 264.229 378.152 264.476L379.048 267.34ZM372.681 266.12C371.884 266.348 371.424 267.179 371.652 267.975C371.88 268.771 372.711 269.232 373.507 269.004L372.681 266.12ZM367.911 270.515C368.714 270.312 369.201 269.497 368.999 268.694C368.796 267.891 367.981 267.403 367.178 267.606L367.911 270.515ZM361.636 268.887C360.825 269.056 360.305 269.851 360.475 270.662C360.644 271.473 361.439 271.993 362.25 271.823L361.636 268.887ZM356.525 272.879C357.343 272.749 357.901 271.98 357.771 271.162C357.641 270.344 356.873 269.786 356.055 269.916L356.525 272.879ZM350.437 270.653C349.613 270.737 349.014 271.474 349.098 272.298C349.183 273.122 349.919 273.722 350.743 273.637L350.437 270.653ZM344.92 274.06C345.748 274.025 346.391 273.326 346.356 272.498C346.321 271.671 345.622 271.028 344.794 271.063L344.92 274.06ZM338.888 271.14C338.06 271.133 337.383 271.799 337.375 272.627C337.368 273.456 338.034 274.133 338.862 274.14L338.888 271.14ZM332.59 273.963C333.418 274.002 334.121 273.364 334.161 272.536C334.2 271.709 333.562 271.006 332.734 270.966L332.59 273.963ZM326.592 270.551C325.767 270.479 325.039 271.09 324.967 271.915C324.895 272.74 325.506 273.468 326.331 273.54L326.592 270.551ZM320.094 272.872C320.916 272.976 321.666 272.394 321.771 271.572C321.875 270.751 321.293 270 320.471 269.895L320.094 272.872ZM314.38 269.002C313.563 268.865 312.79 269.418 312.654 270.235C312.518 271.052 313.07 271.825 313.887 271.961L314.38 269.002ZM307.721 270.811C308.532 270.979 309.325 270.457 309.493 269.645C309.66 268.834 309.138 268.04 308.327 267.873L307.721 270.811ZM302.32 266.515C301.516 266.317 300.703 266.809 300.505 267.613C300.307 268.418 300.799 269.23 301.604 269.428L302.32 266.515ZM295.544 267.818C296.34 268.045 297.17 267.584 297.398 266.787C297.625 265.991 297.164 265.161 296.367 264.933L295.544 267.818ZM290.474 263.135C289.686 262.88 288.84 263.311 288.584 264.099C288.328 264.887 288.76 265.733 289.548 265.989L290.474 263.135ZM283.622 263.949C284.4 264.232 285.261 263.83 285.544 263.052C285.827 262.273 285.426 261.413 284.647 261.129L283.622 263.949ZM278.89 258.924C278.122 258.615 277.248 258.987 276.939 259.756C276.629 260.524 277.002 261.398 277.77 261.707L278.89 258.924ZM271.999 259.275C272.757 259.609 273.642 259.265 273.976 258.507C274.31 257.749 273.967 256.863 273.208 256.529L271.999 259.275ZM267.604 253.954C266.856 253.597 265.961 253.913 265.603 254.66C265.246 255.407 265.562 256.303 266.309 256.66L267.604 253.954ZM260.703 253.874C261.439 254.254 262.344 253.964 262.723 253.228C263.103 252.492 262.814 251.587 262.078 251.208L260.703 253.874ZM256.873 248.419C256.15 248.013 255.236 248.27 254.83 248.992C254.425 249.715 254.682 250.629 255.404 251.035L256.873 248.419ZM250.439 248.115C251.145 248.548 252.068 248.328 252.502 247.622C252.936 246.916 252.716 245.993 252.01 245.559L250.439 248.115ZM247.254 242.515C246.564 242.056 245.633 242.243 245.174 242.933C244.715 243.623 244.902 244.554 245.592 245.012L247.254 242.515ZM240.858 241.749C241.533 242.23 242.469 242.073 242.95 241.399C243.431 240.724 243.274 239.788 242.6 239.307L240.858 241.749ZM238.044 235.954C237.384 235.453 236.443 235.582 235.942 236.243C235.442 236.903 235.571 237.844 236.231 238.344L238.044 235.954ZM231.704 234.815C232.35 235.333 233.294 235.228 233.812 234.581C234.33 233.934 234.225 232.991 233.578 232.473L231.704 234.815ZM229.196 228.881C228.561 228.348 227.615 228.431 227.083 229.066C226.55 229.701 226.633 230.647 227.268 231.179L229.196 228.881ZM222.915 227.45C223.539 227.996 224.486 227.932 225.032 227.308C225.577 226.684 225.513 225.737 224.889 225.191L222.915 227.45ZM220.65 221.419C220.036 220.863 219.087 220.91 218.531 221.524C217.975 222.138 218.022 223.087 218.636 223.643L220.65 221.419ZM214.423 219.769C215.029 220.334 215.978 220.301 216.543 219.696C217.108 219.09 217.075 218.141 216.469 217.576L214.423 219.769ZM212.339 213.673C211.74 213.1 210.791 213.122 210.218 213.72C209.645 214.319 209.667 215.269 210.266 215.841L212.339 213.673ZM206.154 211.87C206.748 212.448 207.697 212.436 208.276 211.843C208.854 211.25 208.842 210.301 208.249 209.722L206.154 211.87ZM204.19 205.734C203.601 205.151 202.652 205.156 202.069 205.745C201.486 206.334 201.491 207.284 202.08 207.866L204.19 205.734ZM198.033 203.841C198.619 204.426 199.569 204.426 200.154 203.84C200.74 203.254 200.739 202.304 200.153 201.718L198.033 203.841ZM196.128 197.686C195.543 197.099 194.593 197.097 194.007 197.682C193.42 198.267 193.418 199.217 194.003 199.803L196.128 197.686ZM189.979 195.766C190.564 196.352 191.514 196.353 192.101 195.768C192.687 195.183 192.688 194.234 192.103 193.647L189.979 195.766ZM187.988 189.509C187.408 188.918 186.458 188.909 185.867 189.489C185.276 190.07 185.267 191.019 185.847 191.611L187.988 189.509ZM181.671 187.275C182.24 187.877 183.189 187.904 183.791 187.335C184.393 186.766 184.42 185.816 183.851 185.214L181.671 187.275ZM179.795 180.843C179.237 180.23 178.289 180.186 177.676 180.744C177.063 181.301 177.019 182.25 177.577 182.863L179.795 180.843ZM173.566 178.374C174.112 178.997 175.06 179.059 175.683 178.513C176.306 177.967 176.368 177.019 175.822 176.396L173.566 178.374ZM171.932 171.876C171.398 171.243 170.452 171.163 169.819 171.697C169.186 172.232 169.106 173.178 169.64 173.811L171.932 171.876ZM165.8 169.175C166.322 169.818 167.267 169.915 167.91 169.393C168.553 168.87 168.651 167.926 168.128 167.283L165.8 169.175ZM164.411 162.619C163.9 161.967 162.958 161.851 162.305 162.361C161.653 162.872 161.537 163.814 162.047 164.467L164.411 162.619ZM158.384 159.69C158.882 160.352 159.822 160.485 160.484 159.987C161.147 159.489 161.28 158.549 160.782 157.887L158.384 159.69ZM157.242 153.087C156.757 152.416 155.819 152.265 155.148 152.751C154.476 153.236 154.326 154.174 154.811 154.845L157.242 153.087ZM151.33 149.934C151.802 150.615 152.737 150.783 153.417 150.31C154.098 149.837 154.266 148.903 153.793 148.222L151.33 149.934ZM150.436 143.294C149.976 142.605 149.045 142.419 148.356 142.879C147.667 143.339 147.481 144.27 147.941 144.959L150.436 143.294ZM144.646 139.921C145.093 140.619 146.021 140.822 146.718 140.375C147.416 139.928 147.619 139 147.172 138.303L144.646 139.921ZM144.002 133.252C143.568 132.546 142.644 132.325 141.939 132.759C141.233 133.193 141.012 134.117 141.446 134.823L144.002 133.252ZM138.342 129.665C138.763 130.379 139.682 130.616 140.396 130.196C141.11 129.775 141.348 128.856 140.927 128.142L138.342 129.665ZM137.948 122.976C137.541 122.254 136.626 121.999 135.905 122.406C135.183 122.813 134.928 123.728 135.335 124.45L137.948 122.976ZM132.427 119.179C132.82 119.908 133.73 120.18 134.459 119.787C135.188 119.393 135.46 118.483 135.067 117.754L132.427 119.179ZM132.283 112.48C131.903 111.744 130.999 111.455 130.262 111.835C129.526 112.215 129.237 113.119 129.617 113.855L132.283 112.48ZM126.907 108.48C127.273 109.223 128.172 109.529 128.916 109.163C129.659 108.797 129.965 107.898 129.599 107.155L126.907 108.48ZM127.014 101.78C126.662 101.031 125.768 100.708 125.019 101.06C124.269 101.412 123.946 102.306 124.298 103.055L127.014 101.78ZM121.791 97.583C122.129 98.3393 123.016 98.6784 123.772 98.3403C124.529 98.0022 124.868 97.1151 124.53 96.3588L121.791 97.583ZM122.147 90.8917C121.823 90.1292 120.942 89.7737 120.18 90.0977C119.417 90.4216 119.062 91.3023 119.386 92.0648L122.147 90.8917ZM117.083 86.5028C117.393 87.2711 118.267 87.6429 119.035 87.3332C119.804 87.0235 120.175 86.1496 119.866 85.3812L117.083 86.5028ZM117.687 79.8292C117.392 79.0552 116.525 78.6672 115.751 78.9626C114.977 79.258 114.589 80.1249 114.885 80.8989L117.687 79.8292ZM112.79 75.2555C113.071 76.0348 113.931 76.4388 114.71 76.1577C115.49 75.8767 115.894 75.0172 115.613 74.2379L112.79 75.2555ZM113.642 68.6093C113.375 67.8249 112.523 67.4051 111.739 67.6717C110.954 67.9382 110.534 68.7902 110.801 69.5745L113.642 68.6093ZM108.917 63.8578C109.169 64.647 110.013 65.0824 110.802 64.8304C111.591 64.5784 112.027 63.7343 111.775 62.9452L108.917 63.8578ZM110.013 57.2475C109.776 56.4538 108.94 56.0029 108.146 56.2403C107.352 56.4777 106.902 57.3136 107.139 58.1073L110.013 57.2475ZM105.467 52.3249C105.69 53.1228 106.517 53.5891 107.315 53.3663C108.113 53.1435 108.579 52.3161 108.357 51.5182L105.467 52.3249ZM106.806 45.7592C106.598 44.9574 105.779 44.476 104.977 44.684C104.175 44.8921 103.694 45.7108 103.902 46.5127L106.806 45.7592ZM102.444 40.6726C102.637 41.4782 103.447 41.9745 104.252 41.7812C105.058 41.5879 105.554 40.7781 105.361 39.9726L102.444 40.6726ZM104.022 34.1602C103.844 33.3512 103.043 32.8402 102.234 33.0187C101.425 33.1972 100.914 33.9977 101.093 34.8067L104.022 34.1602ZM99.8493 28.9168C100.013 29.7289 100.804 30.2545 101.616 30.0908C102.428 29.9271 102.954 29.1361 102.79 28.324L99.8493 28.9168ZM101.665 22.4669C101.516 21.652 100.735 21.112 99.9199 21.2609C99.105 21.4097 98.565 22.1911 98.7139 23.006L101.665 22.4669ZM97.6864 17.0759C97.8204 17.8934 98.5917 18.4475 99.4092 18.3135C100.227 18.1795 100.781 17.4082 100.647 16.5907L97.6864 17.0759ZM99.7357 10.6967C99.6166 9.87685 98.8555 9.30883 98.0356 9.42795C97.2158 9.54707 96.6478 10.3082 96.7669 11.128L99.7357 10.6967ZM95.9555 5.16439C96.0598 5.98623 96.8105 6.56797 97.6324 6.46373C98.4542 6.35949 99.0359 5.60875 98.9317 4.7869L95.9555 5.16439ZM2 431.5C2.90744 431.5 3.97668 431.456 5.15135 431.376L4.94588 428.383C3.81597 428.46 2.81871 428.5 2 428.5V431.5ZM11.3162 430.738C13.3194 430.471 15.4036 430.142 17.4237 429.761L16.8678 426.813C14.9055 427.183 12.8752 427.504 10.9209 427.764L11.3162 430.738ZM23.5004 428.378C24.5984 428.073 25.6233 427.747 26.532 427.402L25.468 424.598C24.6671 424.901 23.7332 425.2 22.6965 425.488L23.5004 428.378ZM26.532 427.402C27.4239 427.064 28.3202 426.746 29.2206 426.447L28.274 423.6C27.3362 423.912 26.4007 424.244 25.468 424.598L26.532 427.402ZM34.7158 424.841C36.5724 424.365 38.4432 423.946 40.327 423.564L39.7309 420.624C37.8076 421.014 35.8862 421.444 33.9711 421.935L34.7158 424.841ZM46.016 422.51C47.9219 422.184 49.8334 421.876 51.7556 421.566L51.2782 418.605C49.3591 418.914 47.4325 419.224 45.5095 419.553L46.016 422.51ZM57.5251 420.615C59.4479 420.284 61.3757 419.932 63.3031 419.539L62.7037 416.599C60.8153 416.984 58.9194 417.331 57.0163 417.658L57.5251 420.615ZM69.0609 418.222C70.0145 417.977 70.9676 417.717 71.9196 417.44L71.0804 414.56C70.1613 414.828 69.2393 415.079 68.3145 415.317L69.0609 418.222ZM71.9196 417.44C72.8917 417.157 73.8665 416.878 74.8437 416.604L74.0327 413.716C73.0468 413.993 72.0626 414.274 71.0804 414.56L71.9196 417.44ZM80.7202 415.005C82.6817 414.486 84.6501 413.977 86.6237 413.474L85.8827 410.567C83.9033 411.072 81.9256 411.583 79.9527 412.105L80.7202 415.005ZM92.5453 411.978C94.52 411.482 96.4985 410.985 98.4758 410.483L97.7374 407.575C95.7643 408.076 93.7898 408.572 91.8139 409.069L92.5453 411.978ZM104.407 408.954C106.384 408.435 108.358 407.904 110.329 407.357L109.526 404.467C107.572 405.009 105.611 405.536 103.645 406.052L104.407 408.954ZM116.231 405.659C118.196 405.072 120.154 404.462 122.102 403.825L121.169 400.973C119.248 401.602 117.315 402.204 115.372 402.785L116.231 405.659ZM127.927 401.82C129.859 401.119 131.78 400.385 133.686 399.612L132.558 396.832C130.689 397.59 128.804 398.311 126.904 399L127.927 401.82ZM139.359 397.168C140.296 396.74 141.228 396.3 142.156 395.849L140.844 393.151C139.938 393.592 139.027 394.021 138.112 394.44L139.359 397.168ZM142.156 395.849C143.01 395.434 143.861 395.026 144.71 394.626L143.43 391.912C142.571 392.318 141.709 392.73 140.844 393.151L142.156 395.849ZM149.86 392.252C151.596 391.468 153.324 390.699 155.051 389.93L153.831 387.19C152.106 387.957 150.37 388.73 148.625 389.519L149.86 392.252ZM160.258 387.6C161.991 386.817 163.722 386.021 165.453 385.201L164.168 382.49C162.458 383.3 160.744 384.088 159.022 384.867L160.258 387.6ZM170.605 382.674C172.294 381.813 173.986 380.916 175.681 379.969L174.219 377.35C172.561 378.275 170.903 379.155 169.243 380.001L170.605 382.674ZM180.651 377.051C182.257 376.058 183.866 375.012 185.481 373.902L183.781 371.43C182.208 372.511 180.64 373.531 179.074 374.499L180.651 377.051ZM190.152 370.513C191.645 369.372 193.142 368.17 194.645 366.897L192.707 364.607C191.242 365.847 189.783 367.019 188.33 368.13L190.152 370.513ZM198.959 363.064C199.654 362.417 200.35 361.754 201.047 361.074L198.953 358.926C198.271 359.59 197.592 360.238 196.914 360.869L198.959 363.064ZM201.047 361.074C201.74 360.399 202.419 359.733 203.086 359.077L200.982 356.939C200.319 357.591 199.642 358.254 198.953 358.926L201.047 361.074ZM207.132 355.055C208.522 353.657 209.851 352.301 211.126 350.983L208.968 348.898C207.705 350.205 206.385 351.55 205.004 352.939L207.132 355.055ZM215.063 346.837C216.414 345.387 217.696 343.98 218.917 342.606L216.675 340.613C215.471 341.968 214.204 343.358 212.868 344.792L215.063 346.837ZM222.661 338.273C223.932 336.756 225.13 335.273 226.266 333.811L223.898 331.969C222.785 333.401 221.61 334.856 220.361 336.347L222.661 338.273ZM229.7 329.199C230.832 327.607 231.903 326.025 232.928 324.434L230.405 322.81C229.406 324.362 228.361 325.906 227.255 327.46L229.7 329.199ZM235.931 319.528C236.887 317.886 237.81 316.218 238.718 314.507L236.068 313.101C235.177 314.781 234.272 316.414 233.338 318.019L235.931 319.528ZM241.322 309.402C241.738 308.557 242.154 307.698 242.571 306.824L239.864 305.531C239.451 306.396 239.04 307.244 238.63 308.078L241.322 309.402ZM242.571 306.824C242.941 306.049 243.311 305.269 243.679 304.484L240.963 303.21C240.598 303.988 240.231 304.762 239.864 305.531L242.571 306.824ZM245.845 299.776C246.552 298.206 247.249 296.622 247.931 295.028L245.173 293.847C244.499 295.423 243.809 296.99 243.109 298.544L245.845 299.776ZM249.923 290.233C250.571 288.623 251.198 287.006 251.801 285.387L248.99 284.34C248.397 285.933 247.778 287.525 247.14 289.114L249.923 290.233ZM253.544 280.483C253.823 279.657 254.094 278.832 254.357 278.008L251.498 277.098C251.241 277.904 250.976 278.713 250.702 279.523L253.544 280.483ZM254.357 278.008C254.623 277.171 254.867 276.332 255.089 275.491L252.189 274.723C251.978 275.519 251.749 276.311 251.498 277.098L254.357 278.008ZM256.206 270.395C256.51 268.69 256.754 266.98 256.959 265.27L253.981 264.913C253.781 266.579 253.545 268.231 253.253 269.868L256.206 270.395ZM257.48 260.154C257.629 258.456 257.762 256.754 257.898 255.066L254.908 254.825C254.771 256.523 254.64 258.208 254.492 259.892L257.48 260.154ZM258.341 250.017C258.424 249.179 258.512 248.344 258.61 247.512L255.63 247.163C255.53 248.016 255.44 248.87 255.355 249.723L258.341 250.017ZM258.61 247.512C258.73 246.49 258.848 245.466 258.966 244.442L255.985 244.1C255.868 245.123 255.75 246.144 255.63 247.163L258.61 247.512ZM259.665 238.305C259.898 236.264 260.134 234.222 260.379 232.179L257.4 231.822C257.155 233.873 256.918 235.921 256.684 237.964L259.665 238.305ZM261.144 226.069C261.412 224.035 261.694 222.004 261.996 219.979L259.029 219.536C258.724 221.581 258.439 223.63 258.17 225.678L261.144 226.069ZM262.971 213.917C263.321 211.9 263.697 209.891 264.105 207.892L261.166 207.292C260.751 209.323 260.37 211.361 260.015 213.404L262.971 213.917ZM265.434 201.917C265.913 199.934 266.431 197.963 266.993 196.007L264.109 195.179C263.535 197.179 263.007 199.19 262.518 201.211L265.434 201.917ZM268.816 190.184C269.47 188.262 270.174 186.357 270.934 184.471L268.151 183.35C267.37 185.29 266.647 187.246 265.976 189.217L268.816 190.184ZM273.372 178.897C273.806 177.983 274.254 177.074 274.719 176.171L272.05 174.8C271.571 175.732 271.109 176.67 270.662 177.612L273.372 178.897ZM274.719 176.171C275.182 175.27 275.658 174.368 276.147 173.468L273.51 172.037C273.01 172.957 272.524 173.879 272.05 174.8L274.719 176.171ZM279.182 168.155C280.225 166.418 281.314 164.69 282.448 162.978L279.946 161.322C278.788 163.072 277.676 164.836 276.61 166.61L279.182 168.155ZM285.936 157.949C287.131 156.305 288.367 154.68 289.642 153.083L287.297 151.211C285.993 152.845 284.73 154.505 283.509 156.186L285.936 157.949ZM293.566 148.392C294.91 146.86 296.291 145.36 297.707 143.897L295.551 141.81C294.1 143.309 292.686 144.846 291.311 146.414L293.566 148.392ZM302.066 139.62C303.559 138.23 305.086 136.884 306.645 135.587L304.726 133.281C303.123 134.615 301.554 135.998 300.022 137.424L302.066 139.62ZM311.444 131.829C313.085 130.622 314.758 129.471 316.46 128.382L314.844 125.855C313.085 126.98 311.359 128.168 309.667 129.412L311.444 131.829ZM321.692 125.286C323.476 124.314 325.289 123.412 327.128 122.585L325.898 119.849C323.987 120.708 322.106 121.644 320.257 122.651L321.692 125.286ZM332.752 120.328C333.704 119.992 334.662 119.675 335.627 119.381L334.75 116.512C333.744 116.819 332.744 117.149 331.751 117.5L332.752 120.328ZM335.627 119.381C336.537 119.103 337.454 118.835 338.377 118.578L337.572 115.688C336.626 115.952 335.685 116.226 334.75 116.512L335.627 119.381ZM343.946 117.174C345.804 116.753 347.681 116.374 349.575 116.038L349.05 113.084C347.111 113.429 345.187 113.817 343.283 114.248L343.946 117.174ZM355.252 115.163C357.145 114.916 359.051 114.71 360.965 114.546L360.71 111.557C358.751 111.725 356.801 111.935 354.863 112.189L355.252 115.163ZM366.701 114.185C368.613 114.108 370.53 114.072 372.448 114.079L372.459 111.08C370.497 111.072 368.535 111.108 366.58 111.188L366.701 114.185ZM378.192 114.229C380.106 114.322 382.017 114.458 383.924 114.638L384.205 111.651C382.253 111.467 380.296 111.328 378.338 111.233L378.192 114.229ZM389.629 115.307C391.527 115.574 393.416 115.886 395.294 116.242L395.853 113.295C393.928 112.93 391.992 112.61 390.048 112.336L389.629 115.307ZM400.906 117.449C402.77 117.899 404.618 118.394 406.448 118.935L407.299 116.058C405.419 115.502 403.521 114.994 401.609 114.533L400.906 117.449ZM411.902 120.706C413.707 121.346 415.49 122.033 417.246 122.768L418.405 120.001C416.595 119.244 414.761 118.536 412.904 117.878L411.902 120.706ZM422.461 125.13C424.179 125.97 425.868 126.86 427.523 127.799L429.003 125.19C427.294 124.22 425.551 123.302 423.779 122.435L422.461 125.13ZM432.401 130.777C433.996 131.823 435.553 132.92 437.069 134.068L438.88 131.676C437.309 130.487 435.697 129.351 434.047 128.269L432.401 130.777ZM441.495 137.67C442.925 138.92 444.311 140.223 445.649 141.577L447.783 139.468C446.393 138.061 444.954 136.709 443.47 135.412L441.495 137.67ZM449.499 145.778C450.724 147.219 451.899 148.713 453.021 150.258L455.449 148.496C454.281 146.888 453.059 145.335 451.786 143.835L449.499 145.778ZM456.189 154.997C457.173 156.6 458.105 158.253 458.98 159.957L461.649 158.587C460.739 156.814 459.77 155.095 458.745 153.427L456.189 154.997ZM461.39 165.118C461.759 165.992 462.114 166.878 462.455 167.777L465.26 166.713C464.906 165.78 464.537 164.86 464.154 163.951L461.39 165.118ZM462.455 167.777C462.793 168.669 463.113 169.56 463.414 170.448L466.255 169.486C465.942 168.563 465.611 167.638 465.26 166.713L462.455 167.777ZM465.027 175.882C465.5 177.739 465.89 179.585 466.197 181.417L469.156 180.921C468.835 179.005 468.427 177.077 467.934 175.141L465.027 175.882ZM466.879 187.02C467.023 188.916 467.074 190.794 467.033 192.65L470.032 192.716C470.075 190.76 470.021 188.785 469.871 186.794L466.879 187.02ZM466.623 198.263C466.388 200.132 466.056 201.976 465.626 203.792L468.545 204.483C469 202.561 469.351 200.611 469.599 198.637L466.623 198.263ZM464.035 209.177C463.409 210.934 462.685 212.661 461.862 214.354L464.561 215.665C465.431 213.873 466.198 212.045 466.861 210.184L464.035 209.177ZM459.138 219.27C458.155 220.841 457.08 222.377 455.911 223.876L458.278 225.72C459.508 224.141 460.643 222.521 461.681 220.862L459.138 219.27ZM452.235 228.147C450.962 229.49 449.607 230.798 448.168 232.067L450.152 234.317C451.657 232.99 453.077 231.62 454.412 230.211L452.235 228.147ZM443.771 235.632C443.021 236.191 442.253 236.742 441.466 237.283L443.166 239.754C443.984 239.192 444.783 238.619 445.564 238.037L443.771 235.632ZM441.466 237.283C440.639 237.852 439.805 238.409 438.964 238.955L440.598 241.471C441.46 240.911 442.317 240.339 443.166 239.754L441.466 237.283ZM433.832 242.11C432.095 243.121 430.334 244.091 428.552 245.026L429.946 247.683C431.764 246.729 433.564 245.737 435.341 244.702L433.832 242.11ZM423.15 247.726C421.332 248.592 419.496 249.427 417.646 250.235L418.846 252.984C420.724 252.164 422.59 251.316 424.44 250.435L423.15 247.726ZM412.062 252.577C410.189 253.334 408.305 254.067 406.412 254.782L407.473 257.588C409.384 256.866 411.289 256.125 413.185 255.359L412.062 252.577ZM400.713 256.877C398.805 257.56 396.892 258.229 394.976 258.889L395.953 261.726C397.878 261.063 399.803 260.389 401.725 259.701L400.713 256.877ZM389.213 260.849C388.25 261.173 387.287 261.496 386.324 261.818L387.277 264.663C388.24 264.34 389.204 264.017 390.169 263.692L389.213 260.849ZM386.324 261.818C385.415 262.122 384.508 262.424 383.603 262.722L384.542 265.571C385.452 265.272 386.363 264.968 387.277 264.663L386.324 261.818ZM378.152 264.476C376.324 265.048 374.502 265.598 372.681 266.12L373.507 269.004C375.355 268.474 377.201 267.917 379.048 267.34L378.152 264.476ZM367.178 267.606C365.335 268.07 363.489 268.499 361.636 268.887L362.25 271.823C364.147 271.427 366.032 270.988 367.911 270.515L367.178 267.606ZM356.055 269.916C354.196 270.211 352.325 270.459 350.437 270.653L350.743 273.637C352.689 273.437 354.615 273.182 356.525 272.879L356.055 269.916ZM344.794 271.063C343.857 271.102 342.915 271.127 341.967 271.137L342 274.137C342.979 274.127 343.952 274.101 344.92 274.06L344.794 271.063ZM341.967 271.137C340.939 271.148 339.912 271.149 338.888 271.14L338.862 274.14C339.906 274.149 340.951 274.148 342 274.137L341.967 271.137ZM332.734 270.966C330.677 270.868 328.63 270.729 326.592 270.551L326.331 273.54C328.408 273.721 330.494 273.862 332.59 273.963L332.734 270.966ZM320.471 269.895C318.431 269.637 316.401 269.338 314.38 269.002L313.887 271.961C315.946 272.304 318.015 272.608 320.094 272.872L320.471 269.895ZM308.327 267.873C306.315 267.458 304.313 267.005 302.32 266.515L301.604 269.428C303.633 269.927 305.672 270.389 307.721 270.811L308.327 267.873ZM296.367 264.933C294.394 264.37 292.43 263.77 290.474 263.135L289.548 265.989C291.537 266.635 293.536 267.245 295.544 267.818L296.367 264.933ZM284.647 261.129C282.72 260.428 280.801 259.693 278.89 258.924L277.77 261.707C279.712 262.489 281.662 263.236 283.622 263.949L284.647 261.129ZM273.208 256.529C271.332 255.703 269.464 254.844 267.604 253.954L266.309 256.66C268.197 257.564 270.094 258.435 271.999 259.275L273.208 256.529ZM262.078 251.208C261.165 250.737 260.254 250.259 259.345 249.773L257.932 252.419C258.853 252.912 259.777 253.397 260.703 253.874L262.078 251.208ZM259.345 249.773C258.517 249.331 257.693 248.879 256.873 248.419L255.404 251.035C256.242 251.505 257.085 251.967 257.932 252.419L259.345 249.773ZM252.01 245.559C250.41 244.576 248.825 243.56 247.254 242.515L245.592 245.012C247.192 246.077 248.807 247.112 250.439 248.115L252.01 245.559ZM242.6 239.307C241.069 238.214 239.55 237.096 238.044 235.954L236.231 238.344C237.76 239.503 239.302 240.639 240.858 241.749L242.6 239.307ZM233.578 232.473C232.106 231.295 230.646 230.097 229.196 228.881L227.268 231.179C228.734 232.409 230.213 233.622 231.704 234.815L233.578 232.473ZM224.889 225.191C223.466 223.948 222.053 222.689 220.65 221.419L218.636 223.643C220.052 224.924 221.478 226.194 222.915 227.45L224.889 225.191ZM216.469 217.576C215.084 216.283 213.707 214.981 212.339 213.673L210.266 215.841C211.642 217.157 213.028 218.468 214.423 219.769L216.469 217.576ZM208.249 209.722C206.888 208.396 205.536 207.065 204.19 205.734L202.08 207.866C203.43 209.202 204.788 210.538 206.154 211.87L208.249 209.722ZM200.153 201.718C198.805 200.371 197.464 199.026 196.128 197.686L194.003 199.803C195.339 201.144 196.682 202.491 198.033 203.841L200.153 201.718ZM192.103 193.647C191.43 192.972 190.758 192.299 190.088 191.629L187.967 193.75C188.636 194.419 189.307 195.091 189.979 195.766L192.103 193.647ZM190.088 191.629C189.384 190.925 188.684 190.219 187.988 189.509L185.847 191.611C186.55 192.327 187.256 193.04 187.967 193.75L190.088 191.629ZM183.851 185.214C182.484 183.769 181.132 182.311 179.795 180.843L177.577 182.863C178.927 184.345 180.291 185.816 181.671 187.275L183.851 185.214ZM175.822 176.396C174.51 174.901 173.214 173.394 171.932 171.876L169.64 173.811C170.934 175.343 172.242 176.864 173.566 178.374L175.822 176.396ZM168.128 167.283C166.874 165.739 165.635 164.184 164.411 162.619L162.047 164.467C163.283 166.047 164.534 167.616 165.8 169.175L168.128 167.283ZM160.782 157.887C159.586 156.297 158.406 154.698 157.242 153.087L154.811 154.845C155.986 156.471 157.177 158.086 158.384 159.69L160.782 157.887ZM153.793 148.222C152.658 146.59 151.539 144.947 150.436 143.294L147.941 144.959C149.054 146.628 150.184 148.286 151.33 149.934L153.793 148.222ZM147.172 138.303C146.099 136.629 145.043 134.945 144.002 133.252L141.446 134.823C142.497 136.532 143.563 138.231 144.646 139.921L147.172 138.303ZM140.927 128.142C139.918 126.429 138.925 124.707 137.948 122.976L135.335 124.45C136.321 126.197 137.324 127.936 138.342 129.665L140.927 128.142ZM135.067 117.754C134.122 116.005 133.195 114.247 132.283 112.48L129.617 113.855C130.537 115.639 131.474 117.413 132.427 119.179L135.067 117.754ZM129.599 107.155C128.72 105.372 127.859 103.58 127.014 101.78L124.298 103.055C125.151 104.872 126.021 106.68 126.907 108.48L129.599 107.155ZM124.53 96.3588C123.719 94.5442 122.924 92.7218 122.147 90.8917L119.386 92.0648C120.17 93.912 120.972 95.7514 121.791 97.583L124.53 96.3588ZM119.866 85.3812C119.123 83.5378 118.397 81.6871 117.687 79.8292L114.885 80.8989C115.6 82.7742 116.333 84.6422 117.083 86.5028L119.866 85.3812ZM115.613 74.2379C114.938 72.3685 114.281 70.4923 113.642 68.6093L110.801 69.5745C111.447 71.475 112.11 73.3688 112.79 75.2555L115.613 74.2379ZM111.775 62.9452C111.17 61.0523 110.583 59.153 110.013 57.2475L107.139 58.1073C107.714 60.0305 108.307 61.9474 108.917 63.8578L111.775 62.9452ZM108.357 51.5182C107.822 49.6045 107.305 47.6848 106.806 45.7592L103.902 46.5127C104.406 48.456 104.928 50.3935 105.467 52.3249L108.357 51.5182ZM105.361 39.9726C104.897 38.0406 104.451 36.1031 104.022 34.1602L101.093 34.8067C101.525 36.7674 101.976 38.7228 102.444 40.6726L105.361 39.9726ZM102.79 28.324C102.398 26.3767 102.023 24.4242 101.665 22.4669L98.7139 23.006C99.0747 24.9812 99.4532 26.9516 99.8493 28.9168L102.79 28.324ZM100.647 16.5907C100.326 14.6306 100.022 12.6658 99.7357 10.6967L96.7669 11.128C97.0557 13.1152 97.3622 15.0979 97.6864 17.0759L100.647 16.5907ZM98.9317 4.7869C98.8066 3.80056 98.6859 2.81316 98.5696 1.82474L95.5901 2.17526C95.7075 3.17267 95.8293 4.16906 95.9555 5.16439L98.9317 4.7869Z" fill="#3D405B"/>
</svg>
