<svg width="125" height="86" viewBox="0 0 125 86" fill="none" xmlns="http://www.w3.org/2000/svg">
<path d="M40.5564 80.8613C39.4262 77.3679 39.2576 73.6164 38.7343 70.0345C38.6374 69.5766 39.584 69.1243 40.1391 69.1616C43.3512 69.4419 46.8002 69.6091 49.5696 70.5043L49.688 70.4477C64.724 64.1708 71.7483 50.3271 76.6176 40.3368C82.2912 28.8528 85.6324 16.5673 81.3015 5.83007C80.4707 4.61357 79.5733 3.32811 78.4392 2.15572C77.9055 1.60401 79.2071 0.982095 79.8591 1.47727C80.0592 1.68416 80.2594 1.89105 80.4595 2.09795C80.9328 1.8718 81.4879 1.90908 81.8215 2.2539C82.437 3.06904 82.8158 3.99726 83.313 4.86893C100.445 24.0105 85.9091 57.2752 55.8054 73.3734C57.9377 73.968 60.0181 74.6881 62.2688 75.2262C63.3275 75.4261 62.8477 76.3612 61.9527 76.688C55.5696 79.0323 48.6438 79.9212 42.0001 81.2807C41.4603 81.4378 40.7202 81.3881 40.5564 80.8613ZM59.0806 76.0438C57.5032 75.4865 56.1628 74.8161 54.4673 74.3153C53.8968 74.0835 53.9852 73.6381 54.2735 73.3995C54.0734 73.1926 54.1765 72.9415 54.4648 72.703C80.0761 56.4321 92.1572 34.2227 85.9332 14.9108C86.1759 23.5679 82.7265 32.8799 78.595 41.3078C75.5776 47.4891 71.8715 53.495 67.1069 59.301C63.3468 63.8203 58.0334 68.8801 50.5099 70.7609C51.3986 71.143 50.2455 72.0973 49.372 71.9096C46.6996 71.4722 44.094 71.1038 41.4368 70.8608C41.8485 73.7902 42.1414 76.7761 42.9748 79.6048C48.2867 78.4786 53.8655 77.628 59.0806 76.0438Z" fill="#2F3137"/>
</svg>
