<svg width="77" height="77" viewBox="0 0 77 77" fill="none" xmlns="http://www.w3.org/2000/svg">
<g clip-path="url(#clip0_11_157)">
<path d="M75.0045 54.0345C73.3714 52.1787 71.6703 50.4507 69.8712 48.752C68.3273 47.1899 66.6645 45.2362 64.7205 44.1163C63.6698 43.4734 62.2736 44.8599 63.0221 45.9154C63.0221 45.9154 63.0518 46.0133 63.1497 45.9835C63.0431 46.3366 62.9069 46.592 62.7025 46.9747C62.6046 47.0045 62.4386 47.1617 62.3407 47.1914C62.1747 47.3488 62.0384 47.604 61.9022 47.8594C55.7545 46.6271 49.6662 45.5906 43.7613 43.75C41.9957 43.2174 40.2983 42.557 38.6393 41.6715C42.6791 37.0226 46.9071 30.1782 43.9567 24.3393C40.02 16.6619 32.6477 23.7132 30.9903 28.8141C28.8858 34.9062 30.3902 39.1532 35.1244 42.4187C32.3916 45.3874 29.0889 47.8879 25.4079 48.7925C16.6079 51.146 12.7605 43.7621 13.0189 36.5205C15.8611 36.7259 18.8864 36.1273 21.2528 34.7667C25.5555 32.3901 27.5247 24.094 23.0457 20.9648C18.5964 17.9334 12.6651 27.9681 11.7447 30.9206C11.4635 31.7544 11.2122 32.6861 11.0587 33.5881C10.931 33.5199 10.833 33.5497 10.7056 33.4815C2.29047 31.1208 6.54439 23.3064 10.7032 19.0491C11.3672 18.4197 10.3549 17.5512 9.66117 18.0828C5.15791 21.9102 0.487597 28.3544 5.88483 33.4497C7.21183 34.6501 8.87085 35.5359 10.7045 35.9408C10.1871 41.9783 12.0907 48.2424 18.174 50.6701C25.4741 53.5835 32.2161 48.3275 36.941 43.4705C37.0686 43.5385 37.0686 43.5385 37.1963 43.6067C44.2746 47.5497 52.9498 48.6554 60.8717 50.097C60.5906 50.9308 60.3392 51.8627 60.058 52.6963C59.9131 53.2751 60.2192 53.9305 60.7296 54.2028C64.9198 56.0299 69.587 56.9637 74.1995 56.3104C75.3652 56.277 75.8211 54.9626 75.0045 54.0345ZM34.1902 38.6401C30.9067 35.5752 32.4191 31.0529 34.1311 27.5391C36.3583 22.9065 42.0388 22.2495 42.6574 28.1555C42.9327 31.1723 41.072 34.1967 39.5818 36.6809C38.8026 37.9868 37.8278 39.3523 36.7253 40.6496C35.8021 40.0748 34.9471 39.3723 34.1902 38.6401ZM13.3434 34.07C13.3434 34.07 13.3136 33.9721 13.3434 34.07C13.9104 31.011 15.2732 28.4587 17.244 26.1492C18.1124 25.1369 19.1085 24.1927 20.2916 23.5125C23.3219 21.5225 23.2641 27.3133 22.9954 28.8917C22.0703 33.2355 17.2831 34.3696 13.3434 34.07ZM62.9172 52.2551C62.8875 52.1572 62.9854 52.1275 62.9556 52.0296C63.2493 51.9404 63.4833 51.6552 63.5602 51.2044C63.6456 50.4301 63.8289 49.626 64.0121 48.8217C64.1187 48.4686 64.5275 47.7029 64.3317 47.7624C64.4296 47.7327 64.4977 47.605 64.468 47.5072C65.3823 48.4052 66.4925 49.244 67.4069 50.142C68.6063 51.2743 69.8354 52.5045 71.0646 53.7348C68.4096 53.7936 65.5761 53.2648 62.9172 52.2551Z" fill="white"/>
</g>
<defs>
<clipPath id="clip0_11_157">
<rect width="61.3994" height="61.3995" fill="white" transform="translate(58.7471) rotate(73.0969)"/>
</clipPath>
</defs>
</svg>
