<svg width="125" height="85" viewBox="0 0 125 85" fill="none" xmlns="http://www.w3.org/2000/svg">
<path d="M40.5569 80.1936C39.4267 76.7001 39.2581 72.9486 38.7348 69.3668C38.6379 68.9089 39.5845 68.4566 40.1396 68.4939C43.3517 68.7742 46.8007 68.9413 49.5701 69.8365L49.6884 69.78C64.7245 63.5031 71.7488 49.6593 76.6181 39.669C82.2917 28.1851 85.6329 15.8996 81.302 5.16234C80.4712 3.94585 79.5738 2.66038 78.4397 1.48799C77.906 0.936281 79.2076 0.314371 79.8596 0.809546C80.0597 1.01644 80.2599 1.22333 80.46 1.43022C80.9333 1.20407 81.4884 1.24135 81.822 1.58617C82.4375 2.40131 82.8163 3.32953 83.3135 4.20121C100.446 23.3428 85.9096 56.6075 55.8059 72.7057C57.9382 73.3003 60.0186 74.0204 62.2693 74.5585C63.328 74.7584 62.8482 75.6935 61.9532 76.0203C55.5701 78.3645 48.6443 79.2535 42.0006 80.613C41.4608 80.7701 40.7207 80.7203 40.5569 80.1936ZM59.0811 75.376C57.5037 74.8188 56.1633 74.1483 54.4678 73.6476C53.8973 73.4158 53.9857 72.9704 54.274 72.7318C54.0738 72.5249 54.177 72.2738 54.4653 72.0353C80.0766 55.7643 92.1577 33.555 85.9337 14.2431C86.1763 22.9002 82.727 32.2122 78.5955 40.64C75.5781 46.8214 71.872 52.8273 67.1074 58.6333C63.3473 63.1526 58.0339 68.2124 50.5104 70.0931C51.3991 70.4752 50.246 71.4295 49.3724 71.2419C46.7001 70.8045 44.0945 70.4361 41.4373 70.1931C41.849 73.1224 42.1419 76.1084 42.9752 78.937C48.2871 77.8109 53.866 76.9603 59.0811 75.376Z" fill="white"/>
</svg>
