<svg width="323" height="16" viewBox="0 0 323 16" fill="none" xmlns="http://www.w3.org/2000/svg">
<path d="M7.00792 8.04188C9.53682 8.04188 12.1861 7.95811 14.715 7.87434C15.7989 7.87434 16.7622 7.79058 17.8461 7.79058C22.4222 7.62304 26.9983 7.4555 31.5744 7.28796C37.1139 7.12042 42.5329 6.86911 48.0724 6.70157C55.9 6.36649 63.7275 6.11518 71.5551 5.7801C73.3614 5.69633 75.1678 5.69633 76.9742 5.61257C81.5503 5.44503 86.1264 5.27749 90.7025 5.19372C95.2786 5.02618 99.8547 4.85864 104.431 4.77487C106.237 4.6911 108.043 4.60733 109.85 4.60733C117.075 4.43979 124.421 4.27225 131.647 4.10471C136.102 4.02094 140.558 3.93717 145.134 3.76963C146.94 3.76963 148.626 3.68586 150.433 3.68586C157.417 3.60209 164.522 3.51832 171.507 3.43455C178.491 3.35079 185.356 3.26702 192.34 3.18325C194.147 3.18325 195.953 3.18325 197.88 3.18325C202.456 3.18325 206.911 3.18325 211.488 3.18325C218.593 3.18325 225.577 3.18325 232.682 3.09948C234.97 3.09948 237.258 3.09948 239.546 3.09948C244.363 3.09948 249.18 3.09948 253.997 3.09948C254.358 3.09948 254.84 3.09948 255.201 3.09948C244.363 3.18325 233.405 3.26702 222.567 3.43455C217.99 3.51832 213.535 3.51832 208.959 3.60209C207.032 3.60209 204.985 3.60209 203.058 3.68586C196.435 3.76963 189.932 3.93717 183.308 4.02094C175.722 4.18848 168.135 4.27225 160.548 4.43979C159.224 4.43979 158.019 4.52356 156.695 4.52356C152.6 4.6911 148.626 4.77487 144.532 4.94241C136.343 5.19372 128.154 5.44503 119.965 5.69633C118.761 5.69633 117.557 5.7801 116.353 5.86387C112.379 6.03141 108.284 6.28272 104.31 6.45026C97.0849 6.78534 89.9799 7.12042 82.7545 7.4555C80.8277 7.53927 78.7805 7.70681 76.8537 7.79058C72.2776 8.04188 67.7015 8.29319 63.1254 8.62827C57.3451 8.96335 51.4443 9.29843 45.664 9.63351C37.5956 10.1361 29.4067 10.6387 21.3384 11.1414C19.4116 11.2251 17.4848 11.3927 15.4376 11.4764C11.9453 11.7277 8.45301 11.9791 4.96072 12.2304C4.59944 12.2304 4.23817 12.3979 4.23817 12.733C4.23817 12.9843 4.59944 13.2356 4.96072 13.2356C6.28538 13.2356 7.48962 13.3194 8.81428 13.3194C8.57343 13.7382 8.45301 13.9895 8.45301 14.2408C8.45301 15.1623 9.53682 16 10.9819 16C20.9771 15.5812 30.8518 15.0785 40.847 14.7435C49.5175 14.4921 58.188 14.1571 66.8586 13.9058C76.372 13.5707 86.0059 13.2356 95.5194 12.9843C98.53 12.9005 101.541 12.8168 104.551 12.6492C105.394 12.6492 106.237 12.5654 107.201 12.5654C122.615 12.3141 138.029 11.9791 153.443 11.7277C161.632 11.5602 169.941 11.3927 178.13 11.3089C181.141 11.2251 184.031 11.2251 187.042 11.1414C202.817 10.9738 218.593 10.8063 234.368 10.6387C241.112 10.555 247.856 10.4712 254.599 10.3874C260.38 10.3037 266.16 10.3037 271.94 10.1361C276.757 10.0524 281.454 9.88482 286.271 9.80105C288.679 9.71728 291.088 9.71728 293.376 9.63351C298.795 9.3822 304.214 9.13089 309.633 8.87958C309.272 9.21466 309.272 9.71728 309.392 10.0524C309.513 10.4712 309.874 10.8063 310.476 10.9738C310.958 11.1414 311.68 11.3089 312.162 11.1414C313.366 10.8063 314.57 10.4712 315.654 10.1361C315.654 10.1361 315.654 10.1361 315.534 10.1361C315.654 10.1361 315.654 10.0524 315.775 10.0524C315.895 10.0524 316.015 9.96859 316.015 9.96859H315.895C316.497 9.80105 317.099 9.63351 317.822 9.3822C318.424 9.21466 319.146 8.96335 319.749 8.79581C320.471 8.5445 321.073 8.29319 321.796 8.04188C322.518 7.79058 323 7.12042 323 6.53403C323 6.19895 322.88 5.94764 322.639 5.61257C322.398 5.27749 321.796 4.85864 321.194 4.77487C320.592 4.6911 319.989 4.60733 319.387 4.60733C319.267 4.60733 319.146 4.60733 319.026 4.60733C318.665 4.60733 318.183 4.60733 317.822 4.6911C316.858 4.77487 316.015 4.85864 315.052 4.85864C314.329 4.85864 313.607 4.94241 312.764 4.94241C310.717 5.02618 308.79 5.10995 306.743 5.27749C306.261 5.27749 305.659 5.36126 305.177 5.36126C305.418 5.19372 305.539 5.02618 305.539 4.85864C305.659 4.6911 305.659 4.52356 305.659 4.35602C305.659 4.27225 305.659 4.10471 305.779 4.02094C305.779 3.8534 305.779 3.68586 305.659 3.60209C305.659 3.60209 305.779 3.60209 305.779 3.51832C306.141 3.35079 306.502 3.18325 306.743 2.84817C306.984 2.59686 307.104 2.26178 307.104 1.9267C307.104 1.59162 306.984 1.34031 306.743 1.00524C306.622 0.921466 306.502 0.753927 306.382 0.670157C306.02 0.418848 305.659 0.335079 305.298 0.251309C304.575 0.0837696 303.732 0 302.889 0C302.167 0 301.565 0 300.842 0C299.879 0 298.915 0 297.952 0C296.627 0 295.182 0 293.857 0C290.245 0 286.632 0 283.019 0C279.647 0 276.155 0 272.783 0C269.652 0 266.642 0 263.511 0C251.107 0 238.824 0.0837696 226.42 0.167539C217.147 0.251309 207.875 0.335079 198.602 0.335079C194.508 0.335079 190.293 0.418848 186.199 0.502618C176.926 0.670157 167.653 0.753927 158.381 0.921466C155.731 0.921466 153.082 1.00524 150.433 1.00524C148.867 1.00524 147.422 1.08901 145.857 1.08901C136.704 1.34031 127.552 1.59162 118.4 1.84293C115.63 1.9267 112.86 2.01047 109.97 2.09424C108.405 2.09424 106.839 2.17801 105.274 2.26178C96.1215 2.59686 87.0897 2.93194 77.9375 3.26702C73.241 3.43456 68.5445 3.60209 63.848 3.8534C55.7796 4.18848 47.7112 4.52356 39.7632 4.94241C32.7786 5.27749 25.794 5.5288 18.8095 5.7801C17.7256 5.86387 16.6418 5.86387 15.4376 5.94764C13.6312 6.03141 11.8249 6.03141 10.0185 6.11518C8.45301 6.45026 6.76707 6.45026 5.20156 6.45026C5.08114 6.11518 4.59944 5.86387 4.23817 5.94764C3.15436 5.94764 2.19097 6.03141 1.10715 6.11518C0.625459 6.19895 0.143764 6.36649 0.0233399 6.70157C-0.0970839 7.12042 0.264188 7.53927 0.745883 7.62304C1.22758 7.70681 1.70927 7.79058 2.19097 7.87434C2.67266 7.95811 3.03394 7.95812 3.51563 7.95812C4.71987 8.04188 5.80368 8.04188 7.00792 8.04188ZM288.8 5.36126C290.245 5.36126 291.81 5.36126 293.255 5.36126C293.376 5.61257 293.617 5.7801 293.857 5.94764C293.255 5.94764 292.653 6.03141 292.172 6.03141C291.088 6.03141 290.004 6.11518 288.92 6.11518C284.103 6.19895 279.407 6.36649 274.59 6.45026C272.422 6.53403 270.254 6.6178 268.087 6.6178C264.715 6.6178 261.223 6.70157 257.851 6.70157C250.023 6.78534 242.316 6.86911 234.488 6.95288C219.315 7.12042 204.262 7.28796 189.089 7.4555C178.251 7.53927 167.412 7.79058 156.574 8.04188C140.317 8.37696 123.939 8.62827 107.682 8.96335C104.431 9.04712 101.179 9.13089 97.9279 9.29843C88.6553 9.63351 79.3826 9.88482 70.11 10.2199C61.0782 10.555 51.926 10.8063 42.8942 11.1414C42.0512 11.1414 41.2083 11.2251 40.3653 11.2251C42.7738 11.0576 45.3027 10.9738 47.7112 10.8063C56.2613 10.3874 64.8113 9.88482 73.3614 9.46597C76.372 9.29843 79.3826 9.13089 82.2728 8.96335C83.8383 8.87958 85.4038 8.79581 86.8489 8.79581C95.8807 8.46073 104.792 8.04188 113.703 7.70681C115.389 7.62304 117.196 7.53927 118.882 7.4555C121.411 7.37173 123.939 7.28796 126.348 7.28796C135.5 7.03665 144.652 6.78534 153.805 6.53403C155.852 6.45026 157.899 6.45026 159.826 6.36649C160.307 6.36649 160.91 6.36649 161.391 6.36649C162.836 6.36649 164.281 6.36649 165.606 6.28272C174.758 6.11518 184.031 6.03141 193.183 5.86387C197.398 5.7801 201.613 5.69633 205.828 5.69633C219.436 5.61257 233.164 5.5288 246.772 5.44503C260.982 5.44503 274.951 5.36126 288.8 5.36126Z" fill="#E07A5F"/>
</svg>
